Grotesca Reforma-Magra.ufo
<glyph name="exclam" format="2">
	<advance width="251"/>
	<unicode hex="0021"/>
	<outline>
		<contour>
			<point x="88" y="800" type="line"/>
			<point x="108" y="183" type="line"/>
			<point x="143" y="183" type="line"/>
			<point x="163" y="800" type="line"/>
		</contour>
		<component base="period" xOffset="20"/>
	</outline>
</glyph>
<glyph name="numbersign" format="2">
	<advance width="790"/>
	<unicode hex="0023"/>
	<outline>
		<contour>
			<point x="60" y="230" type="line"/>
			<point x="192" y="230" type="line"/>
			<point x="140" y="0" type="line"/>
			<point x="191" y="0" type="line"/>
			<point x="243" y="230" type="line"/>
			<point x="471" y="230" type="line"/>
			<point x="419" y="0" type="line"/>
			<point x="470" y="0" type="line"/>
			<point x="522" y="230" type="line"/>
			<point x="690" y="230" type="line"/>
			<point x="690" y="280" type="line"/>
			<point x="533" y="280" type="line"/>
			<point x="587" y="520" type="line"/>
			<point x="730" y="520" type="line"/>
			<point x="730" y="570" type="line"/>
			<point x="598" y="570" type="line"/>
			<point x="650" y="800" type="line"/>
			<point x="599" y="800" type="line"/>
			<point x="547" y="570" type="line"/>
			<point x="319" y="570" type="line"/>
			<point x="371" y="800" type="line"/>
			<point x="320" y="800" type="line"/>
			<point x="268" y="570" type="line"/>
			<point x="100" y="570" type="line"/>
			<point x="100" y="520" type="line"/>
			<point x="257" y="520" type="line"/>
			<point x="203" y="280" type="line"/>
			<point x="60" y="280" type="line"/>
		</contour>
		<contour>
			<point x="254" y="280" type="line"/>
			<point x="308" y="520" type="line"/>
			<point x="536" y="520" type="line"/>
			<point x="482" y="280" type="line"/>
		</contour>
	</outline>
</glyph>
<glyph name="ampersand" format="2">
	<advance width="893"/>
	<unicode hex="0026"/>
	<outline>
		<contour>
			<point x="787" y="7" type="curve"/>
			<point x="787" y="57" type="line"/>
			<point x="770" y="53"/>
			<point x="754" y="50"/>
			<point x="743" y="50" type="curve" smooth="yes"/>
			<point x="707" y="50"/>
			<point x="668" y="70"/>
			<point x="637" y="104" type="curve" smooth="yes"/>
			<point x="235" y="545" type="line" smooth="yes"/>
			<point x="205" y="576"/>
			<point x="182" y="615"/>
			<point x="182" y="661" type="curve" smooth="yes"/>
			<point x="182" y="726"/>
			<point x="228" y="764"/>
			<point x="305" y="764" type="curve" smooth="yes"/>
			<point x="381" y="764"/>
			<point x="426" y="728"/>
			<point x="426" y="667" type="curve" smooth="yes"/>
			<point x="426" y="646"/>
			<point x="418" y="622"/>
			<point x="405" y="602" type="curve" smooth="yes"/>
			<point x="387" y="574"/>
			<point x="345" y="539"/>
			<point x="294" y="509" type="curve" smooth="yes"/>
			<point x="208" y="459" type="line" smooth="yes"/>
			<point x="164" y="434"/>
			<point x="124" y="397"/>
			<point x="99" y="360" type="curve" smooth="yes"/>
			<point x="72" y="320"/>
			<point x="57" y="272"/>
			<point x="57" y="229" type="curve" smooth="yes"/>
			<point x="57" y="75"/>
			<point x="155" y="-16"/>
			<point x="321" y="-16" type="curve" smooth="yes"/>
			<point x="560" y="-16"/>
			<point x="701" y="143"/>
			<point x="701" y="412" type="curve"/>
			<point x="701" y="418" type="line"/>
			<point x="646" y="418" type="line"/>
			<point x="646" y="412" type="line"/>
			<point x="641" y="176"/>
			<point x="520" y="36"/>
			<point x="321" y="36" type="curve" smooth="yes"/>
			<point x="191" y="36"/>
			<point x="114" y="108"/>
			<point x="114" y="229" type="curve" smooth="yes"/>
			<point x="114" y="264"/>
			<point x="124" y="303"/>
			<point x="142" y="332" type="curve" smooth="yes"/>
			<point x="161" y="363"/>
			<point x="193" y="394"/>
			<point x="228" y="415" type="curve" smooth="yes"/>
			<point x="314" y="465" type="line" smooth="yes"/>
			<point x="375" y="500"/>
			<point x="425" y="541"/>
			<point x="450" y="574" type="curve" smooth="yes"/>
			<point x="471" y="602"/>
			<point x="483" y="637"/>
			<point x="483" y="667" type="curve" smooth="yes"/>
			<point x="483" y="761"/>
			<point x="419" y="816"/>
			<point x="311" y="816" type="curve" smooth="yes"/>
			<point x="194" y="816"/>
			<point x="125" y="758"/>
			<point x="125" y="661" type="curve" smooth="yes"/>
			<point x="125" y="606"/>
			<point x="153" y="553"/>
			<point x="191" y="510" type="curve" smooth="yes"/>
			<point x="593" y="69" type="line" smooth="yes"/>
			<point x="633" y="26"/>
			<point x="689" y="0"/>
			<point x="743" y="0" type="curve" smooth="yes"/>
			<point x="754" y="0"/>
			<point x="770" y="3"/>
		</contour>
	</outline>
</glyph>
<glyph name="quotesingle" format="2">
	<advance width="211"/>
	<unicode hex="0027"/>
	<outline>
		<contour>
			<point x="68" y="700" type="line"/>
			<point x="88" y="570" type="line"/>
			<point x="123" y="570" type="line"/>
			<point x="143" y="700" type="line"/>
			<point x="143" y="820" type="line"/>
			<point x="68" y="820" type="line"/>
		</contour>
	</outline>
</glyph>
<glyph name="parenleft" format="2">
	<advance width="341"/>
	<unicode hex="0028"/>
	<outline>
		<contour>
			<point x="66" y="315" type="line" smooth="yes"/>
			<point x="66" y="95"/>
			<point x="150" y="-93"/>
			<point x="291" y="-190" type="curve"/>
			<point x="321" y="-150" type="line"/>
			<point x="195" y="-55"/>
			<point x="121" y="116"/>
			<point x="121" y="310" type="curve" smooth="yes"/>
			<point x="121" y="330" type="line" smooth="yes"/>
			<point x="121" y="524"/>
			<point x="195" y="695"/>
			<point x="321" y="790" type="curve"/>
			<point x="291" y="830" type="line"/>
			<point x="150" y="733"/>
			<point x="66" y="545"/>
			<point x="66" y="325" type="curve" smooth="yes"/>
		</contour>
	</outline>
</glyph>
<glyph name="parenright" format="2">
	<advance width="341"/>
	<unicode hex="0029"/>
	<outline>
		<contour>
			<point x="275" y="315" type="curve" smooth="yes"/>
			<point x="275" y="325" type="line" smooth="yes"/>
			<point x="275" y="545"/>
			<point x="191" y="733"/>
			<point x="50" y="830" type="curve"/>
			<point x="20" y="790" type="line"/>
			<point x="146" y="695"/>
			<point x="220" y="524"/>
			<point x="220" y="330" type="curve" smooth="yes"/>
			<point x="220" y="310" type="line" smooth="yes"/>
			<point x="220" y="116"/>
			<point x="146" y="-55"/>
			<point x="20" y="-150" type="curve"/>
			<point x="50" y="-190" type="line"/>
			<point x="191" y="-93"/>
			<point x="275" y="95"/>
		</contour>
	</outline>
</glyph>
<glyph name="asterisk" format="2">
	<advance width="403"/>
	<unicode hex="002A"/>
	<outline>
		<contour>
			<point x="48" y="566" type="line"/>
			<point x="78" y="514" type="line"/>
			<point x="81" y="513" type="line"/>
			<point x="180" y="582" type="line"/>
			<point x="169" y="462" type="line"/>
			<point x="171" y="460" type="line"/>
			<point x="232" y="460" type="line"/>
			<point x="234" y="462" type="line"/>
			<point x="223" y="582" type="line"/>
			<point x="322" y="513" type="line"/>
			<point x="325" y="514" type="line"/>
			<point x="355" y="566" type="line"/>
			<point x="355" y="569" type="line"/>
			<point x="245" y="620" type="line"/>
			<point x="355" y="671" type="line"/>
			<point x="355" y="674" type="line"/>
			<point x="325" y="726" type="line"/>
			<point x="322" y="727" type="line"/>
			<point x="223" y="658" type="line"/>
			<point x="234" y="778" type="line"/>
			<point x="232" y="780" type="line"/>
			<point x="171" y="780" type="line"/>
			<point x="169" y="778" type="line"/>
			<point x="180" y="658" type="line"/>
			<point x="81" y="727" type="line"/>
			<point x="78" y="726" type="line"/>
			<point x="48" y="674" type="line"/>
			<point x="48" y="671" type="line"/>
			<point x="158" y="620" type="line"/>
			<point x="48" y="569" type="line"/>
		</contour>
	</outline>
</glyph>
<glyph name="comma" format="2">
	<advance width="211"/>
	<unicode hex="002C"/>
	<outline>
		<contour>
			<point x="68" y="-120" type="line"/>
			<point x="106" y="-120" type="line"/>
			<point x="143" y="0" type="line"/>
			<point x="143" y="120" type="line"/>
			<point x="68" y="120" type="line"/>
			<point x="68" y="0" type="line"/>
			<point x="95" y="0" type="line"/>
		</contour>
	</outline>
</glyph>
<glyph name="period" format="2">
	<advance width="211"/>
	<unicode hex="002E"/>
	<outline>
		<contour>
			<point x="68" y="0" type="line"/>
			<point x="143" y="0" type="line"/>
			<point x="143" y="120" type="line"/>
			<point x="68" y="120" type="line"/>
		</contour>
	</outline>
</glyph>
<glyph name="zero" format="2">
	<advance width="722"/>
	<unicode hex="0030"/>
	<outline>
		<contour>
			<point x="66" y="384" type="line" smooth="yes"/>
			<point x="66" y="133"/>
			<point x="176" y="-16"/>
			<point x="362" y="-16" type="curve" smooth="yes"/>
			<point x="547" y="-16"/>
			<point x="656" y="132"/>
			<point x="656" y="382" type="curve" smooth="yes"/>
			<point x="656" y="397" type="line" smooth="yes"/>
			<point x="656" y="648"/>
			<point x="546" y="796"/>
			<point x="360" y="796" type="curve" smooth="yes"/>
			<point x="175" y="796"/>
			<point x="66" y="649"/>
			<point x="66" y="399" type="curve" smooth="yes"/>
		</contour>
		<contour>
			<point x="123" y="376" type="curve" smooth="yes"/>
			<point x="123" y="399" type="line" smooth="yes"/>
			<point x="123" y="616"/>
			<point x="211" y="744"/>
			<point x="359" y="744" type="curve" smooth="yes"/>
			<point x="510" y="744"/>
			<point x="599" y="618"/>
			<point x="599" y="405" type="curve" smooth="yes"/>
			<point x="599" y="382" type="line" smooth="yes"/>
			<point x="599" y="165"/>
			<point x="511" y="36"/>
			<point x="363" y="36" type="curve" smooth="yes"/>
			<point x="212" y="36"/>
			<point x="123" y="162"/>
		</contour>
	</outline>
</glyph>
<glyph name="one" format="2">
	<advance width="353"/>
	<unicode hex="0031"/>
	<outline>
		<contour>
			<point x="54" y="588" type="curve"/>
			<point x="85" y="549" type="line"/>
			<point x="136" y="589"/>
			<point x="170" y="631"/>
			<point x="188" y="675" type="curve"/>
			<point x="192" y="675" type="line"/>
			<point x="192" y="0" type="line"/>
			<point x="247" y="0" type="line"/>
			<point x="247" y="780" type="line"/>
			<point x="202" y="780" type="line"/>
			<point x="171" y="708"/>
			<point x="116" y="637"/>
		</contour>
	</outline>
</glyph>
<glyph name="two" format="2">
	<advance width="630"/>
	<unicode hex="0032"/>
	<outline>
		<contour>
			<point x="79" y="572" type="line"/>
			<point x="132" y="568" type="line"/>
			<point x="133" y="580" type="line" smooth="yes"/>
			<point x="142" y="683"/>
			<point x="209" y="744"/>
			<point x="314" y="744" type="curve" smooth="yes"/>
			<point x="428" y="744"/>
			<point x="495" y="675"/>
			<point x="495" y="559" type="curve" smooth="yes"/>
			<point x="495" y="398"/>
			<point x="336" y="210"/>
			<point x="66" y="55" type="curve"/>
			<point x="66" y="0" type="line"/>
			<point x="582" y="0" type="line"/>
			<point x="582" y="50" type="line"/>
			<point x="148" y="50" type="line"/>
			<point x="148" y="54" type="line"/>
			<point x="402" y="194"/>
			<point x="552" y="383"/>
			<point x="552" y="564" type="curve" smooth="yes"/>
			<point x="552" y="710"/>
			<point x="464" y="796"/>
			<point x="315" y="796" type="curve" smooth="yes"/>
			<point x="178" y="796"/>
			<point x="91" y="717"/>
			<point x="80" y="584" type="curve" smooth="yes"/>
		</contour>
	</outline>
</glyph>
<glyph name="three" format="2">
	<advance width="674"/>
	<unicode hex="0033"/>
	<outline>
		<contour>
			<point x="68" y="185" type="line" smooth="yes"/>
			<point x="85" y="59"/>
			<point x="184" y="-16"/>
			<point x="335" y="-16" type="curve" smooth="yes"/>
			<point x="514" y="-16"/>
			<point x="619" y="72"/>
			<point x="619" y="220" type="curve" smooth="yes"/>
			<point x="619" y="230" type="line" smooth="yes"/>
			<point x="619" y="335"/>
			<point x="551" y="412"/>
			<point x="435" y="436" type="curve"/>
			<point x="435" y="440" type="line"/>
			<point x="519" y="459"/>
			<point x="569" y="516"/>
			<point x="569" y="595" type="curve" smooth="yes"/>
			<point x="569" y="605" type="line" smooth="yes"/>
			<point x="569" y="725"/>
			<point x="481" y="796"/>
			<point x="333" y="796" type="curve" smooth="yes"/>
			<point x="194" y="796"/>
			<point x="107" y="732"/>
			<point x="98" y="624" type="curve" smooth="yes"/>
			<point x="97" y="612" type="line"/>
			<point x="150" y="608" type="line"/>
			<point x="151" y="620" type="line" smooth="yes"/>
			<point x="157" y="698"/>
			<point x="225" y="744"/>
			<point x="332" y="744" type="curve" smooth="yes"/>
			<point x="445" y="744"/>
			<point x="512" y="692"/>
			<point x="512" y="605" type="curve" smooth="yes"/>
			<point x="512" y="595" type="line" smooth="yes"/>
			<point x="512" y="510"/>
			<point x="450" y="460"/>
			<point x="346" y="460" type="curve" smooth="yes"/>
			<point x="288" y="460" type="line"/>
			<point x="288" y="410" type="line"/>
			<point x="332" y="410" type="line" smooth="yes"/>
			<point x="477" y="410"/>
			<point x="562" y="343"/>
			<point x="562" y="230" type="curve" smooth="yes"/>
			<point x="562" y="220" type="line" smooth="yes"/>
			<point x="562" y="104"/>
			<point x="478" y="36"/>
			<point x="336" y="36" type="curve" smooth="yes"/>
			<point x="215" y="36"/>
			<point x="136" y="94"/>
			<point x="123" y="192" type="curve" smooth="yes"/>
			<point x="121" y="207" type="line"/>
			<point x="66" y="200" type="line"/>
		</contour>
	</outline>
</glyph>
<glyph name="four" format="2">
	<advance width="694"/>
	<unicode hex="0034"/>
	<outline>
		<contour>
			<point x="629" y="190" type="line"/>
			<point x="629" y="240" type="line"/>
			<point x="114" y="240" type="line"/>
			<point x="114" y="244" type="line"/>
			<point x="254" y="368"/>
			<point x="370" y="521"/>
			<point x="425" y="655" type="curve"/>
			<point x="429" y="655" type="line"/>
			<point x="429" y="0" type="line"/>
			<point x="484" y="0" type="line"/>
			<point x="484" y="780" type="line"/>
			<point x="441" y="780" type="line"/>
			<point x="352" y="593"/>
			<point x="209" y="397"/>
			<point x="54" y="250" type="curve"/>
			<point x="54" y="190" type="line"/>
		</contour>
	</outline>
</glyph>
<glyph name="five" format="2">
	<advance width="655"/>
	<unicode hex="0035"/>
	<outline>
		<contour>
			<point x="68" y="195" type="line" smooth="yes"/>
			<point x="86" y="62"/>
			<point x="181" y="-16"/>
			<point x="325" y="-16" type="curve" smooth="yes"/>
			<point x="480" y="-16"/>
			<point x="589" y="90"/>
			<point x="589" y="240" type="curve" smooth="yes"/>
			<point x="589" y="250" type="line" smooth="yes"/>
			<point x="589" y="403"/>
			<point x="478" y="512"/>
			<point x="322" y="512" type="curve" smooth="yes"/>
			<point x="255" y="512"/>
			<point x="187" y="485"/>
			<point x="159" y="448" type="curve"/>
			<point x="155" y="448" type="line"/>
			<point x="173" y="730" type="line"/>
			<point x="523" y="730" type="line"/>
			<point x="523" y="780" type="line"/>
			<point x="121" y="780" type="line"/>
			<point x="98" y="403" type="line"/>
			<point x="150" y="386" type="line"/>
			<point x="184" y="429"/>
			<point x="255" y="460"/>
			<point x="322" y="460" type="curve" smooth="yes"/>
			<point x="445" y="460"/>
			<point x="532" y="373"/>
			<point x="532" y="250" type="curve" smooth="yes"/>
			<point x="532" y="240" type="line" smooth="yes"/>
			<point x="532" y="121"/>
			<point x="447" y="36"/>
			<point x="326" y="36" type="curve" smooth="yes"/>
			<point x="212" y="36"/>
			<point x="137" y="98"/>
			<point x="123" y="202" type="curve" smooth="yes"/>
			<point x="121" y="217" type="line"/>
			<point x="66" y="210" type="line"/>
		</contour>
	</outline>
</glyph>
<glyph name="six" format="2">
	<advance width="680"/>
	<unicode hex="0036"/>
	<outline>
		<contour>
			<point x="66" y="374" type="line" smooth="yes"/>
			<point x="66" y="129"/>
			<point x="170" y="-16"/>
			<point x="346" y="-16" type="curve" smooth="yes"/>
			<point x="503" y="-16"/>
			<point x="614" y="88"/>
			<point x="614" y="236" type="curve" smooth="yes"/>
			<point x="614" y="251" type="line" smooth="yes"/>
			<point x="614" y="402"/>
			<point x="505" y="508"/>
			<point x="351" y="508" type="curve" smooth="yes"/>
			<point x="236" y="508"/>
			<point x="153" y="450"/>
			<point x="127" y="351" type="curve"/>
			<point x="123" y="351" type="line"/>
			<point x="123" y="389" type="line" smooth="yes"/>
			<point x="123" y="612"/>
			<point x="210" y="744"/>
			<point x="356" y="744" type="curve" smooth="yes"/>
			<point x="452" y="744"/>
			<point x="520" y="695"/>
			<point x="540" y="613" type="curve" smooth="yes"/>
			<point x="543" y="601" type="line"/>
			<point x="596" y="608" type="line"/>
			<point x="593" y="620" type="line" smooth="yes"/>
			<point x="565" y="731"/>
			<point x="477" y="796"/>
			<point x="356" y="796" type="curve" smooth="yes"/>
			<point x="174" y="796"/>
			<point x="66" y="645"/>
			<point x="66" y="389" type="curve" smooth="yes"/>
		</contour>
		<contour>
			<point x="147" y="249" type="curve" smooth="yes"/>
			<point x="147" y="262" type="line" smooth="yes"/>
			<point x="147" y="376"/>
			<point x="232" y="456"/>
			<point x="351" y="456" type="curve" smooth="yes"/>
			<point x="473" y="456"/>
			<point x="559" y="370"/>
			<point x="559" y="249" type="curve" smooth="yes"/>
			<point x="559" y="236" type="line" smooth="yes"/>
			<point x="559" y="119"/>
			<point x="471" y="36"/>
			<point x="346" y="36" type="curve" smooth="yes"/>
			<point x="229" y="36"/>
			<point x="147" y="124"/>
		</contour>
	</outline>
</glyph>
<glyph name="seven" format="2">
	<advance width="622"/>
	<unicode hex="0037"/>
	<outline>
		<contour>
			<point x="54" y="730" type="line"/>
			<point x="508" y="730" type="line"/>
			<point x="508" y="720" type="line"/>
			<point x="338" y="549"/>
			<point x="237" y="281"/>
			<point x="237" y="0" type="curve"/>
			<point x="292" y="0" type="line"/>
			<point x="292" y="271"/>
			<point x="397" y="542"/>
			<point x="574" y="730" type="curve"/>
			<point x="574" y="780" type="line"/>
			<point x="54" y="780" type="line"/>
		</contour>
	</outline>
</glyph>
<glyph name="eight" format="2">
	<advance width="668"/>
	<unicode hex="0038"/>
	<outline>
		<contour>
			<point x="66" y="220" type="line" smooth="yes"/>
			<point x="66" y="82"/>
			<point x="179" y="-16"/>
			<point x="338" y="-16" type="curve" smooth="yes"/>
			<point x="493" y="-16"/>
			<point x="602" y="82"/>
			<point x="602" y="220" type="curve" smooth="yes"/>
			<point x="602" y="230" type="line" smooth="yes"/>
			<point x="602" y="323"/>
			<point x="534" y="408"/>
			<point x="439" y="434" type="curve"/>
			<point x="439" y="438" type="line"/>
			<point x="511" y="458"/>
			<point x="562" y="525"/>
			<point x="562" y="600" type="curve" smooth="yes"/>
			<point x="562" y="609" type="line" smooth="yes"/>
			<point x="562" y="719"/>
			<point x="466" y="796"/>
			<point x="331" y="796" type="curve" smooth="yes"/>
			<point x="199" y="796"/>
			<point x="106" y="719"/>
			<point x="106" y="609" type="curve" smooth="yes"/>
			<point x="106" y="600" type="line" smooth="yes"/>
			<point x="106" y="525"/>
			<point x="157" y="458"/>
			<point x="229" y="438" type="curve"/>
			<point x="229" y="434" type="line"/>
			<point x="134" y="408"/>
			<point x="66" y="323"/>
			<point x="66" y="230" type="curve" smooth="yes"/>
		</contour>
		<contour>
			<point x="123" y="217" type="curve" smooth="yes"/>
			<point x="123" y="226" type="line" smooth="yes"/>
			<point x="123" y="334"/>
			<point x="208" y="410"/>
			<point x="329" y="410" type="curve" smooth="yes"/>
			<point x="456" y="410"/>
			<point x="545" y="336"/>
			<point x="545" y="231" type="curve" smooth="yes"/>
			<point x="545" y="222" type="line" smooth="yes"/>
			<point x="545" y="113"/>
			<point x="456" y="36"/>
			<point x="331" y="36" type="curve" smooth="yes"/>
			<point x="209" y="36"/>
			<point x="123" y="111"/>
		</contour>
		<contour>
			<point x="161" y="598" type="curve" smooth="yes"/>
			<point x="161" y="606" type="line" smooth="yes"/>
			<point x="161" y="687"/>
			<point x="234" y="744"/>
			<point x="338" y="744" type="curve" smooth="yes"/>
			<point x="437" y="744"/>
			<point x="507" y="689"/>
			<point x="507" y="611" type="curve" smooth="yes"/>
			<point x="507" y="603" type="line" smooth="yes"/>
			<point x="507" y="519"/>
			<point x="437" y="460"/>
			<point x="339" y="460" type="curve" smooth="yes"/>
			<point x="235" y="460"/>
			<point x="161" y="517"/>
		</contour>
	</outline>
</glyph>
<glyph name="nine" format="2">
	<advance width="680"/>
	<unicode hex="0039"/>
	<outline>
		<contour>
			<point x="614" y="406" type="line" smooth="yes"/>
			<point x="614" y="651"/>
			<point x="510" y="796"/>
			<point x="334" y="796" type="curve" smooth="yes"/>
			<point x="177" y="796"/>
			<point x="66" y="692"/>
			<point x="66" y="544" type="curve" smooth="yes"/>
			<point x="66" y="529" type="line" smooth="yes"/>
			<point x="66" y="378"/>
			<point x="175" y="272"/>
			<point x="329" y="272" type="curve" smooth="yes"/>
			<point x="455" y="272"/>
			<point x="554" y="349"/>
			<point x="567" y="459" type="curve"/>
			<point x="557" y="459" type="line"/>
			<point x="557" y="391" type="line" smooth="yes"/>
			<point x="557" y="168"/>
			<point x="477" y="36"/>
			<point x="324" y="36" type="curve" smooth="yes"/>
			<point x="235" y="36"/>
			<point x="159" y="90"/>
			<point x="140" y="167" type="curve" smooth="yes"/>
			<point x="137" y="179" type="line"/>
			<point x="84" y="172" type="line"/>
			<point x="87" y="160" type="line" smooth="yes"/>
			<point x="113" y="57"/>
			<point x="211" y="-16"/>
			<point x="324" y="-16" type="curve" smooth="yes"/>
			<point x="513" y="-16"/>
			<point x="614" y="135"/>
			<point x="614" y="391" type="curve" smooth="yes"/>
		</contour>
		<contour>
			<point x="533" y="531" type="curve" smooth="yes"/>
			<point x="533" y="518" type="line" smooth="yes"/>
			<point x="533" y="404"/>
			<point x="448" y="324"/>
			<point x="329" y="324" type="curve" smooth="yes"/>
			<point x="207" y="324"/>
			<point x="121" y="410"/>
			<point x="121" y="531" type="curve" smooth="yes"/>
			<point x="121" y="544" type="line" smooth="yes"/>
			<point x="121" y="661"/>
			<point x="209" y="744"/>
			<point x="334" y="744" type="curve" smooth="yes"/>
			<point x="451" y="744"/>
			<point x="533" y="656"/>
		</contour>
	</outline>
</glyph>
<glyph name="question" format="2">
	<advance width="615"/>
	<unicode hex="003F"/>
	<outline>
		<contour>
			<point x="57" y="582" type="line"/>
			<point x="110" y="578" type="line"/>
			<point x="111" y="590" type="line" smooth="yes"/>
			<point x="120" y="699"/>
			<point x="196" y="764"/>
			<point x="313" y="764" type="curve" smooth="yes"/>
			<point x="437" y="764"/>
			<point x="510" y="706"/>
			<point x="510" y="608" type="curve" smooth="yes"/>
			<point x="510" y="584"/>
			<point x="503" y="559"/>
			<point x="491" y="534" type="curve" smooth="yes"/>
			<point x="478" y="507"/>
			<point x="456" y="482"/>
			<point x="429" y="460" type="curve" smooth="yes"/>
			<point x="389" y="427" type="line" smooth="yes"/>
			<point x="354" y="398"/>
			<point x="326" y="364"/>
			<point x="308" y="325" type="curve" smooth="yes"/>
			<point x="291" y="288"/>
			<point x="280" y="248"/>
			<point x="280" y="207" type="curve" smooth="yes"/>
			<point x="280" y="183" type="line"/>
			<point x="335" y="183" type="line"/>
			<point x="335" y="210" type="line" smooth="yes"/>
			<point x="335" y="241"/>
			<point x="343" y="272"/>
			<point x="357" y="302" type="curve" smooth="yes"/>
			<point x="371" y="332"/>
			<point x="395" y="361"/>
			<point x="423" y="384" type="curve" smooth="yes"/>
			<point x="463" y="417" type="line" smooth="yes"/>
			<point x="496" y="445"/>
			<point x="523" y="476"/>
			<point x="541" y="510" type="curve" smooth="yes"/>
			<point x="558" y="541"/>
			<point x="567" y="574"/>
			<point x="567" y="605" type="curve" smooth="yes"/>
			<point x="567" y="738"/>
			<point x="473" y="816"/>
			<point x="313" y="816" type="curve" smooth="yes"/>
			<point x="165" y="816"/>
			<point x="70" y="734"/>
			<point x="58" y="594" type="curve" smooth="yes"/>
		</contour>
		<component base="period" xOffset="202"/>
	</outline>
</glyph>
<glyph name="at" format="2">
	<advance width="1022"/>
	<unicode hex="0040"/>
	<outline>
		<contour>
			<point x="673" y="474" type="line"/>
			<point x="656" y="551"/>
			<point x="581" y="606"/>
			<point x="493" y="606" type="curve" smooth="yes"/>
			<point x="371" y="606"/>
			<point x="284" y="509"/>
			<point x="284" y="371" type="curve" smooth="yes"/>
			<point x="284" y="360" type="line" smooth="yes"/>
			<point x="284" y="222"/>
			<point x="370" y="124"/>
			<point x="491" y="124" type="curve" smooth="yes"/>
			<point x="581" y="124"/>
			<point x="656" y="179"/>
			<point x="673" y="256" type="curve"/>
			<point x="673" y="345" type="line"/>
			<point x="658" y="345" type="line"/>
			<point x="658" y="335" type="line" smooth="yes"/>
			<point x="658" y="238"/>
			<point x="588" y="169"/>
			<point x="488" y="169" type="curve" smooth="yes"/>
			<point x="399" y="169"/>
			<point x="336" y="246"/>
			<point x="336" y="354" type="curve" smooth="yes"/>
			<point x="336" y="371" type="line" smooth="yes"/>
			<point x="336" y="482"/>
			<point x="402" y="561"/>
			<point x="496" y="561" type="curve" smooth="yes"/>
			<point x="591" y="561"/>
			<point x="658" y="492"/>
			<point x="658" y="395" type="curve"/>
			<point x="673" y="395" type="line"/>
		</contour>
		<contour>
			<point x="66" y="366" type="line" smooth="yes"/>
			<point x="66" y="105"/>
			<point x="254" y="-80"/>
			<point x="521" y="-80" type="curve" smooth="yes"/>
			<point x="625" y="-80"/>
			<point x="752" y="-47"/>
			<point x="827" y="-1" type="curve"/>
			<point x="827" y="48" type="line"/>
			<point x="822" y="51" type="line"/>
			<point x="745" y="1"/>
			<point x="621" y="-35"/>
			<point x="522" y="-35" type="curve" smooth="yes"/>
			<point x="285" y="-35"/>
			<point x="118" y="129"/>
			<point x="118" y="361" type="curve" smooth="yes"/>
			<point x="118" y="376" type="line" smooth="yes"/>
			<point x="118" y="598"/>
			<point x="285" y="755"/>
			<point x="520" y="755" type="curve" smooth="yes"/>
			<point x="745" y="755"/>
			<point x="904" y="597"/>
			<point x="904" y="374" type="curve" smooth="yes"/>
			<point x="904" y="359" type="line" smooth="yes"/>
			<point x="904" y="245"/>
			<point x="853" y="165"/>
			<point x="781" y="165" type="curve" smooth="yes"/>
			<point x="738" y="165"/>
			<point x="708" y="205"/>
			<point x="708" y="261" type="curve" smooth="yes"/>
			<point x="708" y="590" type="line"/>
			<point x="668" y="590" type="line"/>
			<point x="658" y="510" type="line"/>
			<point x="658" y="256" type="line" smooth="yes"/>
			<point x="658" y="176"/>
			<point x="709" y="120"/>
			<point x="780" y="120" type="curve" smooth="yes"/>
			<point x="883" y="120"/>
			<point x="956" y="221"/>
			<point x="956" y="364" type="curve" smooth="yes"/>
			<point x="956" y="369" type="line" smooth="yes"/>
			<point x="956" y="621"/>
			<point x="776" y="800"/>
			<point x="521" y="800" type="curve" smooth="yes"/>
			<point x="254" y="800"/>
			<point x="66" y="622"/>
			<point x="66" y="371" type="curve" smooth="yes"/>
		</contour>
	</outline>
</glyph>
<glyph name="A" format="2">
	<advance width="801"/>
	<unicode hex="0041"/>
	<anchor x="753" y="10" name="ogonek"/>
	<anchor x="394" y="0" name="bottom"/>
	<anchor x="394" y="800" name="top"/>
	<outline>
		<contour>
			<point x="753" y="0" type="line"/>
			<point x="422" y="800" type="line"/>
			<point x="368" y="800" type="line"/>
			<point x="54" y="0" type="line"/>
			<point x="113" y="0" type="line"/>
			<point x="370" y="667" type="line"/>
			<point x="393" y="750" type="line"/>
			<point x="397" y="750" type="line"/>
			<point x="420" y="667" type="line"/>
			<point x="691" y="0" type="line"/>
		</contour>
		<contour>
			<point x="188" y="310" type="line"/>
			<point x="188" y="260" type="line"/>
			<point x="603" y="260" type="line"/>
			<point x="603" y="310" type="line"/>
		</contour>
	</outline>
</glyph>
<glyph name="B" format="2">
	<advance width="782"/>
	<unicode hex="0042"/>
	<outline>
		<contour>
			<point x="106" y="0" type="line"/>
			<point x="463" y="0" type="line" smooth="yes"/>
			<point x="629" y="0"/>
			<point x="727" y="86"/>
			<point x="727" y="232" type="curve" smooth="yes"/>
			<point x="727" y="247" type="line" smooth="yes"/>
			<point x="727" y="356"/>
			<point x="666" y="434"/>
			<point x="563" y="455" type="curve"/>
			<point x="563" y="459" type="line"/>
			<point x="635" y="474"/>
			<point x="677" y="529"/>
			<point x="677" y="607" type="curve" smooth="yes"/>
			<point x="677" y="622" type="line" smooth="yes"/>
			<point x="677" y="734"/>
			<point x="600" y="800"/>
			<point x="471" y="800" type="curve" smooth="yes"/>
			<point x="106" y="800" type="line"/>
		</contour>
		<contour>
			<point x="161" y="50" type="line"/>
			<point x="161" y="430" type="line"/>
			<point x="460" y="430" type="line" smooth="yes"/>
			<point x="592" y="430"/>
			<point x="670" y="362"/>
			<point x="670" y="247" type="curve" smooth="yes"/>
			<point x="670" y="232" type="line" smooth="yes"/>
			<point x="670" y="118"/>
			<point x="593" y="50"/>
			<point x="464" y="50" type="curve" smooth="yes"/>
		</contour>
		<contour>
			<point x="161" y="480" type="line"/>
			<point x="161" y="750" type="line"/>
			<point x="470" y="750" type="line" smooth="yes"/>
			<point x="564" y="750"/>
			<point x="620" y="702"/>
			<point x="620" y="622" type="curve" smooth="yes"/>
			<point x="620" y="607" type="line" smooth="yes"/>
			<point x="620" y="527"/>
			<point x="566" y="480"/>
			<point x="474" y="480" type="curve" smooth="yes"/>
		</contour>
	</outline>
</glyph>
<glyph name="C" format="2">
	<advance width="803"/>
	<unicode hex="0043"/>
	<anchor x="436" y="800" name="top"/>
	<anchor x="426" y="0" name="bottom"/>
	<outline>
		<contour>
			<point x="743" y="238" type="line"/>
			<point x="690" y="242" type="line"/>
			<point x="688" y="230" type="line" smooth="yes"/>
			<point x="668" y="108"/>
			<point x="570" y="36"/>
			<point x="426" y="36" type="curve" smooth="yes"/>
			<point x="236" y="36"/>
			<point x="123" y="166"/>
			<point x="123" y="386" type="curve" smooth="yes"/>
			<point x="123" y="409" type="line" smooth="yes"/>
			<point x="123" y="632"/>
			<point x="236" y="764"/>
			<point x="426" y="764" type="curve" smooth="yes"/>
			<point x="559" y="764"/>
			<point x="649" y="696"/>
			<point x="668" y="580" type="curve" smooth="yes"/>
			<point x="670" y="568" type="line"/>
			<point x="723" y="572" type="line"/>
			<point x="721" y="584" type="line" smooth="yes"/>
			<point x="696" y="730"/>
			<point x="587" y="816"/>
			<point x="426" y="816" type="curve" smooth="yes"/>
			<point x="200" y="816"/>
			<point x="66" y="665"/>
			<point x="66" y="409" type="curve" smooth="yes"/>
			<point x="66" y="394" type="line" smooth="yes"/>
			<point x="66" y="136"/>
			<point x="200" y="-16"/>
			<point x="426" y="-16" type="curve" smooth="yes"/>
			<point x="598" y="-16"/>
			<point x="715" y="74"/>
			<point x="741" y="226" type="curve" smooth="yes"/>
		</contour>
	</outline>
</glyph>
<glyph name="D" format="2">
	<advance width="803"/>
	<unicode hex="0044"/>
	<anchor x="372" y="400" name="center"/>
	<anchor x="372" y="0" name="bottom"/>
	<anchor x="372" y="800" name="top"/>
	<outline>
		<contour>
			<point x="106" y="0" type="line"/>
			<point x="363" y="0" type="line" smooth="yes"/>
			<point x="595" y="0"/>
			<point x="737" y="149"/>
			<point x="737" y="392" type="curve" smooth="yes"/>
			<point x="737" y="407" type="line" smooth="yes"/>
			<point x="737" y="651"/>
			<point x="594" y="800"/>
			<point x="361" y="800" type="curve" smooth="yes"/>
			<point x="106" y="800" type="line"/>
		</contour>
		<contour>
			<point x="161" y="50" type="line"/>
			<point x="161" y="750" type="line"/>
			<point x="360" y="750" type="line" smooth="yes"/>
			<point x="558" y="750"/>
			<point x="680" y="623"/>
			<point x="680" y="415" type="curve" smooth="yes"/>
			<point x="680" y="392" type="line" smooth="yes"/>
			<point x="680" y="180"/>
			<point x="560" y="50"/>
			<point x="364" y="50" type="curve" smooth="yes"/>
		</contour>
	</outline>
</glyph>
<glyph name="E" format="2">
	<advance width="726"/>
	<unicode hex="0045"/>
	<anchor x="661" y="10" name="ogonek"/>
	<anchor x="375" y="800" name="top"/>
	<anchor x="20" y="800" name="topleft"/>
	<anchor x="365" y="0" name="bottom"/>
	<outline>
		<contour>
			<point x="106" y="0" type="line"/>
			<point x="661" y="0" type="line"/>
			<point x="661" y="50" type="line"/>
			<point x="161" y="50" type="line"/>
			<point x="161" y="420" type="line"/>
			<point x="571" y="420" type="line"/>
			<point x="571" y="470" type="line"/>
			<point x="161" y="470" type="line"/>
			<point x="161" y="750" type="line"/>
			<point x="641" y="750" type="line"/>
			<point x="641" y="800" type="line"/>
			<point x="106" y="800" type="line"/>
		</contour>
	</outline>
</glyph>
<glyph name="F" format="2">
	<advance width="706"/>
	<unicode hex="0046"/>
	<outline>
		<contour>
			<point x="106" y="0" type="line"/>
			<point x="161" y="0" type="line"/>
			<point x="161" y="420" type="line"/>
			<point x="571" y="420" type="line"/>
			<point x="571" y="470" type="line"/>
			<point x="161" y="470" type="line"/>
			<point x="161" y="750" type="line"/>
			<point x="641" y="750" type="line"/>
			<point x="641" y="800" type="line"/>
			<point x="106" y="800" type="line"/>
		</contour>
	</outline>
</glyph>
<glyph name="G" format="2">
	<advance width="830"/>
	<unicode hex="0047"/>
	<anchor x="406" y="800" name="top"/>
	<anchor x="406" y="0" name="bottom"/>
	<outline>
		<contour>
			<point x="764" y="425" type="line"/>
			<point x="441" y="425" type="line"/>
			<point x="441" y="375" type="line"/>
			<point x="709" y="375" type="line"/>
			<point x="709" y="366" type="line" smooth="yes"/>
			<point x="709" y="159"/>
			<point x="604" y="36"/>
			<point x="426" y="36" type="curve" smooth="yes"/>
			<point x="236" y="36"/>
			<point x="123" y="166"/>
			<point x="123" y="386" type="curve" smooth="yes"/>
			<point x="123" y="409" type="line" smooth="yes"/>
			<point x="123" y="632"/>
			<point x="236" y="764"/>
			<point x="426" y="764" type="curve" smooth="yes"/>
			<point x="560" y="764"/>
			<point x="650" y="699"/>
			<point x="668" y="590" type="curve" smooth="yes"/>
			<point x="670" y="578" type="line"/>
			<point x="723" y="582" type="line"/>
			<point x="721" y="594" type="line" smooth="yes"/>
			<point x="697" y="734"/>
			<point x="588" y="816"/>
			<point x="426" y="816" type="curve" smooth="yes"/>
			<point x="200" y="816"/>
			<point x="66" y="665"/>
			<point x="66" y="409" type="curve" smooth="yes"/>
			<point x="66" y="394" type="line" smooth="yes"/>
			<point x="66" y="136"/>
			<point x="200" y="-16"/>
			<point x="426" y="-16" type="curve" smooth="yes"/>
			<point x="638" y="-16"/>
			<point x="764" y="126"/>
			<point x="764" y="366" type="curve" smooth="yes"/>
		</contour>
	</outline>
</glyph>
<glyph name="H" format="2">
	<advance width="832"/>
	<unicode hex="0048"/>
	<outline>
		<contour>
			<point x="106" y="0" type="line"/>
			<point x="161" y="0" type="line"/>
			<point x="161" y="410" type="line"/>
			<point x="671" y="410" type="line"/>
			<point x="671" y="0" type="line"/>
			<point x="726" y="0" type="line"/>
			<point x="726" y="800" type="line"/>
			<point x="671" y="800" type="line"/>
			<point x="671" y="460" type="line"/>
			<point x="161" y="460" type="line"/>
			<point x="161" y="800" type="line"/>
			<point x="106" y="800" type="line"/>
		</contour>
	</outline>
</glyph>
<glyph name="I" format="2">
	<advance width="267"/>
	<unicode hex="0049"/>
	<anchor x="161" y="10" name="ogonek"/>
	<anchor x="134" y="800" name="top"/>
	<anchor x="20" y="800" name="topleft"/>
	<anchor x="134" y="0" name="bottom"/>
	<outline>
		<contour>
			<point x="161" y="800" type="line"/>
			<point x="106" y="800" type="line"/>
			<point x="106" y="0" type="line"/>
			<point x="161" y="0" type="line"/>
		</contour>
	</outline>
</glyph>
<glyph name="J" format="2">
	<advance width="620"/>
	<unicode hex="004A"/>
	<outline>
		<contour>
			<point x="514" y="800" type="line"/>
			<point x="459" y="800" type="line"/>
			<point x="459" y="212" type="line" smooth="yes"/>
			<point x="459" y="101"/>
			<point x="392" y="36"/>
			<point x="279" y="36" type="curve" smooth="yes"/>
			<point x="172" y="36"/>
			<point x="109" y="99"/>
			<point x="109" y="206" type="curve" smooth="yes"/>
			<point x="109" y="247" type="line"/>
			<point x="54" y="237" type="line"/>
			<point x="54" y="214" type="line" smooth="yes"/>
			<point x="54" y="69"/>
			<point x="138" y="-16"/>
			<point x="279" y="-16" type="curve" smooth="yes"/>
			<point x="427" y="-16"/>
			<point x="514" y="69"/>
			<point x="514" y="212" type="curve" smooth="yes"/>
		</contour>
	</outline>
</glyph>
<glyph name="K" format="2">
	<advance width="751"/>
	<unicode hex="004B"/>
	<anchor x="376" y="800" name="top"/>
	<anchor x="376" y="0" name="bottom"/>
	<outline>
		<contour>
			<point x="106" y="0" type="line"/>
			<point x="161" y="0" type="line"/>
			<point x="161" y="287" type="line"/>
			<point x="336" y="466" type="line"/>
			<point x="340" y="466" type="line"/>
			<point x="637" y="0" type="line"/>
			<point x="703" y="0" type="line"/>
			<point x="381" y="501" type="line"/>
			<point x="673" y="800" type="line"/>
			<point x="596" y="800" type="line"/>
			<point x="176" y="370" type="line"/>
			<point x="159" y="341" type="line"/>
			<point x="155" y="341" type="line"/>
			<point x="161" y="376" type="line"/>
			<point x="161" y="800" type="line"/>
			<point x="106" y="800" type="line"/>
		</contour>
	</outline>
</glyph>
<glyph name="L" format="2">
	<advance width="709"/>
	<unicode hex="004C"/>
	<anchor x="161" y="400" name="center"/>
	<anchor x="161" y="800" name="top"/>
	<anchor x="211" y="800" name="topright"/>
	<anchor x="381" y="0" name="bottom"/>
	<outline>
		<contour>
			<point x="661" y="0" type="line"/>
			<point x="661" y="50" type="line"/>
			<point x="161" y="50" type="line"/>
			<point x="161" y="800" type="line"/>
			<point x="106" y="800" type="line"/>
			<point x="106" y="0" type="line"/>
		</contour>
	</outline>
</glyph>
<glyph name="M" format="2">
	<advance width="981"/>
	<unicode hex="004D"/>
	<guideline x="212" y="670" angle="0"/>
	<outline>
		<contour>
			<point x="875" y="0" type="line"/>
			<point x="875" y="800" type="line"/>
			<point x="797" y="800" type="line"/>
			<point x="503" y="111" type="line"/>
			<point x="493" y="65" type="line"/>
			<point x="489" y="65" type="line"/>
			<point x="479" y="111" type="line"/>
			<point x="183" y="800" type="line"/>
			<point x="106" y="800" type="line"/>
			<point x="106" y="0" type="line"/>
			<point x="158" y="0" type="line"/>
			<point x="158" y="670" type="line"/>
			<point x="152" y="750" type="line"/>
			<point x="156" y="750" type="line"/>
			<point x="180" y="670" type="line"/>
			<point x="468" y="0" type="line"/>
			<point x="510" y="0" type="line"/>
			<point x="798" y="670" type="line"/>
			<point x="823" y="750" type="line"/>
			<point x="827" y="750" type="line"/>
			<point x="820" y="670" type="line"/>
			<point x="820" y="0" type="line"/>
		</contour>
	</outline>
</glyph>
<glyph name="N" format="2">
	<advance width="787"/>
	<unicode hex="004E"/>
	<anchor x="400" y="800" name="top"/>
	<anchor x="400" y="0" name="bottom"/>
	<outline>
		<contour>
			<point x="106" y="800" type="line"/>
			<point x="106" y="0" type="line"/>
			<point x="158" y="0" type="line"/>
			<point x="158" y="675" type="line"/>
			<point x="152" y="750" type="line"/>
			<point x="156" y="750" type="line"/>
			<point x="196" y="675" type="line"/>
			<point x="610" y="0" type="line"/>
			<point x="681" y="0" type="line"/>
			<point x="681" y="800" type="line"/>
			<point x="629" y="800" type="line"/>
			<point x="629" y="125" type="line"/>
			<point x="635" y="50" type="line"/>
			<point x="631" y="50" type="line"/>
			<point x="592" y="125" type="line"/>
			<point x="178" y="800" type="line"/>
		</contour>
	</outline>
</glyph>
<glyph name="O" format="2">
	<advance width="822"/>
	<unicode hex="004F"/>
	<anchor x="411" y="400" name="center"/>
	<anchor x="522" y="10" name="ogonek"/>
	<anchor x="411" y="800" name="top"/>
	<anchor x="819" y="800" name="topright"/>
	<anchor x="3" y="800" name="topleft"/>
	<anchor x="411" y="0" name="bottom"/>
	<outline>
		<contour>
			<point x="66" y="394" type="line" smooth="yes"/>
			<point x="66" y="140"/>
			<point x="197" y="-16"/>
			<point x="412" y="-16" type="curve" smooth="yes"/>
			<point x="625" y="-16"/>
			<point x="756" y="139"/>
			<point x="756" y="392" type="curve" smooth="yes"/>
			<point x="756" y="407" type="line" smooth="yes"/>
			<point x="756" y="661"/>
			<point x="625" y="816"/>
			<point x="410" y="816" type="curve" smooth="yes"/>
			<point x="197" y="816"/>
			<point x="66" y="661"/>
			<point x="66" y="409" type="curve" smooth="yes"/>
		</contour>
		<contour>
			<point x="123" y="386" type="curve" smooth="yes"/>
			<point x="123" y="409" type="line" smooth="yes"/>
			<point x="123" y="629"/>
			<point x="232" y="764"/>
			<point x="409" y="764" type="curve" smooth="yes"/>
			<point x="589" y="764"/>
			<point x="699" y="631"/>
			<point x="699" y="415" type="curve" smooth="yes"/>
			<point x="699" y="392" type="line" smooth="yes"/>
			<point x="699" y="171"/>
			<point x="590" y="36"/>
			<point x="413" y="36" type="curve" smooth="yes"/>
			<point x="233" y="36"/>
			<point x="123" y="169"/>
		</contour>
	</outline>
</glyph>
<glyph name="P" format="2">
	<advance width="739"/>
	<unicode hex="0050"/>
	<outline>
		<contour>
			<point x="106" y="0" type="line"/>
			<point x="161" y="0" type="line"/>
			<point x="161" y="370" type="line"/>
			<point x="437" y="370" type="line" smooth="yes"/>
			<point x="587" y="370"/>
			<point x="675" y="448"/>
			<point x="675" y="579" type="curve" smooth="yes"/>
			<point x="675" y="589" type="line" smooth="yes"/>
			<point x="675" y="722"/>
			<point x="587" y="800"/>
			<point x="437" y="800" type="curve" smooth="yes"/>
			<point x="106" y="800" type="line"/>
		</contour>
		<contour>
			<point x="161" y="420" type="line"/>
			<point x="161" y="750" type="line"/>
			<point x="437" y="750" type="line" smooth="yes"/>
			<point x="552" y="750"/>
			<point x="620" y="690"/>
			<point x="620" y="588" type="curve" smooth="yes"/>
			<point x="620" y="579" type="line" smooth="yes"/>
			<point x="620" y="479"/>
			<point x="552" y="420"/>
			<point x="437" y="420" type="curve" smooth="yes"/>
		</contour>
	</outline>
</glyph>
<glyph name="R" format="2">
	<advance width="769"/>
	<unicode hex="0052"/>
	<anchor x="384" y="800" name="top"/>
	<anchor x="384" y="0" name="bottom"/>
	<outline>
		<contour>
			<point x="106" y="0" type="line"/>
			<point x="161" y="0" type="line"/>
			<point x="161" y="390" type="line"/>
			<point x="443" y="390" type="line"/>
			<point x="659" y="0" type="line"/>
			<point x="721" y="0" type="line"/>
			<point x="516" y="373" type="line" smooth="yes"/>
			<point x="509" y="386"/>
			<point x="497" y="396"/>
			<point x="487" y="399" type="curve"/>
			<point x="487" y="403" type="line"/>
			<point x="605" y="410"/>
			<point x="675" y="480"/>
			<point x="675" y="590" type="curve" smooth="yes"/>
			<point x="675" y="599" type="line" smooth="yes"/>
			<point x="675" y="725"/>
			<point x="592" y="800"/>
			<point x="451" y="800" type="curve" smooth="yes"/>
			<point x="106" y="800" type="line"/>
		</contour>
		<contour>
			<point x="161" y="440" type="line"/>
			<point x="161" y="750" type="line"/>
			<point x="450" y="750" type="line" smooth="yes"/>
			<point x="557" y="750"/>
			<point x="620" y="694"/>
			<point x="620" y="599" type="curve" smooth="yes"/>
			<point x="620" y="590" type="line" smooth="yes"/>
			<point x="620" y="496"/>
			<point x="558" y="440"/>
			<point x="454" y="440" type="curve" smooth="yes"/>
		</contour>
	</outline>
</glyph>
<glyph name="S" format="2">
	<advance width="700"/>
	<unicode hex="0053"/>
	<anchor x="353" y="800" name="top"/>
	<anchor x="353" y="0" name="bottom"/>
	<outline>
		<contour>
			<point x="57" y="244" type="line"/>
			<point x="59" y="230" type="line" smooth="yes"/>
			<point x="81" y="75"/>
			<point x="194" y="-16"/>
			<point x="363" y="-16" type="curve" smooth="yes"/>
			<point x="545" y="-16"/>
			<point x="652" y="68"/>
			<point x="652" y="211" type="curve" smooth="yes"/>
			<point x="652" y="262"/>
			<point x="631" y="315"/>
			<point x="596" y="353" type="curve" smooth="yes"/>
			<point x="560" y="393"/>
			<point x="498" y="425"/>
			<point x="432" y="440" type="curve" smooth="yes"/>
			<point x="304" y="470" type="line" smooth="yes"/>
			<point x="260" y="480"/>
			<point x="220" y="500"/>
			<point x="195" y="523" type="curve" smooth="yes"/>
			<point x="168" y="548"/>
			<point x="152" y="583"/>
			<point x="152" y="618" type="curve" smooth="yes"/>
			<point x="152" y="622" type="line" smooth="yes"/>
			<point x="152" y="711"/>
			<point x="227" y="764"/>
			<point x="354" y="764" type="curve" smooth="yes"/>
			<point x="470" y="764"/>
			<point x="548" y="714"/>
			<point x="565" y="629" type="curve" smooth="yes"/>
			<point x="568" y="614" type="line"/>
			<point x="621" y="628" type="line"/>
			<point x="618" y="643" type="line" smooth="yes"/>
			<point x="596" y="752"/>
			<point x="498" y="816"/>
			<point x="354" y="816" type="curve" smooth="yes"/>
			<point x="191" y="816"/>
			<point x="95" y="741"/>
			<point x="95" y="615" type="curve" smooth="yes"/>
			<point x="95" y="568"/>
			<point x="113" y="521"/>
			<point x="146" y="488" type="curve" smooth="yes"/>
			<point x="176" y="458"/>
			<point x="226" y="432"/>
			<point x="280" y="420" type="curve" smooth="yes"/>
			<point x="408" y="391" type="line" smooth="yes"/>
			<point x="467" y="378"/>
			<point x="520" y="351"/>
			<point x="552" y="318" type="curve" smooth="yes"/>
			<point x="579" y="290"/>
			<point x="595" y="251"/>
			<point x="595" y="214" type="curve" smooth="yes"/>
			<point x="595" y="207" type="line" smooth="yes"/>
			<point x="595" y="100"/>
			<point x="509" y="36"/>
			<point x="364" y="36" type="curve" smooth="yes"/>
			<point x="225" y="36"/>
			<point x="131" y="113"/>
			<point x="112" y="243" type="curve" smooth="yes"/>
			<point x="110" y="257" type="line"/>
		</contour>
	</outline>
</glyph>
<glyph name="T" format="2">
	<advance width="697"/>
	<unicode hex="0054"/>
	<anchor x="349" y="400" name="center"/>
	<anchor x="351" y="0" name="bottom"/>
	<anchor x="349" y="800" name="top"/>
	<outline>
		<contour>
			<point x="54" y="800" type="line"/>
			<point x="54" y="750" type="line"/>
			<point x="324" y="750" type="line"/>
			<point x="324" y="0" type="line"/>
			<point x="379" y="0" type="line"/>
			<point x="379" y="750" type="line"/>
			<point x="649" y="750" type="line"/>
			<point x="649" y="800" type="line"/>
		</contour>
	</outline>
</glyph>
<glyph name="U" format="2">
	<advance width="822"/>
	<unicode hex="0055"/>
	<anchor x="516" y="10" name="ogonek"/>
	<anchor x="411" y="800" name="top"/>
	<anchor x="802" y="800" name="topright"/>
	<anchor x="411" y="0" name="bottom"/>
	<outline>
		<contour>
			<point x="716" y="800" type="line"/>
			<point x="661" y="800" type="line"/>
			<point x="661" y="332" type="line" smooth="yes"/>
			<point x="661" y="146"/>
			<point x="568" y="36"/>
			<point x="411" y="36" type="curve" smooth="yes"/>
			<point x="254" y="36"/>
			<point x="161" y="144"/>
			<point x="161" y="326" type="curve" smooth="yes"/>
			<point x="161" y="800" type="line"/>
			<point x="106" y="800" type="line"/>
			<point x="106" y="334" type="line" smooth="yes"/>
			<point x="106" y="114"/>
			<point x="219" y="-16"/>
			<point x="411" y="-16" type="curve" smooth="yes"/>
			<point x="603" y="-16"/>
			<point x="716" y="113"/>
			<point x="716" y="332" type="curve" smooth="yes"/>
		</contour>
	</outline>
</glyph>
<glyph name="V" format="2">
	<advance width="797"/>
	<unicode hex="0056"/>
	<outline>
		<contour>
			<point x="54" y="800" type="line"/>
			<point x="389" y="0" type="line"/>
			<point x="439" y="0" type="line"/>
			<point x="749" y="800" type="line"/>
			<point x="692" y="800" type="line"/>
			<point x="438" y="133" type="line"/>
			<point x="417" y="50" type="line"/>
			<point x="413" y="50" type="line"/>
			<point x="389" y="133" type="line"/>
			<point x="114" y="800" type="line"/>
		</contour>
	</outline>
</glyph>
<glyph name="W" format="2">
	<advance width="1162"/>
	<unicode hex="0057"/>
	<anchor x="582" y="800" name="top"/>
	<anchor x="582" y="0" name="bottom"/>
	<outline>
		<contour>
			<point x="54" y="800" type="line"/>
			<point x="302" y="0" type="line"/>
			<point x="362" y="0" type="line"/>
			<point x="573" y="685" type="line"/>
			<point x="582" y="750" type="line"/>
			<point x="586" y="750" type="line"/>
			<point x="595" y="685" type="line"/>
			<point x="807" y="0" type="line"/>
			<point x="867" y="0" type="line"/>
			<point x="1114" y="800" type="line"/>
			<point x="1059" y="800" type="line"/>
			<point x="849" y="115" type="line"/>
			<point x="840" y="50" type="line"/>
			<point x="836" y="50" type="line"/>
			<point x="827" y="115" type="line"/>
			<point x="616" y="800" type="line"/>
			<point x="554" y="800" type="line"/>
			<point x="344" y="115" type="line"/>
			<point x="335" y="50" type="line"/>
			<point x="331" y="50" type="line"/>
			<point x="322" y="115" type="line"/>
			<point x="111" y="800" type="line"/>
		</contour>
	</outline>
</glyph>
<glyph name="X" format="2">
	<advance width="720"/>
	<unicode hex="0058"/>
	<outline>
		<contour>
			<point x="54" y="0" type="line"/>
			<point x="115" y="0" type="line"/>
			<point x="342" y="348" type="line"/>
			<point x="358" y="387" type="line"/>
			<point x="362" y="387" type="line"/>
			<point x="378" y="348" type="line"/>
			<point x="606" y="0" type="line"/>
			<point x="672" y="0" type="line"/>
			<point x="391" y="422" type="line"/>
			<point x="644" y="800" type="line"/>
			<point x="582" y="800" type="line"/>
			<point x="379" y="490" type="line"/>
			<point x="363" y="451" type="line"/>
			<point x="359" y="451" type="line"/>
			<point x="343" y="490" type="line"/>
			<point x="141" y="800" type="line"/>
			<point x="76" y="800" type="line"/>
			<point x="331" y="420" type="line"/>
		</contour>
	</outline>
</glyph>
<glyph name="Y" format="2">
	<advance width="721"/>
	<unicode hex="0059"/>
	<anchor x="367" y="800" name="top"/>
	<anchor x="367" y="0" name="bottom"/>
	<anchor x="20" y="800" name="topleft"/>
	<outline>
		<contour>
			<point x="54" y="800" type="line"/>
			<point x="337" y="343" type="line"/>
			<point x="337" y="0" type="line"/>
			<point x="392" y="0" type="line"/>
			<point x="392" y="343" type="line"/>
			<point x="673" y="800" type="line"/>
			<point x="611" y="800" type="line"/>
			<point x="396" y="446" type="line"/>
			<point x="368" y="384" type="line"/>
			<point x="364" y="384" type="line"/>
			<point x="336" y="446" type="line"/>
			<point x="119" y="800" type="line"/>
		</contour>
	</outline>
</glyph>
<glyph name="Z" format="2">
	<advance width="694"/>
	<unicode hex="005A"/>
	<anchor x="347" y="800" name="top"/>
	<anchor x="347" y="0" name="bottom"/>
	<outline>
		<contour>
			<point x="52" y="0" type="line"/>
			<point x="642" y="0" type="line"/>
			<point x="642" y="50" type="line"/>
			<point x="107" y="50" type="line"/>
			<point x="107" y="54" type="line"/>
			<point x="132" y="74" type="line"/>
			<point x="632" y="744" type="line"/>
			<point x="632" y="800" type="line"/>
			<point x="72" y="800" type="line"/>
			<point x="72" y="750" type="line"/>
			<point x="577" y="750" type="line"/>
			<point x="577" y="746" type="line"/>
			<point x="552" y="726" type="line"/>
			<point x="52" y="56" type="line"/>
		</contour>
	</outline>
</glyph>
<glyph name="bracketleft" format="2">
	<advance width="261"/>
	<unicode hex="005B"/>
	<outline>
		<contour>
			<point x="48" y="-180" type="line"/>
			<point x="213" y="-180" type="line"/>
			<point x="213" y="-130" type="line"/>
			<point x="103" y="-130" type="line"/>
			<point x="103" y="770" type="line"/>
			<point x="213" y="770" type="line"/>
			<point x="213" y="820" type="line"/>
			<point x="48" y="820" type="line"/>
		</contour>
	</outline>
</glyph>
<glyph name="a" format="2">
	<advance width="589"/>
	<unicode hex="0061"/>
	<anchor x="527" y="10" name="ogonek"/>
	<anchor x="295" y="0" name="bottom"/>
	<anchor x="299" y="590" name="top"/>
	<outline>
		<contour>
			<point x="83" y="442" type="line"/>
			<point x="133" y="438" type="line"/>
			<point x="135" y="450" type="line" smooth="yes"/>
			<point x="146" y="515"/>
			<point x="212" y="561"/>
			<point x="294" y="561" type="curve" smooth="yes"/>
			<point x="392" y="561"/>
			<point x="461" y="491"/>
			<point x="461" y="393" type="curve" smooth="yes"/>
			<point x="461" y="110" type="line" smooth="yes"/>
			<point x="461" y="68"/>
			<point x="467" y="27"/>
			<point x="478" y="0" type="curve"/>
			<point x="527" y="0" type="line"/>
			<point x="529" y="4" type="line"/>
			<point x="518" y="35"/>
			<point x="511" y="77"/>
			<point x="511" y="119" type="curve" smooth="yes"/>
			<point x="511" y="398" type="line" smooth="yes"/>
			<point x="511" y="520"/>
			<point x="422" y="606"/>
			<point x="295" y="606" type="curve" smooth="yes"/>
			<point x="187" y="606"/>
			<point x="100" y="543"/>
			<point x="85" y="454" type="curve" smooth="yes"/>
		</contour>
		<contour>
			<point x="486" y="245" type="line"/>
			<point x="461" y="245" type="line"/>
			<point x="461" y="118"/>
			<point x="371" y="29"/>
			<point x="243" y="29" type="curve" smooth="yes"/>
			<point x="160" y="29"/>
			<point x="102" y="83"/>
			<point x="102" y="160" type="curve" smooth="yes"/>
			<point x="102" y="165" type="line" smooth="yes"/>
			<point x="102" y="233"/>
			<point x="155" y="282"/>
			<point x="246" y="297" type="curve" smooth="yes"/>
			<point x="491" y="337" type="line"/>
			<point x="491" y="383" type="line"/>
			<point x="237" y="341" type="line" smooth="yes"/>
			<point x="119" y="322"/>
			<point x="50" y="255"/>
			<point x="50" y="160" type="curve" smooth="yes"/>
			<point x="50" y="155" type="line" smooth="yes"/>
			<point x="50" y="55"/>
			<point x="131" y="-16"/>
			<point x="246" y="-16" type="curve" smooth="yes"/>
			<point x="370" y="-16"/>
			<point x="459" y="53"/>
			<point x="486" y="171" type="curve"/>
		</contour>
	</outline>
</glyph>
<glyph name="b" format="2">
	<advance width="619"/>
	<unicode hex="0062"/>
	<outline>
		<contour>
			<point x="70" y="820" type="line"/>
			<point x="70" y="0" type="line"/>
			<point x="115" y="0" type="line"/>
			<point x="120" y="110" type="line"/>
			<point x="120" y="820" type="line"/>
		</contour>
		<contour>
			<point x="105" y="136" type="line"/>
			<point x="125" y="42"/>
			<point x="205" y="-16"/>
			<point x="315" y="-16" type="curve" smooth="yes"/>
			<point x="463" y="-16"/>
			<point x="554" y="100"/>
			<point x="554" y="289" type="curve" smooth="yes"/>
			<point x="554" y="300" type="line" smooth="yes"/>
			<point x="554" y="490"/>
			<point x="464" y="606"/>
			<point x="317" y="606" type="curve" smooth="yes"/>
			<point x="206" y="606"/>
			<point x="125" y="548"/>
			<point x="105" y="454" type="curve"/>
			<point x="105" y="335" type="line"/>
			<point x="120" y="335" type="line"/>
			<point x="120" y="475"/>
			<point x="196" y="561"/>
			<point x="320" y="561" type="curve" smooth="yes"/>
			<point x="433" y="561"/>
			<point x="502" y="464"/>
			<point x="502" y="306" type="curve" smooth="yes"/>
			<point x="502" y="289" type="line" smooth="yes"/>
			<point x="502" y="128"/>
			<point x="430" y="29"/>
			<point x="312" y="29" type="curve" smooth="yes"/>
			<point x="193" y="29"/>
			<point x="120" y="115"/>
			<point x="120" y="255" type="curve"/>
			<point x="105" y="255" type="line"/>
		</contour>
	</outline>
</glyph>
<glyph name="c" format="2">
	<advance width="620"/>
	<unicode hex="0063"/>
	<anchor x="309" y="590" name="top"/>
	<anchor x="289" y="0" name="bottom"/>
	<outline>
		<contour>
			<point x="495" y="418" type="line"/>
			<point x="545" y="425" type="line"/>
			<point x="543" y="437" type="line" smooth="yes"/>
			<point x="525" y="543"/>
			<point x="439" y="606"/>
			<point x="312" y="606" type="curve" smooth="yes"/>
			<point x="147" y="606"/>
			<point x="50" y="493"/>
			<point x="50" y="301" type="curve" smooth="yes"/>
			<point x="50" y="290" type="line" smooth="yes"/>
			<point x="50" y="98"/>
			<point x="149" y="-16"/>
			<point x="317" y="-16" type="curve" smooth="yes"/>
			<point x="447" y="-16"/>
			<point x="535" y="48"/>
			<point x="553" y="156" type="curve" smooth="yes"/>
			<point x="555" y="168" type="line"/>
			<point x="505" y="172" type="line"/>
			<point x="503" y="160" type="line" smooth="yes"/>
			<point x="489" y="78"/>
			<point x="420" y="29"/>
			<point x="318" y="29" type="curve" smooth="yes"/>
			<point x="182" y="29"/>
			<point x="102" y="124"/>
			<point x="102" y="284" type="curve" smooth="yes"/>
			<point x="102" y="301" type="line" smooth="yes"/>
			<point x="102" y="464"/>
			<point x="180" y="561"/>
			<point x="311" y="561" type="curve" smooth="yes"/>
			<point x="411" y="561"/>
			<point x="479" y="512"/>
			<point x="493" y="430" type="curve" smooth="yes"/>
		</contour>
	</outline>
</glyph>
<glyph name="e" format="2">
	<advance width="611"/>
	<unicode hex="0065"/>
	<anchor x="389" y="10" name="ogonek"/>
	<anchor x="306" y="0" name="bottom"/>
	<anchor x="306" y="590" name="top"/>
	<outline>
		<contour>
			<point x="537" y="178" type="line"/>
			<point x="487" y="182" type="line"/>
			<point x="485" y="170" type="line" smooth="yes"/>
			<point x="471" y="87"/>
			<point x="399" y="29"/>
			<point x="310" y="29" type="curve" smooth="yes"/>
			<point x="179" y="29"/>
			<point x="102" y="124"/>
			<point x="102" y="284" type="curve" smooth="yes"/>
			<point x="102" y="301" type="line" smooth="yes"/>
			<point x="102" y="462"/>
			<point x="180" y="561"/>
			<point x="308" y="561" type="curve" smooth="yes"/>
			<point x="423" y="561"/>
			<point x="494" y="471"/>
			<point x="494" y="324" type="curve" smooth="yes"/>
			<point x="494" y="319" type="line"/>
			<point x="529" y="354" type="line"/>
			<point x="82" y="354" type="line"/>
			<point x="82" y="309" type="line"/>
			<point x="546" y="309" type="line"/>
			<point x="546" y="318" type="line" smooth="yes"/>
			<point x="546" y="497"/>
			<point x="456" y="606"/>
			<point x="309" y="606" type="curve" smooth="yes"/>
			<point x="148" y="606"/>
			<point x="50" y="490"/>
			<point x="50" y="301" type="curve" smooth="yes"/>
			<point x="50" y="290" type="line" smooth="yes"/>
			<point x="50" y="98"/>
			<point x="146" y="-16"/>
			<point x="309" y="-16" type="curve" smooth="yes"/>
			<point x="423" y="-16"/>
			<point x="516" y="59"/>
			<point x="535" y="166" type="curve" smooth="yes"/>
		</contour>
	</outline>
</glyph>
<glyph name="f" format="2">
	<advance width="385"/>
	<unicode hex="0066"/>
	<outline>
		<contour>
			<point x="145" y="0" type="line"/>
			<point x="195" y="0" type="line"/>
			<point x="195" y="722" type="line" smooth="yes"/>
			<point x="195" y="758"/>
			<point x="217" y="780"/>
			<point x="253" y="780" type="curve" smooth="yes"/>
			<point x="274" y="780"/>
			<point x="297" y="779"/>
			<point x="315" y="777" type="curve"/>
			<point x="315" y="820" type="line"/>
			<point x="297" y="823"/>
			<point x="275" y="825"/>
			<point x="257" y="825" type="curve" smooth="yes"/>
			<point x="187" y="825"/>
			<point x="145" y="789"/>
			<point x="145" y="727" type="curve" smooth="yes"/>
		</contour>
		<contour>
			<point x="25" y="590" type="line"/>
			<point x="25" y="545" type="line"/>
			<point x="315" y="545" type="line"/>
			<point x="315" y="590" type="line"/>
		</contour>
	</outline>
</glyph>
<glyph name="g" format="2">
	<advance width="619"/>
	<unicode hex="0067"/>
	<anchor x="288" y="590" name="top"/>
	<anchor x="300" y="-180" name="bottom"/>
	<outline>
		<contour>
			<point x="69" y="-27" type="line" smooth="yes"/>
			<point x="86" y="-126"/>
			<point x="178" y="-196"/>
			<point x="292" y="-196" type="curve" smooth="yes"/>
			<point x="442" y="-196"/>
			<point x="534" y="-108"/>
			<point x="534" y="36" type="curve" smooth="yes"/>
			<point x="534" y="590" type="line"/>
			<point x="489" y="590" type="line"/>
			<point x="484" y="480" type="line"/>
			<point x="484" y="36" type="line" smooth="yes"/>
			<point x="484" y="-80"/>
			<point x="411" y="-151"/>
			<point x="291" y="-151" type="curve" smooth="yes"/>
			<point x="203" y="-151"/>
			<point x="132" y="-97"/>
			<point x="119" y="-20" type="curve" smooth="yes"/>
			<point x="117" y="-8" type="line"/>
			<point x="67" y="-15" type="line"/>
		</contour>
		<contour>
			<point x="499" y="454" type="line"/>
			<point x="479" y="548"/>
			<point x="399" y="606"/>
			<point x="289" y="606" type="curve" smooth="yes"/>
			<point x="141" y="606"/>
			<point x="50" y="499"/>
			<point x="50" y="324" type="curve" smooth="yes"/>
			<point x="50" y="313" type="line" smooth="yes"/>
			<point x="50" y="138"/>
			<point x="140" y="30"/>
			<point x="287" y="30" type="curve" smooth="yes"/>
			<point x="399" y="30"/>
			<point x="479" y="88"/>
			<point x="499" y="182" type="curve"/>
			<point x="499" y="301" type="line"/>
			<point x="484" y="301" type="line"/>
			<point x="484" y="161"/>
			<point x="408" y="75"/>
			<point x="284" y="75" type="curve" smooth="yes"/>
			<point x="171" y="75"/>
			<point x="102" y="163"/>
			<point x="102" y="307" type="curve" smooth="yes"/>
			<point x="102" y="324" type="line" smooth="yes"/>
			<point x="102" y="471"/>
			<point x="174" y="561"/>
			<point x="292" y="561" type="curve" smooth="yes"/>
			<point x="411" y="561"/>
			<point x="484" y="475"/>
			<point x="484" y="335" type="curve"/>
			<point x="499" y="335" type="line"/>
		</contour>
	</outline>
</glyph>
<glyph name="h" format="2">
	<advance width="575"/>
	<unicode hex="0068"/>
	<outline>
		<contour>
			<point x="70" y="820" type="line"/>
			<point x="70" y="0" type="line"/>
			<point x="120" y="0" type="line"/>
			<point x="120" y="820" type="line"/>
		</contour>
		<contour>
			<point x="105" y="315" type="line"/>
			<point x="120" y="315" type="line"/>
			<point x="120" y="468"/>
			<point x="192" y="561"/>
			<point x="310" y="561" type="curve" smooth="yes"/>
			<point x="391" y="561"/>
			<point x="440" y="502"/>
			<point x="440" y="405" type="curve" smooth="yes"/>
			<point x="440" y="0" type="line"/>
			<point x="490" y="0" type="line"/>
			<point x="490" y="410" type="line" smooth="yes"/>
			<point x="490" y="532"/>
			<point x="424" y="606"/>
			<point x="315" y="606" type="curve" smooth="yes"/>
			<point x="207" y="606"/>
			<point x="128" y="541"/>
			<point x="105" y="434" type="curve"/>
		</contour>
	</outline>
</glyph>
<glyph name="k" format="2">
	<advance width="559"/>
	<unicode hex="006B"/>
	<anchor x="298" y="820" name="top"/>
	<anchor x="298" y="0" name="bottom"/>
	<outline>
		<contour>
			<point x="70" y="0" type="line"/>
			<point x="120" y="0" type="line"/>
			<point x="120" y="251" type="line"/>
			<point x="220" y="350" type="line"/>
			<point x="224" y="350" type="line"/>
			<point x="440" y="0" type="line"/>
			<point x="499" y="0" type="line"/>
			<point x="263" y="381" type="line"/>
			<point x="468" y="590" type="line"/>
			<point x="395" y="590" type="line"/>
			<point x="138" y="324" type="line"/>
			<point x="119" y="294" type="line"/>
			<point x="115" y="294" type="line"/>
			<point x="120" y="329" type="line"/>
			<point x="120" y="820" type="line"/>
			<point x="70" y="820" type="line"/>
		</contour>
	</outline>
</glyph>
<glyph name="l" format="2">
	<advance width="205"/>
	<unicode hex="006C"/>
	<anchor x="95" y="410" name="center"/>
	<anchor x="95" y="820" name="top"/>
	<anchor x="185" y="820" name="topright"/>
	<anchor x="95" y="0" name="bottom"/>
	<outline>
		<contour>
			<point x="70" y="820" type="line"/>
			<point x="70" y="0" type="line"/>
			<point x="120" y="0" type="line"/>
			<point x="120" y="820" type="line"/>
		</contour>
	</outline>
</glyph>
<glyph name="m" format="2">
	<advance width="945"/>
	<unicode hex="006D"/>
	<anchor x="453" y="590" name="top"/>
	<anchor x="453" y="0" name="bottom"/>
	<outline>
		<contour>
			<point x="70" y="590" type="line"/>
			<point x="70" y="0" type="line"/>
			<point x="120" y="0" type="line"/>
			<point x="120" y="480" type="line"/>
			<point x="115" y="590" type="line"/>
		</contour>
		<contour>
			<point x="440" y="405" type="curve" smooth="yes"/>
			<point x="440" y="0" type="line"/>
			<point x="490" y="0" type="line"/>
			<point x="490" y="410" type="line" smooth="yes"/>
			<point x="490" y="533"/>
			<point x="421" y="606"/>
			<point x="305" y="606" type="curve" smooth="yes"/>
			<point x="202" y="606"/>
			<point x="128" y="542"/>
			<point x="105" y="434" type="curve"/>
			<point x="105" y="315" type="line"/>
			<point x="120" y="315" type="line"/>
			<point x="120" y="470"/>
			<point x="187" y="561"/>
			<point x="300" y="561" type="curve" smooth="yes"/>
			<point x="388" y="561"/>
			<point x="440" y="503"/>
		</contour>
		<contour>
			<point x="810" y="405" type="curve" smooth="yes"/>
			<point x="810" y="0" type="line"/>
			<point x="860" y="0" type="line"/>
			<point x="860" y="410" type="line" smooth="yes"/>
			<point x="860" y="533"/>
			<point x="791" y="606"/>
			<point x="675" y="606" type="curve" smooth="yes"/>
			<point x="574" y="606"/>
			<point x="500" y="550"/>
			<point x="475" y="454" type="curve"/>
			<point x="475" y="315" type="line"/>
			<point x="490" y="315" type="line"/>
			<point x="490" y="470"/>
			<point x="557" y="561"/>
			<point x="670" y="561" type="curve" smooth="yes"/>
			<point x="758" y="561"/>
			<point x="810" y="503"/>
		</contour>
	</outline>
</glyph>
<glyph name="n" format="2">
	<advance width="595"/>
	<unicode hex="006E"/>
	<anchor x="288" y="590" name="top"/>
	<anchor x="288" y="0" name="bottom"/>
	<outline>
		<contour>
			<point x="70" y="590" type="line"/>
			<point x="70" y="0" type="line"/>
			<point x="120" y="0" type="line"/>
			<point x="120" y="480" type="line"/>
			<point x="115" y="590" type="line"/>
		</contour>
		<contour>
			<point x="460" y="405" type="curve" smooth="yes"/>
			<point x="460" y="0" type="line"/>
			<point x="510" y="0" type="line"/>
			<point x="510" y="410" type="line" smooth="yes"/>
			<point x="510" y="533"/>
			<point x="438" y="606"/>
			<point x="315" y="606" type="curve" smooth="yes"/>
			<point x="206" y="606"/>
			<point x="128" y="542"/>
			<point x="105" y="434" type="curve"/>
			<point x="105" y="315" type="line"/>
			<point x="120" y="315" type="line"/>
			<point x="120" y="470"/>
			<point x="191" y="561"/>
			<point x="310" y="561" type="curve" smooth="yes"/>
			<point x="404" y="561"/>
			<point x="460" y="503"/>
		</contour>
	</outline>
</glyph>
<glyph name="o" format="2">
	<advance width="631"/>
	<unicode hex="006F"/>
	<anchor x="316" y="295" name="center"/>
	<anchor x="568" y="10" name="ogonek"/>
	<anchor x="316" y="590" name="top"/>
	<anchor x="611" y="590" name="topright"/>
	<anchor x="316" y="0" name="bottom"/>
	<outline>
		<contour>
			<point x="50" y="290" type="line" smooth="yes"/>
			<point x="50" y="100"/>
			<point x="148" y="-16"/>
			<point x="309" y="-16" type="curve" smooth="yes"/>
			<point x="468" y="-16"/>
			<point x="566" y="100"/>
			<point x="566" y="289" type="curve" smooth="yes"/>
			<point x="566" y="300" type="line" smooth="yes"/>
			<point x="566" y="490"/>
			<point x="468" y="606"/>
			<point x="307" y="606" type="curve" smooth="yes"/>
			<point x="148" y="606"/>
			<point x="50" y="490"/>
			<point x="50" y="301" type="curve" smooth="yes"/>
		</contour>
		<contour>
			<point x="102" y="284" type="curve" smooth="yes"/>
			<point x="102" y="301" type="line" smooth="yes"/>
			<point x="102" y="462"/>
			<point x="180" y="561"/>
			<point x="306" y="561" type="curve" smooth="yes"/>
			<point x="435" y="561"/>
			<point x="514" y="464"/>
			<point x="514" y="306" type="curve" smooth="yes"/>
			<point x="514" y="289" type="line" smooth="yes"/>
			<point x="514" y="128"/>
			<point x="436" y="29"/>
			<point x="310" y="29" type="curve" smooth="yes"/>
			<point x="181" y="29"/>
			<point x="102" y="126"/>
		</contour>
	</outline>
</glyph>
<glyph name="q" format="2">
	<advance width="619"/>
	<unicode hex="0071"/>
	<outline>
		<contour>
			<point x="534" y="-180" type="line"/>
			<point x="534" y="590" type="line"/>
			<point x="489" y="590" type="line"/>
			<point x="484" y="480" type="line"/>
			<point x="484" y="-180" type="line"/>
		</contour>
		<contour>
			<point x="499" y="454" type="line"/>
			<point x="479" y="548"/>
			<point x="399" y="606"/>
			<point x="289" y="606" type="curve" smooth="yes"/>
			<point x="141" y="606"/>
			<point x="50" y="490"/>
			<point x="50" y="301" type="curve" smooth="yes"/>
			<point x="50" y="290" type="line" smooth="yes"/>
			<point x="50" y="100"/>
			<point x="140" y="-16"/>
			<point x="287" y="-16" type="curve" smooth="yes"/>
			<point x="398" y="-16"/>
			<point x="479" y="42"/>
			<point x="499" y="136" type="curve"/>
			<point x="499" y="255" type="line"/>
			<point x="484" y="255" type="line"/>
			<point x="484" y="115"/>
			<point x="408" y="29"/>
			<point x="284" y="29" type="curve" smooth="yes"/>
			<point x="171" y="29"/>
			<point x="102" y="126"/>
			<point x="102" y="284" type="curve" smooth="yes"/>
			<point x="102" y="301" type="line" smooth="yes"/>
			<point x="102" y="462"/>
			<point x="174" y="561"/>
			<point x="292" y="561" type="curve" smooth="yes"/>
			<point x="411" y="561"/>
			<point x="484" y="475"/>
			<point x="484" y="335" type="curve"/>
			<point x="499" y="335" type="line"/>
		</contour>
	</outline>
</glyph>
<glyph name="r" format="2">
	<advance width="389"/>
	<unicode hex="0072"/>
	<anchor x="195" y="590" name="top"/>
	<anchor x="95" y="0" name="bottom"/>
	<outline>
		<contour>
			<point x="70" y="590" type="line"/>
			<point x="70" y="0" type="line"/>
			<point x="120" y="0" type="line"/>
			<point x="120" y="400" type="line"/>
			<point x="115" y="590" type="line"/>
		</contour>
		<contour>
			<point x="339" y="555" type="line"/>
			<point x="349" y="597" type="line"/>
			<point x="342" y="599"/>
			<point x="332" y="600"/>
			<point x="321" y="600" type="curve" smooth="yes"/>
			<point x="205" y="600"/>
			<point x="123" y="507"/>
			<point x="105" y="354" type="curve"/>
			<point x="105" y="205" type="line"/>
			<point x="120" y="205" type="line"/>
			<point x="120" y="422"/>
			<point x="196" y="555"/>
			<point x="320" y="555" type="curve" smooth="yes"/>
		</contour>
	</outline>
</glyph>
<glyph name="s" format="2">
	<advance width="564"/>
	<unicode hex="0073"/>
	<anchor x="276" y="590" name="top"/>
	<anchor x="277" y="0" name="bottom"/>
	<outline>
		<contour>
			<point x="50" y="165" type="line"/>
			<point x="52" y="153" type="line" smooth="yes"/>
			<point x="70" y="47"/>
			<point x="157" y="-16"/>
			<point x="285" y="-16" type="curve" smooth="yes"/>
			<point x="423" y="-16"/>
			<point x="504" y="49"/>
			<point x="504" y="160" type="curve" smooth="yes"/>
			<point x="504" y="210"/>
			<point x="482" y="256"/>
			<point x="445" y="283" type="curve" smooth="yes"/>
			<point x="421" y="300"/>
			<point x="378" y="317"/>
			<point x="328" y="328" type="curve" smooth="yes"/>
			<point x="267" y="342" type="line" smooth="yes"/>
			<point x="227" y="351"/>
			<point x="192" y="363"/>
			<point x="173" y="373" type="curve" smooth="yes"/>
			<point x="142" y="389"/>
			<point x="124" y="420"/>
			<point x="124" y="456" type="curve" smooth="yes"/>
			<point x="124" y="462" type="line" smooth="yes"/>
			<point x="124" y="524"/>
			<point x="180" y="561"/>
			<point x="276" y="561" type="curve" smooth="yes"/>
			<point x="367" y="561"/>
			<point x="427" y="523"/>
			<point x="438" y="460" type="curve" smooth="yes"/>
			<point x="440" y="448" type="line"/>
			<point x="490" y="455" type="line"/>
			<point x="488" y="467" type="line" smooth="yes"/>
			<point x="473" y="554"/>
			<point x="395" y="606"/>
			<point x="278" y="606" type="curve" smooth="yes"/>
			<point x="149" y="606"/>
			<point x="72" y="551"/>
			<point x="72" y="459" type="curve" smooth="yes"/>
			<point x="72" y="408"/>
			<point x="97" y="363"/>
			<point x="138" y="338" type="curve" smooth="yes"/>
			<point x="161" y="324"/>
			<point x="198" y="310"/>
			<point x="240" y="300" type="curve" smooth="yes"/>
			<point x="301" y="286" type="line" smooth="yes"/>
			<point x="357" y="273"/>
			<point x="401" y="257"/>
			<point x="418" y="241" type="curve" smooth="yes"/>
			<point x="439" y="222"/>
			<point x="452" y="192"/>
			<point x="452" y="162" type="curve" smooth="yes"/>
			<point x="452" y="158" type="line" smooth="yes"/>
			<point x="452" y="77"/>
			<point x="390" y="29"/>
			<point x="284" y="29" type="curve" smooth="yes"/>
			<point x="184" y="29"/>
			<point x="116" y="78"/>
			<point x="102" y="160" type="curve" smooth="yes"/>
			<point x="100" y="172" type="line"/>
		</contour>
	</outline>
</glyph>
<glyph name="t" format="2">
	<advance width="385"/>
	<unicode hex="0074"/>
	<anchor x="170" y="295" name="center"/>
	<anchor x="170" y="590" name="top"/>
	<anchor x="295" y="820" name="topright"/>
	<anchor x="217" y="0" name="bottom"/>
	<outline>
		<contour>
			<point x="145" y="93" type="line" smooth="yes"/>
			<point x="145" y="31"/>
			<point x="187" y="-5"/>
			<point x="257" y="-5" type="curve" smooth="yes"/>
			<point x="275" y="-5"/>
			<point x="297" y="-3"/>
			<point x="315" y="0" type="curve"/>
			<point x="315" y="43" type="line"/>
			<point x="297" y="41"/>
			<point x="274" y="40"/>
			<point x="253" y="40" type="curve" smooth="yes"/>
			<point x="217" y="40"/>
			<point x="195" y="62"/>
			<point x="195" y="98" type="curve" smooth="yes"/>
			<point x="195" y="740" type="line"/>
			<point x="175" y="740" type="line"/>
			<point x="145" y="690" type="line"/>
		</contour>
		<contour>
			<point x="25" y="545" type="line"/>
			<point x="315" y="545" type="line"/>
			<point x="315" y="590" type="line"/>
			<point x="25" y="590" type="line"/>
		</contour>
	</outline>
</glyph>
<glyph name="u" format="2">
	<advance width="575"/>
	<unicode hex="0075"/>
	<anchor x="490" y="10" name="ogonek"/>
	<anchor x="298" y="590" name="top"/>
	<anchor x="555" y="590" name="topright"/>
	<anchor x="298" y="0" name="bottom"/>
	<outline>
		<contour>
			<point x="490" y="0" type="line"/>
			<point x="490" y="590" type="line"/>
			<point x="440" y="590" type="line"/>
			<point x="440" y="110" type="line"/>
			<point x="445" y="0" type="line"/>
		</contour>
		<contour>
			<point x="120" y="185" type="curve" smooth="yes"/>
			<point x="120" y="590" type="line"/>
			<point x="70" y="590" type="line"/>
			<point x="70" y="180" type="line" smooth="yes"/>
			<point x="70" y="58"/>
			<point x="136" y="-16"/>
			<point x="245" y="-16" type="curve" smooth="yes"/>
			<point x="353" y="-16"/>
			<point x="432" y="49"/>
			<point x="455" y="156" type="curve"/>
			<point x="455" y="275" type="line"/>
			<point x="440" y="275" type="line"/>
			<point x="440" y="122"/>
			<point x="368" y="29"/>
			<point x="250" y="29" type="curve" smooth="yes"/>
			<point x="169" y="29"/>
			<point x="120" y="88"/>
		</contour>
	</outline>
</glyph>
<glyph name="v" format="2">
	<advance width="568"/>
	<unicode hex="0076"/>
	<outline>
		<contour>
			<point x="50" y="590" type="line"/>
			<point x="255" y="0" type="line"/>
			<point x="315" y="0" type="line"/>
			<point x="508" y="590" type="line"/>
			<point x="458" y="590" type="line"/>
			<point x="304" y="119" type="line"/>
			<point x="288" y="45" type="line"/>
			<point x="284" y="45" type="line"/>
			<point x="268" y="119" type="line"/>
			<point x="103" y="590" type="line"/>
		</contour>
	</outline>
</glyph>
<glyph name="w" format="2">
	<advance width="896"/>
	<unicode hex="0077"/>
	<anchor x="443" y="590" name="top"/>
	<anchor x="443" y="0" name="bottom"/>
	<outline>
		<contour>
			<point x="50" y="590" type="line"/>
			<point x="229" y="0" type="line"/>
			<point x="289" y="0" type="line"/>
			<point x="425" y="451" type="line"/>
			<point x="441" y="545" type="line"/>
			<point x="445" y="545" type="line"/>
			<point x="461" y="451" type="line"/>
			<point x="597" y="0" type="line"/>
			<point x="657" y="0" type="line"/>
			<point x="836" y="590" type="line"/>
			<point x="786" y="590" type="line"/>
			<point x="641" y="119" type="line"/>
			<point x="630" y="45" type="line"/>
			<point x="626" y="45" type="line"/>
			<point x="615" y="119" type="line"/>
			<point x="471" y="590" type="line"/>
			<point x="418" y="590" type="line"/>
			<point x="275" y="119" type="line"/>
			<point x="263" y="45" type="line"/>
			<point x="259" y="45" type="line"/>
			<point x="247" y="119" type="line"/>
			<point x="103" y="590" type="line"/>
		</contour>
	</outline>
</glyph>
<glyph name="x" format="2">
	<advance width="577"/>
	<unicode hex="0078"/>
	<outline>
		<contour>
			<point x="50" y="0" type="line"/>
			<point x="108" y="0" type="line"/>
			<point x="247" y="215" type="line"/>
			<point x="279" y="280" type="line"/>
			<point x="283" y="280" type="line"/>
			<point x="315" y="215" type="line"/>
			<point x="456" y="0" type="line"/>
			<point x="517" y="0" type="line"/>
			<point x="315" y="306" type="line"/>
			<point x="502" y="590" type="line"/>
			<point x="444" y="590" type="line"/>
			<point x="314" y="392" type="line"/>
			<point x="283" y="327" type="line"/>
			<point x="279" y="327" type="line"/>
			<point x="248" y="392" type="line"/>
			<point x="118" y="590" type="line"/>
			<point x="57" y="590" type="line"/>
			<point x="248" y="301" type="line"/>
		</contour>
	</outline>
</glyph>
<glyph name="y" format="2">
	<advance width="598"/>
	<unicode hex="0079"/>
	<anchor x="299" y="590" name="top"/>
	<anchor x="319" y="0" name="bottom"/>
	<outline>
		<contour>
			<point x="50" y="590" type="line"/>
			<point x="269" y="0" type="line"/>
			<point x="203" y="-180" type="line"/>
			<point x="256" y="-180" type="line"/>
			<point x="538" y="590" type="line"/>
			<point x="488" y="590" type="line"/>
			<point x="319" y="122" type="line"/>
			<point x="300" y="45" type="line"/>
			<point x="296" y="45" type="line"/>
			<point x="277" y="122" type="line"/>
			<point x="106" y="590" type="line"/>
		</contour>
	</outline>
</glyph>
<glyph name="z" format="2">
	<advance width="561"/>
	<unicode hex="007A"/>
	<anchor x="280" y="590" name="top"/>
	<anchor x="280" y="0" name="bottom"/>
	<outline>
		<contour>
			<point x="58" y="0" type="line"/>
			<point x="502" y="0" type="line"/>
			<point x="502" y="45" type="line"/>
			<point x="115" y="45" type="line"/>
			<point x="115" y="51" type="line"/>
			<point x="140" y="69" type="line"/>
			<point x="469" y="555" type="line"/>
			<point x="469" y="590" type="line"/>
			<point x="68" y="590" type="line"/>
			<point x="68" y="545" type="line"/>
			<point x="411" y="545" type="line"/>
			<point x="411" y="541" type="line"/>
			<point x="386" y="521" type="line"/>
			<point x="58" y="37" type="line"/>
		</contour>
	</outline>
</glyph>
<glyph name="braceleft" format="2">
	<advance width="301"/>
	<unicode hex="007B"/>
	<outline>
		<contour>
			<point x="48" y="295" type="line"/>
			<point x="68" y="295" type="line" smooth="yes"/>
			<point x="99" y="295"/>
			<point x="118" y="269"/>
			<point x="118" y="225" type="curve" smooth="yes"/>
			<point x="118" y="214"/>
			<point x="116" y="194"/>
			<point x="113" y="171" type="curve" smooth="yes"/>
			<point x="92" y="26" type="line" smooth="yes"/>
			<point x="90" y="11"/>
			<point x="88" y="-10"/>
			<point x="88" y="-31" type="curve" smooth="yes"/>
			<point x="88" y="-135"/>
			<point x="146" y="-196"/>
			<point x="243" y="-196" type="curve"/>
			<point x="253" y="-146" type="line"/>
			<point x="184" y="-146"/>
			<point x="143" y="-105"/>
			<point x="143" y="-36" type="curve" smooth="yes"/>
			<point x="143" y="-25"/>
			<point x="144" y="-5"/>
			<point x="147" y="16" type="curve" smooth="yes"/>
			<point x="168" y="161" type="line" smooth="yes"/>
			<point x="171" y="183"/>
			<point x="173" y="207"/>
			<point x="173" y="225" type="curve" smooth="yes"/>
			<point x="173" y="271"/>
			<point x="148" y="306"/>
			<point x="106" y="318" type="curve"/>
			<point x="106" y="322" type="line"/>
			<point x="148" y="334"/>
			<point x="173" y="369"/>
			<point x="173" y="415" type="curve" smooth="yes"/>
			<point x="173" y="433"/>
			<point x="171" y="457"/>
			<point x="168" y="479" type="curve" smooth="yes"/>
			<point x="147" y="624" type="line" smooth="yes"/>
			<point x="144" y="645"/>
			<point x="143" y="665"/>
			<point x="143" y="676" type="curve" smooth="yes"/>
			<point x="143" y="745"/>
			<point x="184" y="786"/>
			<point x="253" y="786" type="curve"/>
			<point x="243" y="836" type="line"/>
			<point x="146" y="836"/>
			<point x="88" y="775"/>
			<point x="88" y="671" type="curve" smooth="yes"/>
			<point x="88" y="650"/>
			<point x="90" y="629"/>
			<point x="92" y="614" type="curve" smooth="yes"/>
			<point x="113" y="469" type="line" smooth="yes"/>
			<point x="116" y="446"/>
			<point x="118" y="426"/>
			<point x="118" y="415" type="curve" smooth="yes"/>
			<point x="118" y="371"/>
			<point x="99" y="345"/>
			<point x="68" y="345" type="curve" smooth="yes"/>
			<point x="48" y="345" type="line"/>
		</contour>
	</outline>
</glyph>
<glyph name="braceright" format="2">
	<advance width="301"/>
	<unicode hex="007D"/>
	<outline>
		<contour>
			<point x="253" y="295" type="line"/>
			<point x="253" y="345" type="line"/>
			<point x="233" y="345" type="line" smooth="yes"/>
			<point x="202" y="345"/>
			<point x="183" y="371"/>
			<point x="183" y="415" type="curve" smooth="yes"/>
			<point x="183" y="426"/>
			<point x="185" y="446"/>
			<point x="188" y="469" type="curve" smooth="yes"/>
			<point x="209" y="614" type="line" smooth="yes"/>
			<point x="211" y="629"/>
			<point x="213" y="650"/>
			<point x="213" y="671" type="curve" smooth="yes"/>
			<point x="213" y="775"/>
			<point x="155" y="836"/>
			<point x="58" y="836" type="curve"/>
			<point x="48" y="786" type="line"/>
			<point x="117" y="786"/>
			<point x="158" y="745"/>
			<point x="158" y="676" type="curve" smooth="yes"/>
			<point x="158" y="665"/>
			<point x="157" y="645"/>
			<point x="154" y="624" type="curve" smooth="yes"/>
			<point x="133" y="479" type="line" smooth="yes"/>
			<point x="130" y="457"/>
			<point x="128" y="433"/>
			<point x="128" y="415" type="curve" smooth="yes"/>
			<point x="128" y="369"/>
			<point x="153" y="334"/>
			<point x="195" y="322" type="curve"/>
			<point x="195" y="318" type="line"/>
			<point x="153" y="306"/>
			<point x="128" y="271"/>
			<point x="128" y="225" type="curve" smooth="yes"/>
			<point x="128" y="207"/>
			<point x="130" y="183"/>
			<point x="133" y="161" type="curve" smooth="yes"/>
			<point x="154" y="16" type="line" smooth="yes"/>
			<point x="157" y="-5"/>
			<point x="158" y="-25"/>
			<point x="158" y="-36" type="curve" smooth="yes"/>
			<point x="158" y="-105"/>
			<point x="117" y="-146"/>
			<point x="48" y="-146" type="curve"/>
			<point x="58" y="-196" type="line"/>
			<point x="155" y="-196"/>
			<point x="213" y="-135"/>
			<point x="213" y="-31" type="curve" smooth="yes"/>
			<point x="213" y="-10"/>
			<point x="211" y="11"/>
			<point x="209" y="26" type="curve" smooth="yes"/>
			<point x="188" y="171" type="line" smooth="yes"/>
			<point x="185" y="194"/>
			<point x="183" y="214"/>
			<point x="183" y="225" type="curve" smooth="yes"/>
			<point x="183" y="269"/>
			<point x="202" y="295"/>
			<point x="233" y="295" type="curve" smooth="yes"/>
		</contour>
	</outline>
</glyph>
<glyph name="sterling" format="2">
	<advance width="656"/>
	<unicode hex="00A3"/>
	<outline>
		<contour>
			<point x="573" y="74" type="line"/>
			<point x="570" y="74" type="line"/>
			<point x="542" y="49"/>
			<point x="497" y="34"/>
			<point x="449" y="34" type="curve" smooth="yes"/>
			<point x="429" y="34"/>
			<point x="400" y="37"/>
			<point x="370" y="41" type="curve" smooth="yes"/>
			<point x="290" y="55" type="line" smooth="yes"/>
			<point x="262" y="60"/>
			<point x="232" y="63"/>
			<point x="209" y="63" type="curve" smooth="yes"/>
			<point x="173" y="63"/>
			<point x="138" y="56"/>
			<point x="115" y="44" type="curve"/>
			<point x="112" y="49" type="line"/>
			<point x="179" y="93"/>
			<point x="219" y="179"/>
			<point x="219" y="280" type="curve" smooth="yes"/>
			<point x="219" y="316"/>
			<point x="212" y="358"/>
			<point x="201" y="392" type="curve" smooth="yes"/>
			<point x="167" y="493" type="line" smooth="yes"/>
			<point x="156" y="526"/>
			<point x="149" y="561"/>
			<point x="149" y="588" type="curve" smooth="yes"/>
			<point x="149" y="686"/>
			<point x="215" y="744"/>
			<point x="326" y="744" type="curve" smooth="yes"/>
			<point x="422" y="744"/>
			<point x="493" y="690"/>
			<point x="517" y="599" type="curve" smooth="yes"/>
			<point x="523" y="576" type="line"/>
			<point x="576" y="590" type="line"/>
			<point x="570" y="613" type="line" smooth="yes"/>
			<point x="540" y="728"/>
			<point x="449" y="796"/>
			<point x="326" y="796" type="curve" smooth="yes"/>
			<point x="179" y="796"/>
			<point x="92" y="718"/>
			<point x="92" y="585" type="curve" smooth="yes"/>
			<point x="92" y="558"/>
			<point x="100" y="517"/>
			<point x="114" y="477" type="curve" smooth="yes"/>
			<point x="148" y="376" type="line" smooth="yes"/>
			<point x="157" y="351"/>
			<point x="162" y="315"/>
			<point x="162" y="280" type="curve" smooth="yes"/>
			<point x="162" y="199"/>
			<point x="124" y="114"/>
			<point x="60" y="52" type="curve"/>
			<point x="95" y="0" type="line"/>
			<point x="101" y="0" type="line"/>
			<point x="130" y="8"/>
			<point x="170" y="13"/>
			<point x="209" y="13" type="curve" smooth="yes"/>
			<point x="231" y="13"/>
			<point x="256" y="11"/>
			<point x="277" y="7" type="curve" smooth="yes"/>
			<point x="361" y="-8" type="line" smooth="yes"/>
			<point x="389" y="-13"/>
			<point x="418" y="-16"/>
			<point x="439" y="-16" type="curve" smooth="yes"/>
			<point x="499" y="-16"/>
			<point x="555" y="0"/>
			<point x="592" y="28" type="curve" smooth="yes"/>
			<point x="596" y="31" type="line"/>
		</contour>
		<contour>
			<point x="57" y="340" type="line"/>
			<point x="387" y="340" type="line"/>
			<point x="407" y="390" type="line"/>
			<point x="77" y="390" type="line"/>
		</contour>
	</outline>
</glyph>
<glyph name="currency" format="2">
	<advance width="612"/>
	<unicode hex="00A4"/>
	<outline>
		<contour>
			<point x="190" y="139" type="line"/>
			<point x="151" y="178" type="line"/>
			<point x="32" y="59" type="line"/>
			<point x="71" y="20" type="line"/>
		</contour>
		<contour>
			<point x="71" y="568" type="line"/>
			<point x="32" y="529" type="line"/>
			<point x="151" y="410" type="line"/>
			<point x="190" y="449" type="line"/>
		</contour>
		<contour>
			<point x="307" y="84" type="curve" smooth="yes"/>
			<point x="429" y="84"/>
			<point x="516" y="171"/>
			<point x="516" y="295" type="curve" smooth="yes"/>
			<point x="516" y="417"/>
			<point x="429" y="504"/>
			<point x="307" y="504" type="curve" smooth="yes"/>
			<point x="183" y="504"/>
			<point x="96" y="417"/>
			<point x="96" y="295" type="curve" smooth="yes"/>
			<point x="96" y="171"/>
			<point x="183" y="84"/>
		</contour>
		<contour>
			<point x="306" y="139" type="curve" smooth="yes"/>
			<point x="216" y="139"/>
			<point x="151" y="204"/>
			<point x="151" y="294" type="curve" smooth="yes"/>
			<point x="151" y="384"/>
			<point x="216" y="449"/>
			<point x="306" y="449" type="curve" smooth="yes"/>
			<point x="396" y="449"/>
			<point x="461" y="384"/>
			<point x="461" y="294" type="curve" smooth="yes"/>
			<point x="461" y="204"/>
			<point x="396" y="139"/>
		</contour>
		<contour>
			<point x="461" y="178" type="line"/>
			<point x="422" y="139" type="line"/>
			<point x="541" y="20" type="line"/>
			<point x="580" y="59" type="line"/>
		</contour>
		<contour>
			<point x="580" y="529" type="line"/>
			<point x="541" y="568" type="line"/>
			<point x="422" y="449" type="line"/>
			<point x="461" y="410" type="line"/>
		</contour>
	</outline>
</glyph>
<glyph name="yen" format="2">
	<advance width="721"/>
	<unicode hex="00A5"/>
	<outline>
		<contour>
			<point x="129" y="225" type="line"/>
			<point x="579" y="225" type="line"/>
			<point x="599" y="275" type="line"/>
			<point x="149" y="275" type="line"/>
		</contour>
		<contour>
			<point x="387" y="405" type="line"/>
			<point x="387" y="355" type="line"/>
			<point x="579" y="355" type="line"/>
			<point x="599" y="405" type="line"/>
		</contour>
		<contour>
			<point x="341" y="355" type="line"/>
			<point x="341" y="405" type="line"/>
			<point x="149" y="405" type="line"/>
			<point x="129" y="355" type="line"/>
		</contour>
		<component base="Y"/>
	</outline>
</glyph>
<glyph name="section" format="2">
	<advance width="603"/>
	<unicode hex="00A7"/>
	<outline>
		<contour>
			<point x="499" y="648" type="line"/>
			<point x="496" y="663" type="line" smooth="yes"/>
			<point x="479" y="747"/>
			<point x="405" y="796"/>
			<point x="296" y="796" type="curve" smooth="yes"/>
			<point x="165" y="796"/>
			<point x="87" y="737"/>
			<point x="87" y="636" type="curve" smooth="yes"/>
			<point x="87" y="614"/>
			<point x="94" y="588"/>
			<point x="106" y="567" type="curve" smooth="yes"/>
			<point x="117" y="548"/>
			<point x="134" y="529"/>
			<point x="153" y="517" type="curve" smooth="yes"/>
			<point x="170" y="506" type="line"/>
			<point x="135" y="495"/>
			<point x="104" y="476"/>
			<point x="86" y="454" type="curve" smooth="yes"/>
			<point x="68" y="433"/>
			<point x="57" y="404"/>
			<point x="57" y="376" type="curve" smooth="yes"/>
			<point x="57" y="338"/>
			<point x="72" y="300"/>
			<point x="97" y="273" type="curve" smooth="yes"/>
			<point x="123" y="245"/>
			<point x="166" y="225"/>
			<point x="212" y="215" type="curve" smooth="yes"/>
			<point x="326" y="191" type="line" smooth="yes"/>
			<point x="371" y="182"/>
			<point x="410" y="164"/>
			<point x="433" y="141" type="curve" smooth="yes"/>
			<point x="454" y="120"/>
			<point x="468" y="93"/>
			<point x="468" y="65" type="curve" smooth="yes"/>
			<point x="468" y="58" type="line" smooth="yes"/>
			<point x="468" y="-19"/>
			<point x="404" y="-64"/>
			<point x="297" y="-64" type="curve" smooth="yes"/>
			<point x="196" y="-64"/>
			<point x="128" y="-9"/>
			<point x="115" y="83" type="curve" smooth="yes"/>
			<point x="113" y="97" type="line"/>
			<point x="60" y="84" type="line"/>
			<point x="62" y="70" type="line" smooth="yes"/>
			<point x="79" y="-47"/>
			<point x="166" y="-116"/>
			<point x="296" y="-116" type="curve" smooth="yes"/>
			<point x="440" y="-116"/>
			<point x="525" y="-50"/>
			<point x="525" y="62" type="curve" smooth="yes"/>
			<point x="525" y="86"/>
			<point x="519" y="112"/>
			<point x="509" y="131" type="curve" smooth="yes"/>
			<point x="498" y="152"/>
			<point x="483" y="173"/>
			<point x="466" y="188" type="curve" smooth="yes"/>
			<point x="453" y="199" type="line"/>
			<point x="482" y="210"/>
			<point x="509" y="228"/>
			<point x="527" y="248" type="curve" smooth="yes"/>
			<point x="546" y="269"/>
			<point x="555" y="297"/>
			<point x="555" y="322" type="curve" smooth="yes"/>
			<point x="555" y="361"/>
			<point x="542" y="400"/>
			<point x="519" y="427" type="curve" smooth="yes"/>
			<point x="491" y="460"/>
			<point x="444" y="488"/>
			<point x="390" y="500" type="curve" smooth="yes"/>
			<point x="276" y="525" type="line" smooth="yes"/>
			<point x="236" y="534"/>
			<point x="198" y="551"/>
			<point x="176" y="571" type="curve" smooth="yes"/>
			<point x="156" y="589"/>
			<point x="144" y="614"/>
			<point x="144" y="639" type="curve" smooth="yes"/>
			<point x="144" y="643" type="line" smooth="yes"/>
			<point x="144" y="706"/>
			<point x="201" y="744"/>
			<point x="298" y="744" type="curve" smooth="yes"/>
			<point x="377" y="744"/>
			<point x="431" y="709"/>
			<point x="443" y="649" type="curve" smooth="yes"/>
			<point x="446" y="634" type="line"/>
		</contour>
		<contour>
			<point x="114" y="379" type="curve" smooth="yes"/>
			<point x="114" y="383" type="line" smooth="yes"/>
			<point x="114" y="432"/>
			<point x="149" y="471"/>
			<point x="207" y="488" type="curve"/>
			<point x="224" y="482"/>
			<point x="241" y="477"/>
			<point x="252" y="475" type="curve" smooth="yes"/>
			<point x="366" y="451" type="line" smooth="yes"/>
			<point x="449" y="434"/>
			<point x="498" y="388"/>
			<point x="498" y="325" type="curve" smooth="yes"/>
			<point x="498" y="318" type="line" smooth="yes"/>
			<point x="498" y="274"/>
			<point x="470" y="236"/>
			<point x="422" y="215" type="curve"/>
			<point x="403" y="225"/>
			<point x="376" y="234"/>
			<point x="350" y="240" type="curve" smooth="yes"/>
			<point x="236" y="265" type="line" smooth="yes"/>
			<point x="159" y="282"/>
			<point x="114" y="325"/>
		</contour>
	</outline>
</glyph>
<glyph name="copyright" format="2">
	<advance width="932"/>
	<unicode hex="00A9"/>
	<outline>
		<contour>
			<point x="466" y="800" type="curve" smooth="yes"/>
			<point x="245" y="800"/>
			<point x="66" y="621"/>
			<point x="66" y="400" type="curve" smooth="yes"/>
			<point x="66" y="179"/>
			<point x="245" y="0"/>
			<point x="466" y="0" type="curve" smooth="yes"/>
			<point x="689" y="0"/>
			<point x="866" y="179"/>
			<point x="866" y="400" type="curve" smooth="yes"/>
			<point x="866" y="621"/>
			<point x="687" y="800"/>
		</contour>
		<contour>
			<point x="466" y="760" type="curve" smooth="yes"/>
			<point x="666" y="760"/>
			<point x="826" y="600"/>
			<point x="826" y="400" type="curve" smooth="yes"/>
			<point x="826" y="200"/>
			<point x="666" y="40"/>
			<point x="466" y="40" type="curve" smooth="yes"/>
			<point x="266" y="40"/>
			<point x="106" y="200"/>
			<point x="106" y="400" type="curve" smooth="yes"/>
			<point x="106" y="600"/>
			<point x="266" y="760"/>
		</contour>
		<contour>
			<point x="673" y="318" type="line"/>
			<point x="634" y="320" type="line"/>
			<point x="633" y="312" type="line" smooth="yes"/>
			<point x="624" y="242"/>
			<point x="564" y="200"/>
			<point x="470" y="200" type="curve" smooth="yes"/>
			<point x="356" y="200"/>
			<point x="289" y="271"/>
			<point x="289" y="390" type="curve" smooth="yes"/>
			<point x="289" y="407" type="line" smooth="yes"/>
			<point x="289" y="528"/>
			<point x="355" y="600"/>
			<point x="467" y="600" type="curve" smooth="yes"/>
			<point x="550" y="600"/>
			<point x="608" y="561"/>
			<point x="623" y="496" type="curve" smooth="yes"/>
			<point x="625" y="487" type="line"/>
			<point x="664" y="490" type="line"/>
			<point x="662" y="499" type="line" smooth="yes"/>
			<point x="642" y="588"/>
			<point x="569" y="640"/>
			<point x="467" y="640" type="curve" smooth="yes"/>
			<point x="327" y="640"/>
			<point x="244" y="553"/>
			<point x="244" y="407" type="curve" smooth="yes"/>
			<point x="244" y="396" type="line" smooth="yes"/>
			<point x="244" y="248"/>
			<point x="328" y="160"/>
			<point x="469" y="160" type="curve" smooth="yes"/>
			<point x="586" y="160"/>
			<point x="661" y="215"/>
			<point x="672" y="309" type="curve" smooth="yes"/>
		</contour>
	</outline>
</glyph>
<glyph name="ordfeminine" format="2">
	<advance width="410"/>
	<unicode hex="00AA"/>
	<outline>
		<contour>
			<point x="69" y="713" type="line"/>
			<point x="108" y="710" type="line"/>
			<point x="109" y="718" type="line" smooth="yes"/>
			<point x="114" y="755"/>
			<point x="149" y="777"/>
			<point x="202" y="777" type="curve" smooth="yes"/>
			<point x="264" y="777"/>
			<point x="300" y="742"/>
			<point x="300" y="683" type="curve" smooth="yes"/>
			<point x="300" y="511" type="line" smooth="yes"/>
			<point x="300" y="486"/>
			<point x="304" y="461"/>
			<point x="311" y="444" type="curve"/>
			<point x="348" y="444" type="line"/>
			<point x="350" y="446" type="line"/>
			<point x="343" y="466"/>
			<point x="339" y="492"/>
			<point x="339" y="516" type="curve" smooth="yes"/>
			<point x="339" y="686" type="line" smooth="yes"/>
			<point x="339" y="765"/>
			<point x="288" y="812"/>
			<point x="202" y="812" type="curve" smooth="yes"/>
			<point x="127" y="812"/>
			<point x="78" y="778"/>
			<point x="70" y="720" type="curve" smooth="yes"/>
		</contour>
		<contour>
			<point x="316" y="593" type="line"/>
			<point x="300" y="593" type="line"/>
			<point x="300" y="515"/>
			<point x="251" y="469"/>
			<point x="168" y="469" type="curve" smooth="yes"/>
			<point x="119" y="469"/>
			<point x="90" y="496"/>
			<point x="90" y="541" type="curve" smooth="yes"/>
			<point x="90" y="544" type="line" smooth="yes"/>
			<point x="90" y="582"/>
			<point x="120" y="609"/>
			<point x="170" y="617" type="curve" smooth="yes"/>
			<point x="319" y="641" type="line"/>
			<point x="319" y="677" type="line"/>
			<point x="164" y="651" type="line" smooth="yes"/>
			<point x="92" y="639"/>
			<point x="50" y="598"/>
			<point x="50" y="541" type="curve" smooth="yes"/>
			<point x="50" y="538" type="line" smooth="yes"/>
			<point x="50" y="473"/>
			<point x="95" y="434"/>
			<point x="170" y="434" type="curve" smooth="yes"/>
			<point x="245" y="434"/>
			<point x="299" y="476"/>
			<point x="316" y="548" type="curve"/>
		</contour>
		<contour>
			<point x="86" y="371" type="line"/>
			<point x="86" y="331" type="line"/>
			<point x="332" y="331" type="line"/>
			<point x="332" y="371" type="line"/>
		</contour>
	</outline>
</glyph>
<glyph name="registered" format="2">
	<advance width="556"/>
	<unicode hex="00AE"/>
	<outline>
		<contour>
			<point x="278" y="349" type="curve" smooth="yes"/>
			<point x="405" y="349"/>
			<point x="508" y="452"/>
			<point x="508" y="579" type="curve" smooth="yes"/>
			<point x="508" y="706"/>
			<point x="405" y="809"/>
			<point x="278" y="809" type="curve" smooth="yes"/>
			<point x="151" y="809"/>
			<point x="48" y="706"/>
			<point x="48" y="579" type="curve" smooth="yes"/>
			<point x="48" y="452"/>
			<point x="151" y="349"/>
		</contour>
		<contour>
			<point x="278" y="374" type="curve" smooth="yes"/>
			<point x="165" y="374"/>
			<point x="73" y="466"/>
			<point x="73" y="579" type="curve" smooth="yes"/>
			<point x="73" y="692"/>
			<point x="165" y="784"/>
			<point x="278" y="784" type="curve" smooth="yes"/>
			<point x="391" y="784"/>
			<point x="483" y="692"/>
			<point x="483" y="579" type="curve" smooth="yes"/>
			<point x="483" y="466"/>
			<point x="391" y="374"/>
		</contour>
		<contour>
			<point x="188" y="460" type="line"/>
			<point x="210" y="460" type="line"/>
			<point x="210" y="568" type="line"/>
			<point x="309" y="568" type="line"/>
			<point x="366" y="460" type="line"/>
			<point x="391" y="460" type="line"/>
			<point x="336" y="564" type="line" smooth="yes"/>
			<point x="333" y="569"/>
			<point x="329" y="572"/>
			<point x="324" y="573" type="curve"/>
			<point x="324" y="577" type="line"/>
			<point x="359" y="582"/>
			<point x="379" y="604"/>
			<point x="379" y="636" type="curve" smooth="yes"/>
			<point x="379" y="639" type="line" smooth="yes"/>
			<point x="379" y="682"/>
			<point x="351" y="708"/>
			<point x="304" y="708" type="curve" smooth="yes"/>
			<point x="188" y="708" type="line"/>
		</contour>
		<contour>
			<point x="210" y="588" type="line"/>
			<point x="210" y="688" type="line"/>
			<point x="304" y="688" type="line" smooth="yes"/>
			<point x="338" y="688"/>
			<point x="357" y="670"/>
			<point x="357" y="638" type="curve" smooth="yes"/>
			<point x="357" y="636" type="line" smooth="yes"/>
			<point x="357" y="606"/>
			<point x="338" y="588"/>
			<point x="305" y="588" type="curve" smooth="yes"/>
		</contour>
	</outline>
</glyph>
<glyph name="degree" format="2">
	<advance width="344"/>
	<unicode hex="00B0"/>
	<outline>
		<contour>
			<point x="172" y="472" type="curve" smooth="yes"/>
			<point x="238" y="472"/>
			<point x="292" y="526"/>
			<point x="292" y="592" type="curve" smooth="yes"/>
			<point x="292" y="658"/>
			<point x="238" y="712"/>
			<point x="172" y="712" type="curve" smooth="yes"/>
			<point x="106" y="712"/>
			<point x="52" y="658"/>
			<point x="52" y="592" type="curve" smooth="yes"/>
			<point x="52" y="526"/>
			<point x="106" y="472"/>
		</contour>
		<contour>
			<point x="172" y="522" type="curve" smooth="yes"/>
			<point x="135" y="522"/>
			<point x="102" y="555"/>
			<point x="102" y="592" type="curve" smooth="yes"/>
			<point x="102" y="631"/>
			<point x="135" y="662"/>
			<point x="172" y="662" type="curve" smooth="yes"/>
			<point x="211" y="662"/>
			<point x="242" y="631"/>
			<point x="242" y="592" type="curve" smooth="yes"/>
			<point x="242" y="555"/>
			<point x="211" y="522"/>
		</contour>
	</outline>
</glyph>
<glyph name="paragraph" format="2">
	<advance width="601"/>
	<unicode hex="00B6"/>
	<outline>
		<contour>
			<point x="395" y="0" type="line"/>
			<point x="395" y="800" type="line"/>
			<point x="353" y="800" type="line" smooth="yes"/>
			<point x="173" y="800"/>
			<point x="66" y="709"/>
			<point x="66" y="554" type="curve" smooth="yes"/>
			<point x="66" y="545" type="line" smooth="yes"/>
			<point x="66" y="391"/>
			<point x="173" y="300"/>
			<point x="355" y="300" type="curve"/>
			<point x="355" y="0" type="line"/>
		</contour>
		<contour>
			<point x="455" y="800" type="line"/>
			<point x="455" y="0" type="line"/>
			<point x="495" y="0" type="line"/>
			<point x="495" y="800" type="line"/>
		</contour>
	</outline>
</glyph>
<glyph name="ordmasculine" format="2">
	<advance width="426"/>
	<unicode hex="00BA"/>
	<guideline x="665" y="439" angle="0"/>
	<outline>
		<contour>
			<point x="50" y="624" type="line" smooth="yes"/>
			<point x="50" y="508"/>
			<point x="108" y="439"/>
			<point x="206" y="439" type="curve" smooth="yes"/>
			<point x="303" y="439"/>
			<point x="361" y="507"/>
			<point x="361" y="623" type="curve" smooth="yes"/>
			<point x="361" y="630" type="line" smooth="yes"/>
			<point x="361" y="746"/>
			<point x="303" y="814"/>
			<point x="205" y="814" type="curve" smooth="yes"/>
			<point x="108" y="814"/>
			<point x="50" y="746"/>
			<point x="50" y="630" type="curve" smooth="yes"/>
		</contour>
		<contour>
			<point x="92" y="620" type="curve" smooth="yes"/>
			<point x="92" y="630" type="line" smooth="yes"/>
			<point x="92" y="724"/>
			<point x="134" y="779"/>
			<point x="204" y="779" type="curve" smooth="yes"/>
			<point x="276" y="779"/>
			<point x="319" y="725"/>
			<point x="319" y="633" type="curve" smooth="yes"/>
			<point x="319" y="623" type="line" smooth="yes"/>
			<point x="319" y="529"/>
			<point x="277" y="474"/>
			<point x="207" y="474" type="curve" smooth="yes"/>
			<point x="135" y="474"/>
			<point x="92" y="528"/>
		</contour>
		<contour>
			<point x="83" y="371" type="line"/>
			<point x="83" y="331" type="line"/>
			<point x="329" y="331" type="line"/>
			<point x="329" y="371" type="line"/>
		</contour>
	</outline>
</glyph>
<glyph name="AE" format="2">
	<advance width="1061"/>
	<unicode hex="00C6"/>
	<outline>
		<contour>
			<point x="54" y="0" type="line"/>
			<point x="114" y="0" type="line"/>
			<point x="451" y="750" type="line"/>
			<point x="501" y="750" type="line"/>
			<point x="501" y="0" type="line"/>
			<point x="996" y="0" type="line"/>
			<point x="996" y="50" type="line"/>
			<point x="556" y="50" type="line"/>
			<point x="556" y="460" type="line"/>
			<point x="906" y="460" type="line"/>
			<point x="906" y="510" type="line"/>
			<point x="556" y="510" type="line"/>
			<point x="556" y="750" type="line"/>
			<point x="976" y="750" type="line"/>
			<point x="976" y="800" type="line"/>
			<point x="413" y="800" type="line"/>
		</contour>
		<contour>
			<point x="208" y="310" type="line"/>
			<point x="208" y="260" type="line"/>
			<point x="523" y="260" type="line"/>
			<point x="523" y="310" type="line"/>
		</contour>
	</outline>
</glyph>
<glyph name="Eth" format="2">
	<advance width="803"/>
	<unicode hex="00D0"/>
	<outline>
		<contour>
			<point x="46" y="425" type="line"/>
			<point x="26" y="375" type="line"/>
			<point x="276" y="375" type="line"/>
			<point x="296" y="425" type="line"/>
		</contour>
		<component base="D"/>
	</outline>
</glyph>
<glyph name="Oslash" format="2">
	<advance width="822"/>
	<unicode hex="00D8"/>
	<outline>
		<contour>
			<point x="823" y="746" type="line"/>
			<point x="823" y="820" type="line"/>
			<point x="-20" y="54" type="line"/>
			<point x="-20" y="-20" type="line"/>
		</contour>
		<component base="O"/>
	</outline>
</glyph>
<glyph name="Thorn" format="2">
	<advance width="741"/>
	<unicode hex="00DE"/>
	<outline>
		<contour>
			<point x="106" y="0" type="line"/>
			<point x="161" y="0" type="line"/>
			<point x="161" y="190" type="line"/>
			<point x="437" y="190" type="line" smooth="yes"/>
			<point x="587" y="190"/>
			<point x="675" y="268"/>
			<point x="675" y="399" type="curve" smooth="yes"/>
			<point x="675" y="409" type="line" smooth="yes"/>
			<point x="675" y="542"/>
			<point x="587" y="620"/>
			<point x="437" y="620" type="curve" smooth="yes"/>
			<point x="161" y="620" type="line"/>
			<point x="161" y="800" type="line"/>
			<point x="106" y="800" type="line"/>
		</contour>
		<contour>
			<point x="161" y="240" type="line"/>
			<point x="161" y="570" type="line"/>
			<point x="437" y="570" type="line" smooth="yes"/>
			<point x="552" y="570"/>
			<point x="620" y="510"/>
			<point x="620" y="408" type="curve" smooth="yes"/>
			<point x="620" y="399" type="line" smooth="yes"/>
			<point x="620" y="299"/>
			<point x="552" y="240"/>
			<point x="437" y="240" type="curve" smooth="yes"/>
		</contour>
	</outline>
</glyph>
<glyph name="germandbls" format="2">
	<advance width="631"/>
	<unicode hex="00DF"/>
	<outline>
		<contour>
			<point x="292" y="-16" type="curve" smooth="yes"/>
			<point x="455" y="-16"/>
			<point x="571" y="93"/>
			<point x="571" y="247" type="curve" smooth="yes"/>
			<point x="571" y="258" type="line" smooth="yes"/>
			<point x="571" y="388"/>
			<point x="486" y="489"/>
			<point x="366" y="501" type="curve"/>
			<point x="366" y="505" type="line"/>
			<point x="452" y="507"/>
			<point x="512" y="568"/>
			<point x="512" y="653" type="curve" smooth="yes"/>
			<point x="512" y="658" type="line" smooth="yes"/>
			<point x="512" y="762"/>
			<point x="431" y="836"/>
			<point x="316" y="836" type="curve" smooth="yes"/>
			<point x="172" y="836"/>
			<point x="70" y="734"/>
			<point x="70" y="590" type="curve" smooth="yes"/>
			<point x="70" y="-60" type="line"/>
			<point x="120" y="-60" type="line"/>
			<point x="120" y="585" type="line" smooth="yes"/>
			<point x="120" y="706"/>
			<point x="201" y="791"/>
			<point x="316" y="791" type="curve" smooth="yes"/>
			<point x="400" y="791"/>
			<point x="460" y="736"/>
			<point x="460" y="658" type="curve" smooth="yes"/>
			<point x="460" y="653" type="line" smooth="yes"/>
			<point x="460" y="579"/>
			<point x="391" y="526"/>
			<point x="294" y="526" type="curve" smooth="yes"/>
			<point x="257" y="526" type="line"/>
			<point x="257" y="481" type="line"/>
			<point x="293" y="481" type="line" smooth="yes"/>
			<point x="425" y="481"/>
			<point x="519" y="391"/>
			<point x="519" y="264" type="curve" smooth="yes"/>
			<point x="519" y="247" type="line" smooth="yes"/>
			<point x="519" y="119"/>
			<point x="425" y="29"/>
			<point x="293" y="29" type="curve" smooth="yes"/>
			<point x="264" y="29"/>
			<point x="238" y="30"/>
			<point x="231" y="32" type="curve"/>
			<point x="231" y="-11" type="line"/>
			<point x="248" y="-14"/>
			<point x="273" y="-16"/>
		</contour>
	</outline>
</glyph>
<glyph name="ae" format="2">
	<advance width="1020"/>
	<unicode hex="00E6"/>
	<outline>
		<contour>
			<point x="50" y="155" type="line" smooth="yes"/>
			<point x="50" y="55"/>
			<point x="131" y="-16"/>
			<point x="246" y="-16" type="curve" smooth="yes"/>
			<point x="370" y="-16"/>
			<point x="459" y="53"/>
			<point x="486" y="171" type="curve"/>
			<point x="486" y="301" type="line"/>
			<point x="461" y="301" type="line"/>
			<point x="461" y="245" type="line" smooth="yes"/>
			<point x="461" y="118"/>
			<point x="371" y="29"/>
			<point x="243" y="29" type="curve" smooth="yes"/>
			<point x="160" y="29"/>
			<point x="102" y="83"/>
			<point x="102" y="160" type="curve" smooth="yes"/>
			<point x="102" y="165" type="line" smooth="yes"/>
			<point x="102" y="233"/>
			<point x="155" y="282"/>
			<point x="246" y="297" type="curve" smooth="yes"/>
			<point x="491" y="337" type="line"/>
			<point x="491" y="383" type="line"/>
			<point x="237" y="341" type="line" smooth="yes"/>
			<point x="119" y="322"/>
			<point x="50" y="255"/>
			<point x="50" y="160" type="curve" smooth="yes"/>
		</contour>
		<contour>
			<point x="92" y="432" type="line"/>
			<point x="142" y="428" type="line"/>
			<point x="143" y="440" type="line" smooth="yes"/>
			<point x="148" y="505"/>
			<point x="212" y="561"/>
			<point x="298" y="561" type="curve" smooth="yes"/>
			<point x="400" y="561"/>
			<point x="461" y="506"/>
			<point x="461" y="414" type="curve" smooth="yes"/>
			<point x="461" y="290" type="line" smooth="yes"/>
			<point x="461" y="111"/>
			<point x="567" y="-16"/>
			<point x="716" y="-16" type="curve" smooth="yes"/>
			<point x="832" y="-16"/>
			<point x="926" y="59"/>
			<point x="944" y="166" type="curve" smooth="yes"/>
			<point x="946" y="178" type="line"/>
			<point x="896" y="182" type="line"/>
			<point x="894" y="170" type="line" smooth="yes"/>
			<point x="880" y="87"/>
			<point x="807" y="29"/>
			<point x="717" y="29" type="curve" smooth="yes"/>
			<point x="596" y="29"/>
			<point x="511" y="135"/>
			<point x="511" y="284" type="curve" smooth="yes"/>
			<point x="511" y="301" type="line" smooth="yes"/>
			<point x="511" y="464"/>
			<point x="588" y="561"/>
			<point x="717" y="561" type="curve" smooth="yes"/>
			<point x="832" y="561"/>
			<point x="903" y="471"/>
			<point x="903" y="324" type="curve" smooth="yes"/>
			<point x="903" y="319" type="line"/>
			<point x="938" y="354" type="line"/>
			<point x="501" y="354" type="line"/>
			<point x="501" y="309" type="line"/>
			<point x="955" y="309" type="line"/>
			<point x="955" y="318" type="line" smooth="yes"/>
			<point x="955" y="497"/>
			<point x="865" y="606"/>
			<point x="718" y="606" type="curve" smooth="yes"/>
			<point x="609" y="606"/>
			<point x="528" y="545"/>
			<point x="499" y="442" type="curve"/>
			<point x="495" y="442" type="line"/>
			<point x="485" y="545"/>
			<point x="412" y="606"/>
			<point x="299" y="606" type="curve" smooth="yes"/>
			<point x="185" y="606"/>
			<point x="100" y="533"/>
			<point x="93" y="444" type="curve" smooth="yes"/>
		</contour>
	</outline>
</glyph>
<glyph name="eth" format="2">
	<advance width="639"/>
	<unicode hex="00F0"/>
	<outline>
		<contour>
			<point x="50" y="301" type="curve" smooth="yes"/>
			<point x="50" y="290" type="line" smooth="yes"/>
			<point x="50" y="100"/>
			<point x="140" y="-16"/>
			<point x="287" y="-16" type="curve" smooth="yes"/>
			<point x="440" y="-16"/>
			<point x="534" y="87"/>
			<point x="534" y="255" type="curve" smooth="yes"/>
			<point x="534" y="530" type="line" smooth="yes"/>
			<point x="534" y="575"/>
			<point x="524" y="629"/>
			<point x="508" y="670" type="curve" smooth="yes"/>
			<point x="450" y="820" type="line"/>
			<point x="396" y="820" type="line"/>
			<point x="459" y="658" type="line" smooth="yes"/>
			<point x="475" y="618"/>
			<point x="484" y="569"/>
			<point x="484" y="530" type="curve" smooth="yes"/>
			<point x="484" y="255" type="line" smooth="yes"/>
			<point x="484" y="115"/>
			<point x="408" y="29"/>
			<point x="284" y="29" type="curve" smooth="yes"/>
			<point x="171" y="29"/>
			<point x="102" y="126"/>
			<point x="102" y="284" type="curve" smooth="yes"/>
			<point x="102" y="301" type="line" smooth="yes"/>
			<point x="102" y="462"/>
			<point x="174" y="561"/>
			<point x="292" y="561" type="curve" smooth="yes"/>
			<point x="411" y="561"/>
			<point x="484" y="475"/>
			<point x="484" y="335" type="curve"/>
			<point x="499" y="335" type="line"/>
			<point x="499" y="454" type="line"/>
			<point x="479" y="548"/>
			<point x="399" y="606"/>
			<point x="289" y="606" type="curve" smooth="yes"/>
			<point x="141" y="606"/>
			<point x="50" y="490"/>
		</contour>
		<contour>
			<point x="324" y="677" type="line"/>
			<point x="574" y="717" type="line"/>
			<point x="574" y="763" type="line"/>
			<point x="324" y="723" type="line"/>
		</contour>
	</outline>
</glyph>
<glyph name="oslash" format="2">
	<advance width="631"/>
	<unicode hex="00F8"/>
	<outline>
		<contour>
			<point x="20" y="126" type="line"/>
			<point x="20" y="72" type="line"/>
			<point x="596" y="465" type="line"/>
			<point x="596" y="519" type="line"/>
		</contour>
		<component base="o"/>
	</outline>
</glyph>
<glyph name="Hbar" format="2">
	<advance width="832"/>
	<unicode hex="0126"/>
	<outline>
		<contour>
			<point x="71" y="670" type="line"/>
			<point x="51" y="620" type="line"/>
			<point x="761" y="620" type="line"/>
			<point x="781" y="670" type="line"/>
		</contour>
		<component base="H"/>
	</outline>
</glyph>
<glyph name="hbar" format="2">
	<advance width="579"/>
	<unicode hex="0127"/>
	<outline>
		<contour>
			<point x="-26" y="695" type="line"/>
			<point x="224" y="695" type="line"/>
			<point x="244" y="740" type="line"/>
			<point x="-6" y="740" type="line"/>
		</contour>
		<component base="h" xOffset="4"/>
	</outline>
</glyph>
<glyph name="idotless" format="2">
	<advance width="205"/>
	<unicode hex="0131"/>
	<anchor x="120" y="10" name="ogonek"/>
	<anchor x="95" y="0" name="bottom"/>
	<anchor x="95" y="590" name="top"/>
	<outline>
		<contour>
			<point x="70" y="590" type="line"/>
			<point x="70" y="0" type="line"/>
			<point x="120" y="0" type="line"/>
			<point x="120" y="590" type="line"/>
		</contour>
	</outline>
</glyph>
<glyph name="Lslash" format="2">
	<advance width="734"/>
	<unicode hex="0141"/>
	<outline>
		<contour>
			<point x="55" y="378" type="line"/>
			<point x="334" y="422" type="line"/>
			<point x="334" y="473" type="line"/>
			<point x="55" y="429" type="line"/>
		</contour>
		<component base="L" xOffset="25"/>
	</outline>
</glyph>
<glyph name="lslash" format="2">
	<advance width="205"/>
	<unicode hex="0142"/>
	<outline>
		<contour>
			<point x="-30" y="305" type="line"/>
			<point x="220" y="345" type="line"/>
			<point x="220" y="391" type="line"/>
			<point x="-30" y="351" type="line"/>
		</contour>
		<component base="l"/>
	</outline>
</glyph>
<glyph name="Eng" format="2">
	<advance width="787"/>
	<unicode hex="014A"/>
	<outline>
		<contour>
			<point x="681" y="20" type="line"/>
			<point x="628" y="20" type="line"/>
			<point x="628" y="8" type="line" smooth="yes"/>
			<point x="628" y="-85"/>
			<point x="573" y="-140"/>
			<point x="480" y="-140" type="curve" smooth="yes"/>
			<point x="454" y="-140"/>
			<point x="423" y="-136"/>
			<point x="398" y="-130" type="curve"/>
			<point x="398" y="-180" type="line"/>
			<point x="421" y="-186"/>
			<point x="452" y="-190"/>
			<point x="480" y="-190" type="curve" smooth="yes"/>
			<point x="606" y="-190"/>
			<point x="681" y="-118"/>
			<point x="681" y="3" type="curve" smooth="yes"/>
		</contour>
		<component base="N"/>
	</outline>
</glyph>
<glyph name="eng" format="2">
	<advance width="590"/>
	<unicode hex="014B"/>
	<outline>
		<contour>
			<point x="510" y="100" type="line"/>
			<point x="460" y="100" type="line"/>
			<point x="460" y="-82" type="line" smooth="yes"/>
			<point x="460" y="-118"/>
			<point x="438" y="-140"/>
			<point x="402" y="-140" type="curve" smooth="yes"/>
			<point x="381" y="-140"/>
			<point x="358" y="-138"/>
			<point x="340" y="-136" type="curve"/>
			<point x="340" y="-180" type="line"/>
			<point x="358" y="-183"/>
			<point x="380" y="-185"/>
			<point x="398" y="-185" type="curve" smooth="yes"/>
			<point x="468" y="-185"/>
			<point x="510" y="-149"/>
			<point x="510" y="-87" type="curve" smooth="yes"/>
		</contour>
		<component base="n"/>
	</outline>
</glyph>
<glyph name="OE" format="2">
	<advance width="1219"/>
	<unicode hex="0152"/>
	<outline>
		<contour>
			<point x="66" y="394" type="line" smooth="yes"/>
			<point x="66" y="136"/>
			<point x="187" y="-16"/>
			<point x="392" y="-16" type="curve" smooth="yes"/>
			<point x="526" y="-16"/>
			<point x="623" y="46"/>
			<point x="655" y="151" type="curve"/>
			<point x="659" y="151" type="line"/>
			<point x="659" y="0" type="line"/>
			<point x="1154" y="0" type="line"/>
			<point x="1154" y="50" type="line"/>
			<point x="714" y="50" type="line"/>
			<point x="714" y="460" type="line"/>
			<point x="1064" y="460" type="line"/>
			<point x="1064" y="510" type="line"/>
			<point x="714" y="510" type="line"/>
			<point x="714" y="750" type="line"/>
			<point x="1134" y="750" type="line"/>
			<point x="1134" y="800" type="line"/>
			<point x="659" y="800" type="line"/>
			<point x="659" y="648" type="line"/>
			<point x="655" y="648" type="line"/>
			<point x="623" y="754"/>
			<point x="525" y="816"/>
			<point x="390" y="816" type="curve" smooth="yes"/>
			<point x="186" y="816"/>
			<point x="66" y="665"/>
			<point x="66" y="409" type="curve" smooth="yes"/>
		</contour>
		<contour>
			<point x="123" y="386" type="curve" smooth="yes"/>
			<point x="123" y="409" type="line" smooth="yes"/>
			<point x="123" y="632"/>
			<point x="222" y="764"/>
			<point x="389" y="764" type="curve" smooth="yes"/>
			<point x="559" y="764"/>
			<point x="659" y="634"/>
			<point x="659" y="415" type="curve" smooth="yes"/>
			<point x="659" y="392" type="line" smooth="yes"/>
			<point x="659" y="168"/>
			<point x="560" y="36"/>
			<point x="393" y="36" type="curve" smooth="yes"/>
			<point x="223" y="36"/>
			<point x="123" y="166"/>
		</contour>
	</outline>
</glyph>
<glyph name="oe" format="2">
	<advance width="1075"/>
	<unicode hex="0153"/>
	<outline>
		<contour>
			<point x="50" y="290" type="line" smooth="yes"/>
			<point x="50" y="100"/>
			<point x="148" y="-16"/>
			<point x="307" y="-16" type="curve" smooth="yes"/>
			<point x="434" y="-16"/>
			<point x="520" y="57"/>
			<point x="538" y="180" type="curve"/>
			<point x="542" y="180" type="line"/>
			<point x="560" y="57"/>
			<point x="645" y="-16"/>
			<point x="771" y="-16" type="curve" smooth="yes"/>
			<point x="886" y="-16"/>
			<point x="980" y="59"/>
			<point x="998" y="166" type="curve" smooth="yes"/>
			<point x="1000" y="178" type="line"/>
			<point x="950" y="182" type="line"/>
			<point x="948" y="170" type="line" smooth="yes"/>
			<point x="934" y="87"/>
			<point x="862" y="29"/>
			<point x="773" y="29" type="curve" smooth="yes"/>
			<point x="643" y="29"/>
			<point x="566" y="124"/>
			<point x="566" y="284" type="curve" smooth="yes"/>
			<point x="566" y="301" type="line" smooth="yes"/>
			<point x="566" y="464"/>
			<point x="643" y="561"/>
			<point x="772" y="561" type="curve" smooth="yes"/>
			<point x="887" y="561"/>
			<point x="958" y="471"/>
			<point x="958" y="324" type="curve" smooth="yes"/>
			<point x="958" y="319" type="line"/>
			<point x="993" y="354" type="line"/>
			<point x="546" y="354" type="line"/>
			<point x="546" y="309" type="line"/>
			<point x="1010" y="309" type="line"/>
			<point x="1010" y="318" type="line" smooth="yes"/>
			<point x="1010" y="497"/>
			<point x="920" y="606"/>
			<point x="773" y="606" type="curve" smooth="yes"/>
			<point x="647" y="606"/>
			<point x="561" y="533"/>
			<point x="543" y="410" type="curve"/>
			<point x="539" y="410" type="line"/>
			<point x="520" y="533"/>
			<point x="434" y="606"/>
			<point x="309" y="606" type="curve" smooth="yes"/>
			<point x="148" y="606"/>
			<point x="50" y="490"/>
			<point x="50" y="301" type="curve" smooth="yes"/>
		</contour>
		<contour>
			<point x="102" y="284" type="curve" smooth="yes"/>
			<point x="102" y="301" type="line" smooth="yes"/>
			<point x="102" y="462"/>
			<point x="180" y="561"/>
			<point x="308" y="561" type="curve" smooth="yes"/>
			<point x="437" y="561"/>
			<point x="514" y="466"/>
			<point x="514" y="306" type="curve" smooth="yes"/>
			<point x="514" y="289" type="line" smooth="yes"/>
			<point x="514" y="126"/>
			<point x="437" y="29"/>
			<point x="308" y="29" type="curve" smooth="yes"/>
			<point x="180" y="29"/>
			<point x="102" y="126"/>
		</contour>
	</outline>
</glyph>
<glyph name="Tbar" format="2">
	<advance width="697"/>
	<unicode hex="0166"/>
	<outline>
		<contour>
			<point x="106" y="465" type="line"/>
			<point x="86" y="415" type="line"/>
			<point x="596" y="415" type="line"/>
			<point x="616" y="465" type="line"/>
		</contour>
		<component base="T"/>
	</outline>
</glyph>
<glyph name="tbar" format="2">
	<advance width="385"/>
	<unicode hex="0167"/>
	<outline>
		<contour>
			<point x="40" y="305" type="line"/>
			<point x="290" y="305" type="line"/>
			<point x="310" y="350" type="line"/>
			<point x="60" y="350" type="line"/>
		</contour>
		<component base="t"/>
	</outline>
</glyph>
<glyph name="jdotless" format="2">
	<advance width="205"/>
	<unicode hex="0237"/>
	<anchor x="95" y="590" name="top"/>
	<anchor x="95" y="-180" name="bottom"/>
	<outline>
		<contour>
			<point x="120" y="-87" type="curve" smooth="yes"/>
			<point x="120" y="590" type="line"/>
			<point x="70" y="590" type="line"/>
			<point x="70" y="-82" type="line" smooth="yes"/>
			<point x="70" y="-118"/>
			<point x="48" y="-140"/>
			<point x="12" y="-140" type="curve" smooth="yes"/>
			<point x="-9" y="-140"/>
			<point x="-32" y="-139"/>
			<point x="-50" y="-137" type="curve"/>
			<point x="-50" y="-180" type="line"/>
			<point x="-32" y="-183"/>
			<point x="-10" y="-185"/>
			<point x="8" y="-185" type="curve" smooth="yes"/>
			<point x="78" y="-185"/>
			<point x="120" y="-149"/>
		</contour>
	</outline>
</glyph>
<glyph name="gravecomb" format="2">
	<advance width="182"/>
	<unicode hex="0300"/>
	<anchor x="101" y="800" name="top"/>
	<anchor x="117" y="590" name="_top"/>
	<outline>
		<contour>
			<point x="81" y="820" type="line"/>
			<point x="5" y="820" type="line"/>
			<point x="107" y="690" type="line"/>
			<point x="157" y="690" type="line"/>
		</contour>
	</outline>
</glyph>
<glyph name="acutecomb" format="2">
	<advance width="182"/>
	<unicode hex="0301"/>
	<anchor x="81" y="800" name="top"/>
	<anchor x="65" y="590" name="_top"/>
	<outline>
		<contour>
			<point x="101" y="820" type="line"/>
			<point x="25" y="690" type="line"/>
			<point x="75" y="690" type="line"/>
			<point x="177" y="820" type="line"/>
		</contour>
	</outline>
</glyph>
<glyph name="circumflexcomb" format="2">
	<advance width="326"/>
	<unicode hex="0302"/>
	<anchor x="163" y="800" name="top"/>
	<anchor x="163" y="590" name="_top"/>
	<outline>
		<contour>
			<point x="0" y="694" type="line"/>
			<point x="59" y="694" type="line"/>
			<point x="157" y="778" type="line"/>
			<point x="161" y="790" type="line"/>
			<point x="165" y="790" type="line"/>
			<point x="169" y="778" type="line"/>
			<point x="267" y="694" type="line"/>
			<point x="326" y="694" type="line"/>
			<point x="192" y="820" type="line"/>
			<point x="134" y="820" type="line"/>
		</contour>
	</outline>
</glyph>
<glyph name="tildecomb" format="2">
	<advance width="395"/>
	<unicode hex="0303"/>
	<anchor x="198" y="771" name="top"/>
	<anchor x="198" y="590" name="_top"/>
	<outline>
		<contour>
			<point x="20" y="706" type="curve"/>
			<point x="67" y="697" type="line"/>
			<point x="74" y="737"/>
			<point x="93" y="761"/>
			<point x="119" y="761" type="curve" smooth="yes"/>
			<point x="134" y="761"/>
			<point x="152" y="755"/>
			<point x="166" y="745" type="curve" smooth="yes"/>
			<point x="207" y="716" type="line" smooth="yes"/>
			<point x="229" y="701"/>
			<point x="253" y="692"/>
			<point x="273" y="692" type="curve" smooth="yes"/>
			<point x="329" y="692"/>
			<point x="367" y="730"/>
			<point x="375" y="793" type="curve"/>
			<point x="328" y="802" type="line"/>
			<point x="321" y="762"/>
			<point x="301" y="738"/>
			<point x="273" y="738" type="curve" smooth="yes"/>
			<point x="259" y="738"/>
			<point x="243" y="744"/>
			<point x="229" y="754" type="curve" smooth="yes"/>
			<point x="189" y="783" type="line" smooth="yes"/>
			<point x="169" y="798"/>
			<point x="143" y="807"/>
			<point x="119" y="807" type="curve" smooth="yes"/>
			<point x="65" y="807"/>
			<point x="28" y="769"/>
		</contour>
	</outline>
</glyph>
<glyph name="macroncomb" format="2">
	<advance width="338"/>
	<unicode hex="0304"/>
	<anchor x="169" y="760" name="top"/>
	<anchor x="169" y="590" name="_top"/>
	<outline>
		<contour>
			<point x="34" y="760" type="line"/>
			<point x="34" y="715" type="line"/>
			<point x="304" y="715" type="line"/>
			<point x="304" y="760" type="line"/>
		</contour>
	</outline>
</glyph>
<glyph name="brevecomb" format="2">
	<advance width="312"/>
	<unicode hex="0306"/>
	<anchor x="156" y="800" name="top"/>
	<anchor x="156" y="590" name="_top"/>
	<outline>
		<contour>
			<point x="296" y="810" type="curve"/>
			<point x="246" y="820" type="line"/>
			<point x="246" y="773"/>
			<point x="212" y="745"/>
			<point x="156" y="745" type="curve" smooth="yes"/>
			<point x="100" y="745"/>
			<point x="66" y="773"/>
			<point x="66" y="820" type="curve"/>
			<point x="16" y="810" type="line"/>
			<point x="16" y="742"/>
			<point x="69" y="700"/>
			<point x="156" y="700" type="curve" smooth="yes"/>
			<point x="243" y="700"/>
			<point x="296" y="742"/>
		</contour>
	</outline>
</glyph>
<glyph name="dieresiscomb" format="2">
	<advance width="348"/>
	<unicode hex="0308"/>
	<anchor x="174" y="780" name="top"/>
	<anchor x="174" y="590" name="_top"/>
	<outline>
		<contour>
			<point x="34" y="800" type="line"/>
			<point x="34" y="700" type="line"/>
			<point x="94" y="700" type="line"/>
			<point x="94" y="800" type="line"/>
		</contour>
		<contour>
			<point x="254" y="800" type="line"/>
			<point x="254" y="700" type="line"/>
			<point x="314" y="700" type="line"/>
			<point x="314" y="800" type="line"/>
		</contour>
	</outline>
</glyph>
<glyph name="ringcomb" format="2">
	<advance width="228"/>
	<unicode hex="030A"/>
	<anchor x="114" y="816" name="top"/>
	<anchor x="114" y="590" name="_top"/>
	<outline>
		<contour>
			<point x="114" y="651" type="curve" smooth="yes"/>
			<point x="161" y="651"/>
			<point x="194" y="684"/>
			<point x="194" y="731" type="curve" smooth="yes"/>
			<point x="194" y="778"/>
			<point x="161" y="811"/>
			<point x="114" y="811" type="curve" smooth="yes"/>
			<point x="67" y="811"/>
			<point x="34" y="778"/>
			<point x="34" y="731" type="curve" smooth="yes"/>
			<point x="34" y="684"/>
			<point x="67" y="651"/>
		</contour>
		<contour>
			<point x="114" y="686" type="curve" smooth="yes"/>
			<point x="91" y="686"/>
			<point x="74" y="705"/>
			<point x="74" y="731" type="curve" smooth="yes"/>
			<point x="74" y="757"/>
			<point x="91" y="776"/>
			<point x="114" y="776" type="curve" smooth="yes"/>
			<point x="137" y="776"/>
			<point x="154" y="757"/>
			<point x="154" y="731" type="curve" smooth="yes"/>
			<point x="154" y="705"/>
			<point x="137" y="686"/>
		</contour>
	</outline>
</glyph>
<glyph name="hungarumlautcomb" format="2">
	<advance width="332"/>
	<unicode hex="030B"/>
	<anchor x="166" y="800" name="top"/>
	<anchor x="166" y="590" name="_top"/>
	<outline>
		<contour>
			<point x="101" y="820" type="line"/>
			<point x="25" y="690" type="line"/>
			<point x="75" y="690" type="line"/>
			<point x="177" y="820" type="line"/>
		</contour>
		<contour>
			<point x="251" y="820" type="line"/>
			<point x="175" y="690" type="line"/>
			<point x="225" y="690" type="line"/>
			<point x="327" y="820" type="line"/>
		</contour>
	</outline>
</glyph>
<glyph name="commaaccentcomb" format="2">
	<advance width="113"/>
	<unicode hex="0326"/>
	<anchor x="54" y="0" name="_bottom"/>
	<anchor x="54" y="-180" name="bottom"/>
	<outline>
		<contour>
			<point x="29" y="-230" type="line"/>
			<point x="57" y="-230" type="line"/>
			<point x="89" y="-150" type="line"/>
			<point x="89" y="-70" type="line"/>
			<point x="24" y="-70" type="line"/>
			<point x="24" y="-150" type="line"/>
			<point x="54" y="-150" type="line"/>
		</contour>
	</outline>
</glyph>
<glyph name="cedillacomb" format="2">
	<advance width="174"/>
	<unicode hex="0327"/>
	<anchor x="61" y="0" name="_bottom"/>
	<anchor x="61" y="-172" name="bottom"/>
	<outline>
		<contour>
			<point x="48" y="20" type="line"/>
			<point x="48" y="-8"/>
			<point x="44" y="-38"/>
			<point x="37" y="-62" type="curve"/>
			<point x="59" y="-88" type="line"/>
			<point x="82" y="-88" type="line" smooth="yes"/>
			<point x="111" y="-88"/>
			<point x="128" y="-101"/>
			<point x="128" y="-122" type="curve" smooth="yes"/>
			<point x="128" y="-143"/>
			<point x="107" y="-156"/>
			<point x="72" y="-156" type="curve" smooth="yes"/>
			<point x="53" y="-156"/>
			<point x="32" y="-153"/>
			<point x="15" y="-149" type="curve"/>
			<point x="9" y="-187" type="line"/>
			<point x="24" y="-193"/>
			<point x="49" y="-196"/>
			<point x="77" y="-196" type="curve" smooth="yes"/>
			<point x="137" y="-196"/>
			<point x="173" y="-169"/>
			<point x="173" y="-122" type="curve" smooth="yes"/>
			<point x="173" y="-75"/>
			<point x="141" y="-48"/>
			<point x="86" y="-48" type="curve"/>
			<point x="91" y="-26"/>
			<point x="94" y="-1"/>
			<point x="94" y="20" type="curve"/>
		</contour>
	</outline>
</glyph>
<glyph name="ogonekcomb" format="2">
	<advance width="174"/>
	<unicode hex="0328"/>
	<anchor x="139" y="10" name="_ogonek"/>
	<outline>
		<contour>
			<point x="139" y="0" type="curve"/>
			<point x="129" y="20" type="line"/>
			<point x="90" y="20" type="line"/>
			<point x="51" y="2"/>
			<point x="27" y="-39"/>
			<point x="27" y="-89" type="curve" smooth="yes"/>
			<point x="27" y="-140"/>
			<point x="59" y="-171"/>
			<point x="112" y="-171" type="curve" smooth="yes"/>
			<point x="128" y="-171"/>
			<point x="144" y="-169"/>
			<point x="154" y="-165" type="curve"/>
			<point x="154" y="-128" type="line"/>
			<point x="147" y="-130"/>
			<point x="138" y="-131"/>
			<point x="129" y="-131" type="curve" smooth="yes"/>
			<point x="97" y="-131"/>
			<point x="77" y="-110"/>
			<point x="77" y="-76" type="curve" smooth="yes"/>
			<point x="77" y="-40"/>
			<point x="101" y="-11"/>
		</contour>
	</outline>
</glyph>
<glyph name="guilsinglleft" format="2">
	<advance width="300"/>
	<unicode hex="2039"/>
	<outline>
		<contour>
			<point x="178" y="473" type="line"/>
			<point x="68" y="290" type="line"/>
			<point x="178" y="107" type="line"/>
			<point x="232" y="107" type="line"/>
			<point x="132" y="290" type="line"/>
			<point x="232" y="473" type="line"/>
		</contour>
	</outline>
</glyph>
<glyph name="guilsinglright" format="2">
	<advance width="300"/>
	<unicode hex="203A"/>
	<outline>
		<contour>
			<point x="122" y="473" type="line"/>
			<point x="68" y="473" type="line"/>
			<point x="168" y="290" type="line"/>
			<point x="68" y="107" type="line"/>
			<point x="122" y="107" type="line"/>
			<point x="232" y="290" type="line"/>
		</contour>
	</outline>
</glyph>
<glyph name="euro" format="2">
	<advance width="835"/>
	<unicode hex="20AC"/>
	<outline>
		<contour>
			<point x="775" y="238" type="line"/>
			<point x="722" y="242" type="line"/>
			<point x="720" y="230" type="line" smooth="yes"/>
			<point x="700" y="108"/>
			<point x="602" y="36"/>
			<point x="458" y="36" type="curve" smooth="yes"/>
			<point x="268" y="36"/>
			<point x="155" y="166"/>
			<point x="155" y="386" type="curve" smooth="yes"/>
			<point x="155" y="409" type="line" smooth="yes"/>
			<point x="155" y="632"/>
			<point x="268" y="764"/>
			<point x="458" y="764" type="curve" smooth="yes"/>
			<point x="591" y="764"/>
			<point x="681" y="696"/>
			<point x="700" y="580" type="curve" smooth="yes"/>
			<point x="702" y="568" type="line"/>
			<point x="755" y="572" type="line"/>
			<point x="753" y="584" type="line" smooth="yes"/>
			<point x="729" y="730"/>
			<point x="619" y="816"/>
			<point x="458" y="816" type="curve" smooth="yes"/>
			<point x="232" y="816"/>
			<point x="98" y="665"/>
			<point x="98" y="409" type="curve" smooth="yes"/>
			<point x="98" y="394" type="line" smooth="yes"/>
			<point x="98" y="136"/>
			<point x="232" y="-16"/>
			<point x="458" y="-16" type="curve" smooth="yes"/>
			<point x="630" y="-16"/>
			<point x="748" y="74"/>
			<point x="773" y="226" type="curve" smooth="yes"/>
		</contour>
		<contour>
			<point x="11" y="305" type="line"/>
			<point x="461" y="305" type="line"/>
			<point x="481" y="355" type="line"/>
			<point x="31" y="355" type="line"/>
		</contour>
		<contour>
			<point x="11" y="435" type="line"/>
			<point x="461" y="435" type="line"/>
			<point x="481" y="485" type="line"/>
			<point x="31" y="485" type="line"/>
		</contour>
	</outline>
</glyph>
<glyph name="trademark" format="2">
	<advance width="584"/>
	<unicode hex="2122"/>
	<outline>
		<contour>
			<point x="34" y="820" type="line"/>
			<point x="34" y="801" type="line"/>
			<point x="123" y="801" type="line"/>
			<point x="123" y="590" type="line"/>
			<point x="143" y="590" type="line"/>
			<point x="143" y="801" type="line"/>
			<point x="232" y="801" type="line"/>
			<point x="232" y="820" type="line"/>
		</contour>
		<contour>
			<point x="553" y="590" type="line"/>
			<point x="553" y="820" type="line"/>
			<point x="523" y="820" type="line"/>
			<point x="418" y="632" type="line"/>
			<point x="410" y="610" type="line"/>
			<point x="406" y="610" type="line"/>
			<point x="398" y="632" type="line"/>
			<point x="293" y="820" type="line"/>
			<point x="261" y="820" type="line"/>
			<point x="261" y="590" type="line"/>
			<point x="281" y="590" type="line"/>
			<point x="281" y="778" type="line"/>
			<point x="279" y="803" type="line"/>
			<point x="283" y="803" type="line"/>
			<point x="293" y="778" type="line"/>
			<point x="399" y="590" type="line"/>
			<point x="417" y="590" type="line"/>
			<point x="521" y="778" type="line"/>
			<point x="530" y="803" type="line"/>
			<point x="534" y="803" type="line"/>
			<point x="531" y="779" type="line"/>
			<point x="531" y="590" type="line"/>
		</contour>
	</outline>
</glyph>
<glyph name="lozenge" format="2">
	<advance width="627"/>
	<unicode hex="25CA"/>
	<outline>
		<contour>
			<point x="66" y="400" type="line"/>
			<point x="286" y="0" type="line"/>
			<point x="341" y="0" type="line"/>
			<point x="561" y="400" type="line"/>
			<point x="341" y="800" type="line"/>
			<point x="286" y="800" type="line"/>
		</contour>
		<contour>
			<point x="501" y="400" type="line"/>
			<point x="329" y="81" type="line"/>
			<point x="316" y="44" type="line"/>
			<point x="312" y="44" type="line"/>
			<point x="299" y="81" type="line"/>
			<point x="126" y="400" type="line"/>
			<point x="299" y="719" type="line"/>
			<point x="312" y="756" type="line"/>
			<point x="316" y="756" type="line"/>
			<point x="329" y="719" type="line"/>
		</contour>
	</outline>
</glyph>
<glyph name="G.ss02" format="2">
	<advance width="812"/>
	<anchor x="406" y="800" name="top"/>
	<anchor x="406" y="0" name="bottom"/>
	<outline>
		<contour>
			<point x="764" y="425" type="line"/>
			<point x="441" y="425" type="line"/>
			<point x="441" y="375" type="line"/>
			<point x="709" y="375" type="line"/>
			<point x="709" y="326" type="line" smooth="yes"/>
			<point x="709" y="156"/>
			<point x="608" y="36"/>
			<point x="436" y="36" type="curve" smooth="yes"/>
			<point x="239" y="36"/>
			<point x="123" y="166"/>
			<point x="123" y="386" type="curve" smooth="yes"/>
			<point x="123" y="409" type="line" smooth="yes"/>
			<point x="123" y="632"/>
			<point x="239" y="764"/>
			<point x="436" y="764" type="curve" smooth="yes"/>
			<point x="570" y="764"/>
			<point x="660" y="699"/>
			<point x="678" y="590" type="curve" smooth="yes"/>
			<point x="680" y="578" type="line"/>
			<point x="733" y="582" type="line"/>
			<point x="731" y="594" type="line" smooth="yes"/>
			<point x="708" y="734"/>
			<point x="598" y="816"/>
			<point x="436" y="816" type="curve" smooth="yes"/>
			<point x="203" y="816"/>
			<point x="66" y="665"/>
			<point x="66" y="409" type="curve" smooth="yes"/>
			<point x="66" y="394" type="line" smooth="yes"/>
			<point x="66" y="136"/>
			<point x="203" y="-16"/>
			<point x="436" y="-16" type="curve" smooth="yes"/>
			<point x="572" y="-16"/>
			<point x="676" y="46"/>
			<point x="715" y="150" type="curve"/>
			<point x="719" y="150" type="line"/>
			<point x="729" y="0" type="line"/>
			<point x="764" y="0" type="line"/>
		</contour>
	</outline>
</glyph>
<glyph name="J.ss03" format="2">
	<advance width="445"/>
	<outline>
		<contour>
			<point x="339" y="183" type="curve" smooth="yes"/>
			<point x="339" y="800" type="line"/>
			<point x="284" y="800" type="line"/>
			<point x="284" y="188" type="line" smooth="yes"/>
			<point x="284" y="95"/>
			<point x="223" y="40"/>
			<point x="136" y="40" type="curve" smooth="yes"/>
			<point x="109" y="40"/>
			<point x="78" y="44"/>
			<point x="54" y="50" type="curve"/>
			<point x="54" y="0" type="line"/>
			<point x="76" y="-6"/>
			<point x="107" y="-10"/>
			<point x="136" y="-10" type="curve" smooth="yes"/>
			<point x="257" y="-10"/>
			<point x="339" y="62"/>
		</contour>
	</outline>
</glyph>
<glyph name="K.ss04" format="2">
	<advance width="667"/>
	<anchor x="354" y="800" name="top"/>
	<anchor x="354" y="0" name="bottom"/>
	<outline>
		<contour>
			<point x="106" y="0" type="line"/>
			<point x="161" y="0" type="line"/>
			<point x="161" y="368" type="line"/>
			<point x="158" y="394" type="line"/>
			<point x="162" y="394" type="line"/>
			<point x="181" y="368" type="line"/>
			<point x="539" y="0" type="line"/>
			<point x="619" y="0" type="line"/>
			<point x="208" y="417" type="line"/>
			<point x="592" y="800" type="line"/>
			<point x="512" y="800" type="line"/>
			<point x="181" y="464" type="line"/>
			<point x="162" y="438" type="line"/>
			<point x="158" y="438" type="line"/>
			<point x="161" y="464" type="line"/>
			<point x="161" y="800" type="line"/>
			<point x="106" y="800" type="line"/>
		</contour>
	</outline>
</glyph>
<glyph name="R.ss05" format="2">
	<advance width="738"/>
	<anchor x="374" y="800" name="top"/>
	<anchor x="374" y="0" name="bottom"/>
	<outline>
		<contour>
			<point x="106" y="0" type="line"/>
			<point x="161" y="0" type="line"/>
			<point x="161" y="390" type="line"/>
			<point x="426" y="390" type="line" smooth="yes"/>
			<point x="539" y="390"/>
			<point x="605" y="330"/>
			<point x="605" y="229" type="curve" smooth="yes"/>
			<point x="605" y="80" type="line" smooth="yes"/>
			<point x="605" y="42"/>
			<point x="611" y="13"/>
			<point x="622" y="0" type="curve"/>
			<point x="681" y="0" type="line"/>
			<point x="683" y="4" type="line"/>
			<point x="672" y="28"/>
			<point x="665" y="59"/>
			<point x="665" y="89" type="curve" smooth="yes"/>
			<point x="665" y="229" type="line" smooth="yes"/>
			<point x="665" y="324"/>
			<point x="612" y="392"/>
			<point x="522" y="410" type="curve"/>
			<point x="522" y="414" type="line"/>
			<point x="606" y="434"/>
			<point x="655" y="499"/>
			<point x="655" y="590" type="curve" smooth="yes"/>
			<point x="655" y="599" type="line" smooth="yes"/>
			<point x="655" y="725"/>
			<point x="572" y="800"/>
			<point x="431" y="800" type="curve" smooth="yes"/>
			<point x="106" y="800" type="line"/>
		</contour>
		<contour>
			<point x="161" y="440" type="line"/>
			<point x="161" y="750" type="line"/>
			<point x="430" y="750" type="line" smooth="yes"/>
			<point x="537" y="750"/>
			<point x="600" y="694"/>
			<point x="600" y="599" type="curve" smooth="yes"/>
			<point x="600" y="590" type="line" smooth="yes"/>
			<point x="600" y="496"/>
			<point x="538" y="440"/>
			<point x="434" y="440" type="curve" smooth="yes"/>
		</contour>
	</outline>
</glyph>
<glyph name="a.sc" format="2">
	<advance width="721"/>
	<anchor x="673" y="10" name="ogonek"/>
	<anchor x="361" y="0" name="bottom"/>
	<anchor x="361" y="620" name="top"/>
	<outline>
		<contour>
			<point x="673" y="0" type="line"/>
			<point x="387" y="620" type="line"/>
			<point x="323" y="620" type="line"/>
			<point x="54" y="0" type="line"/>
			<point x="114" y="0" type="line"/>
			<point x="332" y="504" type="line"/>
			<point x="354" y="570" type="line"/>
			<point x="358" y="570" type="line"/>
			<point x="380" y="504" type="line"/>
			<point x="611" y="0" type="line"/>
		</contour>
		<contour>
			<point x="176" y="230" type="line"/>
			<point x="176" y="180" type="line"/>
			<point x="551" y="180" type="line"/>
			<point x="551" y="230" type="line"/>
		</contour>
	</outline>
</glyph>
<glyph name="a.ss01" format="2">
	<advance width="612"/>
	<anchor x="550" y="10" name="ogonek"/>
	<anchor x="284" y="0" name="bottom"/>
	<anchor x="312" y="590" name="top"/>
	<outline>
		<contour>
			<point x="484" y="110" type="line" smooth="yes"/>
			<point x="484" y="68"/>
			<point x="490" y="27"/>
			<point x="501" y="0" type="curve"/>
			<point x="550" y="0" type="line"/>
			<point x="552" y="4" type="line"/>
			<point x="541" y="35"/>
			<point x="534" y="77"/>
			<point x="534" y="119" type="curve" smooth="yes"/>
			<point x="534" y="590" type="line"/>
			<point x="489" y="590" type="line"/>
			<point x="484" y="480" type="line"/>
		</contour>
		<contour>
			<point x="499" y="454" type="line"/>
			<point x="479" y="548"/>
			<point x="399" y="606"/>
			<point x="289" y="606" type="curve" smooth="yes"/>
			<point x="141" y="606"/>
			<point x="50" y="490"/>
			<point x="50" y="301" type="curve" smooth="yes"/>
			<point x="50" y="290" type="line" smooth="yes"/>
			<point x="50" y="100"/>
			<point x="140" y="-16"/>
			<point x="287" y="-16" type="curve" smooth="yes"/>
			<point x="398" y="-16"/>
			<point x="479" y="42"/>
			<point x="499" y="136" type="curve"/>
			<point x="499" y="255" type="line"/>
			<point x="484" y="255" type="line"/>
			<point x="484" y="115"/>
			<point x="408" y="29"/>
			<point x="284" y="29" type="curve" smooth="yes"/>
			<point x="171" y="29"/>
			<point x="102" y="126"/>
			<point x="102" y="284" type="curve" smooth="yes"/>
			<point x="102" y="301" type="line" smooth="yes"/>
			<point x="102" y="462"/>
			<point x="172" y="561"/>
			<point x="292" y="561" type="curve" smooth="yes"/>
			<point x="411" y="561"/>
			<point x="484" y="475"/>
			<point x="484" y="335" type="curve"/>
			<point x="499" y="335" type="line"/>
		</contour>
	</outline>
</glyph>
<glyph name="ae.sc" format="2">
	<advance width="995"/>
	<outline>
		<contour>
			<point x="54" y="0" type="line"/>
			<point x="114" y="0" type="line"/>
			<point x="362" y="570" type="line"/>
			<point x="465" y="570" type="line"/>
			<point x="465" y="0" type="line"/>
			<point x="930" y="0" type="line"/>
			<point x="930" y="50" type="line"/>
			<point x="520" y="50" type="line"/>
			<point x="520" y="320" type="line"/>
			<point x="840" y="320" type="line"/>
			<point x="840" y="370" type="line"/>
			<point x="520" y="370" type="line"/>
			<point x="520" y="570" type="line"/>
			<point x="910" y="570" type="line"/>
			<point x="910" y="620" type="line"/>
			<point x="323" y="620" type="line"/>
		</contour>
		<contour>
			<point x="176" y="230" type="line"/>
			<point x="176" y="180" type="line"/>
			<point x="491" y="180" type="line"/>
			<point x="491" y="230" type="line"/>
		</contour>
	</outline>
</glyph>
<glyph name="b.sc" format="2">
	<advance width="621"/>
	<outline>
		<contour>
			<point x="65" y="0" type="line"/>
			<point x="366" y="0" type="line" smooth="yes"/>
			<point x="492" y="0"/>
			<point x="566" y="66"/>
			<point x="566" y="177" type="curve" smooth="yes"/>
			<point x="566" y="182" type="line" smooth="yes"/>
			<point x="566" y="267"/>
			<point x="516" y="325"/>
			<point x="431" y="338" type="curve"/>
			<point x="431" y="342" type="line"/>
			<point x="484" y="354"/>
			<point x="516" y="399"/>
			<point x="516" y="462" type="curve" smooth="yes"/>
			<point x="516" y="467" type="line" smooth="yes"/>
			<point x="516" y="563"/>
			<point x="453" y="620"/>
			<point x="346" y="620" type="curve" smooth="yes"/>
			<point x="65" y="620" type="line"/>
		</contour>
		<contour>
			<point x="120" y="50" type="line"/>
			<point x="120" y="310" type="line"/>
			<point x="366" y="310" type="line" smooth="yes"/>
			<point x="456" y="310"/>
			<point x="509" y="262"/>
			<point x="509" y="182" type="curve" smooth="yes"/>
			<point x="509" y="177" type="line" smooth="yes"/>
			<point x="509" y="97"/>
			<point x="456" y="50"/>
			<point x="366" y="50" type="curve" smooth="yes"/>
		</contour>
		<contour>
			<point x="120" y="360" type="line"/>
			<point x="120" y="570" type="line"/>
			<point x="346" y="570" type="line" smooth="yes"/>
			<point x="417" y="570"/>
			<point x="459" y="532"/>
			<point x="459" y="467" type="curve" smooth="yes"/>
			<point x="459" y="462" type="line" smooth="yes"/>
			<point x="459" y="398"/>
			<point x="417" y="360"/>
			<point x="346" y="360" type="curve" smooth="yes"/>
		</contour>
	</outline>
</glyph>
<glyph name="c.sc" format="2">
	<advance width="698"/>
	<anchor x="356" y="620" name="top"/>
	<anchor x="356" y="0" name="bottom"/>
	<outline>
		<contour>
			<point x="633" y="198" type="line"/>
			<point x="580" y="202" type="line"/>
			<point x="578" y="190" type="line" smooth="yes"/>
			<point x="562" y="93"/>
			<point x="480" y="36"/>
			<point x="357" y="36" type="curve" smooth="yes"/>
			<point x="200" y="36"/>
			<point x="107" y="133"/>
			<point x="107" y="296" type="curve" smooth="yes"/>
			<point x="107" y="319" type="line" smooth="yes"/>
			<point x="107" y="486"/>
			<point x="198" y="584"/>
			<point x="353" y="584" type="curve" smooth="yes"/>
			<point x="471" y="584"/>
			<point x="550" y="531"/>
			<point x="565" y="440" type="curve" smooth="yes"/>
			<point x="567" y="428" type="line"/>
			<point x="620" y="432" type="line"/>
			<point x="618" y="444" type="line" smooth="yes"/>
			<point x="598" y="565"/>
			<point x="500" y="636"/>
			<point x="353" y="636" type="curve" smooth="yes"/>
			<point x="163" y="636"/>
			<point x="50" y="518"/>
			<point x="50" y="319" type="curve" smooth="yes"/>
			<point x="50" y="304" type="line" smooth="yes"/>
			<point x="50" y="103"/>
			<point x="164" y="-16"/>
			<point x="356" y="-16" type="curve" smooth="yes"/>
			<point x="508" y="-16"/>
			<point x="610" y="59"/>
			<point x="631" y="186" type="curve" smooth="yes"/>
		</contour>
	</outline>
</glyph>
<glyph name="caroncomb.alt" format="2">
	<advance width="106"/>
	<anchor x="9" y="820" name="_topright"/>
	<outline>
		<contour>
			<point x="34" y="650" type="line"/>
			<point x="72" y="650" type="line"/>
			<point x="94" y="754" type="line"/>
			<point x="94" y="820" type="line"/>
			<point x="34" y="820" type="line"/>
		</contour>
	</outline>
</glyph>
<glyph name="circumflexcomb.alt" format="2">
	<advance width="186"/>
	<anchor x="93" y="800" name="top"/>
	<anchor x="93" y="590" name="_top"/>
	<outline>
		<contour>
			<point x="0" y="670" type="line"/>
			<point x="51" y="670" type="line"/>
			<point x="87" y="737" type="line"/>
			<point x="91" y="757" type="line"/>
			<point x="95" y="757" type="line"/>
			<point x="99" y="737" type="line"/>
			<point x="135" y="670" type="line"/>
			<point x="186" y="670" type="line"/>
			<point x="127" y="780" type="line"/>
			<point x="59" y="780" type="line"/>
		</contour>
	</outline>
</glyph>
<glyph name="d.sc" format="2">
	<advance width="689"/>
	<anchor x="345" y="310" name="center"/>
	<anchor x="315" y="0" name="bottom"/>
	<anchor x="315" y="620" name="top"/>
	<outline>
		<contour>
			<point x="70" y="0" type="line"/>
			<point x="320" y="0" type="line" smooth="yes"/>
			<point x="511" y="0"/>
			<point x="624" y="112"/>
			<point x="624" y="302" type="curve" smooth="yes"/>
			<point x="624" y="317" type="line" smooth="yes"/>
			<point x="624" y="507"/>
			<point x="510" y="620"/>
			<point x="318" y="620" type="curve" smooth="yes"/>
			<point x="70" y="620" type="line"/>
		</contour>
		<contour>
			<point x="125" y="50" type="line"/>
			<point x="125" y="570" type="line"/>
			<point x="317" y="570" type="line" smooth="yes"/>
			<point x="474" y="570"/>
			<point x="567" y="479"/>
			<point x="567" y="325" type="curve" smooth="yes"/>
			<point x="567" y="302" type="line" smooth="yes"/>
			<point x="567" y="144"/>
			<point x="476" y="50"/>
			<point x="321" y="50" type="curve" smooth="yes"/>
		</contour>
	</outline>
</glyph>
<glyph name="dieresiscomb.alt" format="2">
	<advance width="348"/>
	<anchor x="174" y="780" name="top"/>
	<anchor x="174" y="590" name="_top"/>
	<outline>
		<contour>
			<point x="119" y="780" type="line"/>
			<point x="119" y="680" type="line"/>
			<point x="179" y="680" type="line"/>
			<point x="179" y="780" type="line"/>
		</contour>
		<contour>
			<point x="254" y="780" type="line"/>
			<point x="254" y="680" type="line"/>
			<point x="314" y="680" type="line"/>
			<point x="314" y="780" type="line"/>
		</contour>
	</outline>
</glyph>
<glyph name="e.sc" format="2">
	<advance width="625"/>
	<anchor x="560" y="10" name="ogonek"/>
	<anchor x="304" y="620" name="top"/>
	<anchor x="20" y="620" name="topleft"/>
	<anchor x="304" y="0" name="bottom"/>
	<outline>
		<contour>
			<point x="65" y="0" type="line"/>
			<point x="560" y="0" type="line"/>
			<point x="560" y="50" type="line"/>
			<point x="120" y="50" type="line"/>
			<point x="120" y="320" type="line"/>
			<point x="470" y="320" type="line"/>
			<point x="470" y="370" type="line"/>
			<point x="120" y="370" type="line"/>
			<point x="120" y="570" type="line"/>
			<point x="540" y="570" type="line"/>
			<point x="540" y="620" type="line"/>
			<point x="65" y="620" type="line"/>
		</contour>
	</outline>
</glyph>
<glyph name="eng.sc" format="2">
	<advance width="765"/>
	<outline>
		<contour>
			<point x="659" y="36" type="line"/>
			<point x="606" y="36" type="line"/>
			<point x="606" y="-2" type="line" smooth="yes"/>
			<point x="606" y="-89"/>
			<point x="558" y="-140"/>
			<point x="478" y="-140" type="curve" smooth="yes"/>
			<point x="453" y="-140"/>
			<point x="422" y="-136"/>
			<point x="396" y="-130" type="curve"/>
			<point x="396" y="-180" type="line"/>
			<point x="420" y="-186"/>
			<point x="451" y="-190"/>
			<point x="478" y="-190" type="curve" smooth="yes"/>
			<point x="592" y="-190"/>
			<point x="659" y="-122"/>
			<point x="659" y="-7" type="curve" smooth="yes"/>
		</contour>
		<component base="n.sc" xOffset="41"/>
	</outline>
</glyph>
<glyph name="eth.sc" format="2">
	<advance width="724"/>
	<outline>
		<contour>
			<point x="46" y="355" type="line"/>
			<point x="26" y="305" type="line"/>
			<point x="276" y="305" type="line"/>
			<point x="296" y="355" type="line"/>
		</contour>
		<component base="d.sc" xOffset="35"/>
	</outline>
</glyph>
<glyph name="f.sc" format="2">
	<advance width="610"/>
	<outline>
		<contour>
			<point x="65" y="0" type="line"/>
			<point x="120" y="0" type="line"/>
			<point x="120" y="320" type="line"/>
			<point x="470" y="320" type="line"/>
			<point x="470" y="370" type="line"/>
			<point x="120" y="370" type="line"/>
			<point x="120" y="570" type="line"/>
			<point x="540" y="570" type="line"/>
			<point x="540" y="620" type="line"/>
			<point x="65" y="620" type="line"/>
		</contour>
	</outline>
</glyph>
<glyph name="f_f_idotless" format="2">
	<advance width="820"/>
	<anchor x="735" y="10" name="ogonek"/>
	<anchor x="710" y="0" name="bottom"/>
	<anchor x="710" y="590" name="top"/>
	<outline>
		<contour>
			<point x="145" y="0" type="line"/>
			<point x="195" y="0" type="line"/>
			<point x="195" y="722" type="line" smooth="yes"/>
			<point x="195" y="758"/>
			<point x="217" y="780"/>
			<point x="253" y="780" type="curve" smooth="yes"/>
			<point x="274" y="780"/>
			<point x="297" y="779"/>
			<point x="315" y="777" type="curve"/>
			<point x="315" y="820" type="line"/>
			<point x="297" y="823"/>
			<point x="275" y="825"/>
			<point x="257" y="825" type="curve" smooth="yes"/>
			<point x="187" y="825"/>
			<point x="145" y="789"/>
			<point x="145" y="727" type="curve" smooth="yes"/>
		</contour>
		<contour>
			<point x="415" y="0" type="line"/>
			<point x="465" y="0" type="line"/>
			<point x="465" y="722" type="line" smooth="yes"/>
			<point x="465" y="758"/>
			<point x="487" y="780"/>
			<point x="523" y="780" type="curve" smooth="yes"/>
			<point x="544" y="780"/>
			<point x="567" y="779"/>
			<point x="585" y="777" type="curve"/>
			<point x="585" y="820" type="line"/>
			<point x="567" y="823"/>
			<point x="545" y="825"/>
			<point x="527" y="825" type="curve" smooth="yes"/>
			<point x="457" y="825"/>
			<point x="415" y="789"/>
			<point x="415" y="727" type="curve" smooth="yes"/>
		</contour>
		<contour>
			<point x="25" y="545" type="line"/>
			<point x="685" y="545" type="line"/>
			<point x="685" y="0" type="line"/>
			<point x="735" y="0" type="line"/>
			<point x="735" y="590" type="line"/>
			<point x="25" y="590" type="line"/>
		</contour>
	</outline>
</glyph>
<glyph name="f_f_jdotless" format="2">
	<advance width="820"/>
	<anchor x="710" y="590" name="top"/>
	<anchor x="710" y="-180" name="bottom"/>
	<outline>
		<contour>
			<point x="145" y="0" type="line"/>
			<point x="195" y="0" type="line"/>
			<point x="195" y="722" type="line" smooth="yes"/>
			<point x="195" y="758"/>
			<point x="217" y="780"/>
			<point x="253" y="780" type="curve" smooth="yes"/>
			<point x="274" y="780"/>
			<point x="297" y="779"/>
			<point x="315" y="777" type="curve"/>
			<point x="315" y="820" type="line"/>
			<point x="297" y="823"/>
			<point x="275" y="825"/>
			<point x="257" y="825" type="curve" smooth="yes"/>
			<point x="187" y="825"/>
			<point x="145" y="789"/>
			<point x="145" y="727" type="curve" smooth="yes"/>
		</contour>
		<contour>
			<point x="415" y="0" type="line"/>
			<point x="465" y="0" type="line"/>
			<point x="465" y="722" type="line" smooth="yes"/>
			<point x="465" y="758"/>
			<point x="487" y="780"/>
			<point x="523" y="780" type="curve" smooth="yes"/>
			<point x="544" y="780"/>
			<point x="567" y="779"/>
			<point x="585" y="777" type="curve"/>
			<point x="585" y="820" type="line"/>
			<point x="567" y="823"/>
			<point x="545" y="825"/>
			<point x="527" y="825" type="curve" smooth="yes"/>
			<point x="457" y="825"/>
			<point x="415" y="789"/>
			<point x="415" y="727" type="curve" smooth="yes"/>
		</contour>
		<contour>
			<point x="25" y="545" type="line"/>
			<point x="685" y="545" type="line"/>
			<point x="685" y="-82" type="line" smooth="yes"/>
			<point x="685" y="-118"/>
			<point x="663" y="-140"/>
			<point x="627" y="-140" type="curve" smooth="yes"/>
			<point x="606" y="-140"/>
			<point x="583" y="-139"/>
			<point x="565" y="-137" type="curve"/>
			<point x="565" y="-180" type="line"/>
			<point x="583" y="-183"/>
			<point x="605" y="-185"/>
			<point x="623" y="-185" type="curve" smooth="yes"/>
			<point x="693" y="-185"/>
			<point x="735" y="-149"/>
			<point x="735" y="-87" type="curve" smooth="yes"/>
			<point x="735" y="590" type="line"/>
			<point x="25" y="590" type="line"/>
		</contour>
	</outline>
</glyph>
<glyph name="f_f_t" format="2">
	<advance width="905"/>
	<anchor x="690" y="295" name="center"/>
	<anchor x="690" y="590" name="top"/>
	<anchor x="815" y="820" name="topright"/>
	<anchor x="757" y="0" name="bottom"/>
	<outline>
		<contour>
			<point x="145" y="0" type="line"/>
			<point x="195" y="0" type="line"/>
			<point x="195" y="722" type="line" smooth="yes"/>
			<point x="195" y="758"/>
			<point x="217" y="780"/>
			<point x="253" y="780" type="curve" smooth="yes"/>
			<point x="274" y="780"/>
			<point x="297" y="779"/>
			<point x="315" y="777" type="curve"/>
			<point x="315" y="820" type="line"/>
			<point x="297" y="823"/>
			<point x="275" y="825"/>
			<point x="257" y="825" type="curve" smooth="yes"/>
			<point x="187" y="825"/>
			<point x="145" y="789"/>
			<point x="145" y="727" type="curve" smooth="yes"/>
		</contour>
		<contour>
			<point x="415" y="0" type="line"/>
			<point x="465" y="0" type="line"/>
			<point x="465" y="722" type="line" smooth="yes"/>
			<point x="465" y="758"/>
			<point x="487" y="780"/>
			<point x="523" y="780" type="curve" smooth="yes"/>
			<point x="544" y="780"/>
			<point x="567" y="779"/>
			<point x="585" y="777" type="curve"/>
			<point x="585" y="820" type="line"/>
			<point x="567" y="823"/>
			<point x="545" y="825"/>
			<point x="527" y="825" type="curve" smooth="yes"/>
			<point x="457" y="825"/>
			<point x="415" y="789"/>
			<point x="415" y="727" type="curve" smooth="yes"/>
		</contour>
		<contour>
			<point x="665" y="93" type="line" smooth="yes"/>
			<point x="665" y="31"/>
			<point x="707" y="-5"/>
			<point x="777" y="-5" type="curve" smooth="yes"/>
			<point x="795" y="-5"/>
			<point x="817" y="-3"/>
			<point x="835" y="0" type="curve"/>
			<point x="835" y="43" type="line"/>
			<point x="817" y="41"/>
			<point x="794" y="40"/>
			<point x="773" y="40" type="curve" smooth="yes"/>
			<point x="737" y="40"/>
			<point x="715" y="62"/>
			<point x="715" y="98" type="curve" smooth="yes"/>
			<point x="715" y="740" type="line"/>
			<point x="695" y="740" type="line"/>
			<point x="665" y="690" type="line"/>
		</contour>
		<contour>
			<point x="25" y="590" type="line"/>
			<point x="25" y="545" type="line"/>
			<point x="835" y="545" type="line"/>
			<point x="835" y="590" type="line"/>
		</contour>
	</outline>
</glyph>
<glyph name="f_idotless" format="2">
	<advance width="550"/>
	<anchor x="465" y="10" name="ogonek"/>
	<anchor x="440" y="0" name="bottom"/>
	<anchor x="440" y="590" name="top"/>
	<outline>
		<contour>
			<point x="145" y="0" type="line"/>
			<point x="195" y="0" type="line"/>
			<point x="195" y="722" type="line" smooth="yes"/>
			<point x="195" y="758"/>
			<point x="217" y="780"/>
			<point x="253" y="780" type="curve" smooth="yes"/>
			<point x="275" y="780"/>
			<point x="298" y="779"/>
			<point x="315" y="777" type="curve"/>
			<point x="315" y="820" type="line"/>
			<point x="297" y="823"/>
			<point x="275" y="825"/>
			<point x="257" y="825" type="curve" smooth="yes"/>
			<point x="187" y="825"/>
			<point x="145" y="789"/>
			<point x="145" y="727" type="curve" smooth="yes"/>
		</contour>
		<contour>
			<point x="25" y="545" type="line"/>
			<point x="415" y="545" type="line"/>
			<point x="415" y="0" type="line"/>
			<point x="465" y="0" type="line"/>
			<point x="465" y="590" type="line"/>
			<point x="25" y="590" type="line"/>
		</contour>
	</outline>
</glyph>
<glyph name="f_jdotless" format="2">
	<advance width="545"/>
	<anchor x="435" y="590" name="top"/>
	<anchor x="435" y="-180" name="bottom"/>
	<outline>
		<contour>
			<point x="145" y="0" type="line"/>
			<point x="195" y="0" type="line"/>
			<point x="195" y="722" type="line" smooth="yes"/>
			<point x="195" y="758"/>
			<point x="217" y="780"/>
			<point x="253" y="780" type="curve" smooth="yes"/>
			<point x="274" y="780"/>
			<point x="297" y="779"/>
			<point x="315" y="777" type="curve"/>
			<point x="315" y="820" type="line"/>
			<point x="297" y="823"/>
			<point x="275" y="825"/>
			<point x="257" y="825" type="curve" smooth="yes"/>
			<point x="187" y="825"/>
			<point x="145" y="789"/>
			<point x="145" y="727" type="curve" smooth="yes"/>
		</contour>
		<contour>
			<point x="25" y="545" type="line"/>
			<point x="410" y="545" type="line"/>
			<point x="410" y="-82" type="line" smooth="yes"/>
			<point x="410" y="-118"/>
			<point x="388" y="-140"/>
			<point x="352" y="-140" type="curve" smooth="yes"/>
			<point x="331" y="-140"/>
			<point x="308" y="-139"/>
			<point x="290" y="-137" type="curve"/>
			<point x="290" y="-180" type="line"/>
			<point x="308" y="-183"/>
			<point x="330" y="-185"/>
			<point x="348" y="-185" type="curve" smooth="yes"/>
			<point x="418" y="-185"/>
			<point x="460" y="-149"/>
			<point x="460" y="-87" type="curve" smooth="yes"/>
			<point x="460" y="590" type="line"/>
			<point x="25" y="590" type="line"/>
		</contour>
	</outline>
</glyph>
<glyph name="f_t" format="2">
	<advance width="635"/>
	<anchor x="420" y="295" name="center"/>
	<anchor x="420" y="590" name="top"/>
	<anchor x="545" y="820" name="topright"/>
	<anchor x="487" y="0" name="bottom"/>
	<outline>
		<contour>
			<point x="145" y="0" type="line"/>
			<point x="195" y="0" type="line"/>
			<point x="195" y="722" type="line" smooth="yes"/>
			<point x="195" y="758"/>
			<point x="217" y="780"/>
			<point x="253" y="780" type="curve" smooth="yes"/>
			<point x="274" y="780"/>
			<point x="297" y="779"/>
			<point x="315" y="777" type="curve"/>
			<point x="315" y="820" type="line"/>
			<point x="297" y="823"/>
			<point x="275" y="825"/>
			<point x="257" y="825" type="curve" smooth="yes"/>
			<point x="187" y="825"/>
			<point x="145" y="789"/>
			<point x="145" y="727" type="curve" smooth="yes"/>
		</contour>
		<contour>
			<point x="395" y="93" type="line" smooth="yes"/>
			<point x="395" y="31"/>
			<point x="437" y="-5"/>
			<point x="507" y="-5" type="curve" smooth="yes"/>
			<point x="525" y="-5"/>
			<point x="547" y="-3"/>
			<point x="565" y="0" type="curve"/>
			<point x="565" y="43" type="line"/>
			<point x="547" y="41"/>
			<point x="524" y="40"/>
			<point x="503" y="40" type="curve" smooth="yes"/>
			<point x="467" y="40"/>
			<point x="445" y="62"/>
			<point x="445" y="98" type="curve" smooth="yes"/>
			<point x="445" y="740" type="line"/>
			<point x="425" y="740" type="line"/>
			<point x="395" y="690" type="line"/>
		</contour>
		<contour>
			<point x="25" y="590" type="line"/>
			<point x="25" y="545" type="line"/>
			<point x="565" y="545" type="line"/>
			<point x="565" y="590" type="line"/>
		</contour>
	</outline>
</glyph>
<glyph name="f_tbar" format="2">
	<advance width="635"/>
	<outline>
		<contour>
			<point x="290" y="305" type="line"/>
			<point x="540" y="305" type="line"/>
			<point x="560" y="350" type="line"/>
			<point x="310" y="350" type="line"/>
		</contour>
		<component base="f_t"/>
	</outline>
</glyph>
<glyph name="g.sc" format="2">
	<advance width="690"/>
	<anchor x="345" y="620" name="top"/>
	<anchor x="355" y="0" name="bottom"/>
	<outline>
		<contour>
			<point x="625" y="335" type="line"/>
			<point x="362" y="335" type="line"/>
			<point x="362" y="285" type="line"/>
			<point x="570" y="285" type="line"/>
			<point x="570" y="276" type="line" smooth="yes"/>
			<point x="570" y="125"/>
			<point x="491" y="36"/>
			<point x="357" y="36" type="curve" smooth="yes"/>
			<point x="200" y="36"/>
			<point x="107" y="133"/>
			<point x="107" y="296" type="curve" smooth="yes"/>
			<point x="107" y="319" type="line" smooth="yes"/>
			<point x="107" y="486"/>
			<point x="198" y="584"/>
			<point x="353" y="584" type="curve" smooth="yes"/>
			<point x="465" y="584"/>
			<point x="540" y="531"/>
			<point x="555" y="440" type="curve" smooth="yes"/>
			<point x="557" y="428" type="line"/>
			<point x="610" y="432" type="line"/>
			<point x="608" y="444" type="line" smooth="yes"/>
			<point x="588" y="565"/>
			<point x="494" y="636"/>
			<point x="354" y="636" type="curve" smooth="yes"/>
			<point x="163" y="636"/>
			<point x="50" y="518"/>
			<point x="50" y="319" type="curve" smooth="yes"/>
			<point x="50" y="304" type="line" smooth="yes"/>
			<point x="50" y="103"/>
			<point x="164" y="-16"/>
			<point x="356" y="-16" type="curve" smooth="yes"/>
			<point x="525" y="-16"/>
			<point x="625" y="92"/>
			<point x="625" y="276" type="curve" smooth="yes"/>
		</contour>
	</outline>
</glyph>
<glyph name="g.sc.ss02" format="2">
	<advance width="690"/>
	<anchor x="343" y="620" name="top"/>
	<anchor x="353" y="0" name="bottom"/>
	<outline>
		<contour>
			<point x="356" y="-16" type="curve" smooth="yes"/>
			<point x="465" y="-16"/>
			<point x="546" y="31"/>
			<point x="576" y="110" type="curve"/>
			<point x="580" y="110" type="line"/>
			<point x="590" y="0" type="line"/>
			<point x="625" y="0" type="line"/>
			<point x="625" y="335" type="line"/>
			<point x="362" y="335" type="line"/>
			<point x="362" y="285" type="line"/>
			<point x="570" y="285" type="line"/>
			<point x="570" y="276" type="line" smooth="yes"/>
			<point x="570" y="125"/>
			<point x="491" y="36"/>
			<point x="357" y="36" type="curve" smooth="yes"/>
			<point x="200" y="36"/>
			<point x="107" y="133"/>
			<point x="107" y="296" type="curve" smooth="yes"/>
			<point x="107" y="319" type="line" smooth="yes"/>
			<point x="107" y="486"/>
			<point x="198" y="584"/>
			<point x="353" y="584" type="curve" smooth="yes"/>
			<point x="465" y="584"/>
			<point x="540" y="531"/>
			<point x="555" y="440" type="curve" smooth="yes"/>
			<point x="557" y="428" type="line"/>
			<point x="610" y="432" type="line"/>
			<point x="608" y="444" type="line" smooth="yes"/>
			<point x="588" y="565"/>
			<point x="494" y="636"/>
			<point x="354" y="636" type="curve" smooth="yes"/>
			<point x="163" y="636"/>
			<point x="50" y="518"/>
			<point x="50" y="319" type="curve" smooth="yes"/>
			<point x="50" y="304" type="line" smooth="yes"/>
			<point x="50" y="103"/>
			<point x="164" y="-16"/>
		</contour>
	</outline>
</glyph>
<glyph name="g.ss02" format="2">
	<advance width="596"/>
	<anchor x="277" y="590" name="top"/>
	<anchor x="294" y="-180" name="bottom"/>
	<outline>
		<contour>
			<point x="79" y="414" type="line" smooth="yes"/>
			<point x="79" y="306"/>
			<point x="161" y="230"/>
			<point x="277" y="230" type="curve" smooth="yes"/>
			<point x="393" y="230"/>
			<point x="475" y="305"/>
			<point x="475" y="412" type="curve" smooth="yes"/>
			<point x="475" y="422" type="line" smooth="yes"/>
			<point x="475" y="530"/>
			<point x="393" y="606"/>
			<point x="278" y="606" type="curve" smooth="yes"/>
			<point x="161" y="606"/>
			<point x="79" y="531"/>
			<point x="79" y="424" type="curve" smooth="yes"/>
		</contour>
		<contour>
			<point x="131" y="412" type="curve" smooth="yes"/>
			<point x="131" y="422" type="line" smooth="yes"/>
			<point x="131" y="503"/>
			<point x="191" y="561"/>
			<point x="277" y="561" type="curve" smooth="yes"/>
			<point x="363" y="561"/>
			<point x="423" y="504"/>
			<point x="423" y="424" type="curve" smooth="yes"/>
			<point x="423" y="414" type="line" smooth="yes"/>
			<point x="423" y="333"/>
			<point x="363" y="275"/>
			<point x="278" y="275" type="curve" smooth="yes"/>
			<point x="192" y="275"/>
			<point x="131" y="332"/>
		</contour>
		<contour>
			<point x="181" y="279" type="line"/>
			<point x="143" y="263"/>
			<point x="121" y="230"/>
			<point x="121" y="191" type="curve" smooth="yes"/>
			<point x="121" y="137"/>
			<point x="162" y="98"/>
			<point x="232" y="86" type="curve" smooth="yes"/>
			<point x="353" y="65" type="line" smooth="yes"/>
			<point x="435" y="51"/>
			<point x="484" y="13"/>
			<point x="484" y="-37" type="curve" smooth="yes"/>
			<point x="484" y="-109"/>
			<point x="413" y="-151"/>
			<point x="294" y="-151" type="curve" smooth="yes"/>
			<point x="173" y="-151"/>
			<point x="102" y="-101"/>
			<point x="102" y="-17" type="curve" smooth="yes"/>
			<point x="102" y="38"/>
			<point x="136" y="82"/>
			<point x="194" y="101" type="curve"/>
			<point x="171" y="125" type="line"/>
			<point x="95" y="102"/>
			<point x="50" y="47"/>
			<point x="50" y="-22" type="curve" smooth="yes"/>
			<point x="50" y="-131"/>
			<point x="141" y="-196"/>
			<point x="294" y="-196" type="curve" smooth="yes"/>
			<point x="446" y="-196"/>
			<point x="536" y="-136"/>
			<point x="536" y="-34" type="curve" smooth="yes"/>
			<point x="536" y="37"/>
			<point x="471" y="91"/>
			<point x="361" y="110" type="curve" smooth="yes"/>
			<point x="240" y="131" type="line" smooth="yes"/>
			<point x="197" y="138"/>
			<point x="171" y="162"/>
			<point x="171" y="196" type="curve" smooth="yes"/>
			<point x="171" y="222"/>
			<point x="184" y="244"/>
			<point x="206" y="255" type="curve"/>
		</contour>
		<contour>
			<point x="384" y="545" type="curve"/>
			<point x="412" y="520" type="line"/>
			<point x="432" y="551"/>
			<point x="479" y="570"/>
			<point x="536" y="570" type="curve"/>
			<point x="536" y="620" type="line"/>
			<point x="475" y="620"/>
			<point x="417" y="592"/>
		</contour>
	</outline>
</glyph>
<glyph name="h.sc" format="2">
	<advance width="675"/>
	<outline>
		<contour>
			<point x="65" y="0" type="line"/>
			<point x="120" y="0" type="line"/>
			<point x="120" y="300" type="line"/>
			<point x="540" y="300" type="line"/>
			<point x="540" y="0" type="line"/>
			<point x="595" y="0" type="line"/>
			<point x="595" y="620" type="line"/>
			<point x="540" y="620" type="line"/>
			<point x="540" y="350" type="line"/>
			<point x="120" y="350" type="line"/>
			<point x="120" y="620" type="line"/>
			<point x="65" y="620" type="line"/>
		</contour>
	</outline>
</glyph>
<glyph name="hbar.sc" format="2">
	<advance width="742"/>
	<outline>
		<contour>
			<point x="71" y="490" type="line"/>
			<point x="51" y="440" type="line"/>
			<point x="671" y="440" type="line"/>
			<point x="691" y="490" type="line"/>
		</contour>
		<component base="h.sc" xOffset="41"/>
	</outline>
</glyph>
<glyph name="i.sc" format="2">
	<advance width="200"/>
	<anchor x="120" y="10" name="ogonek"/>
	<anchor x="93" y="620" name="top"/>
	<anchor x="15" y="620" name="topleft"/>
	<anchor x="93" y="0" name="bottom"/>
	<outline>
		<contour>
			<point x="120" y="620" type="line"/>
			<point x="65" y="620" type="line"/>
			<point x="65" y="0" type="line"/>
			<point x="120" y="0" type="line"/>
		</contour>
	</outline>
</glyph>
<glyph name="j.sc" format="2">
	<advance width="604"/>
	<outline>
		<contour>
			<point x="109" y="225" type="line"/>
			<point x="54" y="220" type="line"/>
			<point x="54" y="204" type="line" smooth="yes"/>
			<point x="54" y="66"/>
			<point x="141" y="-16"/>
			<point x="289" y="-16" type="curve" smooth="yes"/>
			<point x="437" y="-16"/>
			<point x="524" y="65"/>
			<point x="524" y="202" type="curve" smooth="yes"/>
			<point x="524" y="620" type="line"/>
			<point x="469" y="620" type="line"/>
			<point x="469" y="202" type="line" smooth="yes"/>
			<point x="469" y="98"/>
			<point x="402" y="36"/>
			<point x="289" y="36" type="curve" smooth="yes"/>
			<point x="176" y="36"/>
			<point x="109" y="95"/>
			<point x="109" y="196" type="curve" smooth="yes"/>
		</contour>
	</outline>
</glyph>
<glyph name="j.sc.ss03" format="2">
	<advance width="399"/>
	<outline>
		<contour>
			<point x="319" y="173" type="curve" smooth="yes"/>
			<point x="319" y="620" type="line"/>
			<point x="264" y="620" type="line"/>
			<point x="264" y="178" type="line" smooth="yes"/>
			<point x="264" y="91"/>
			<point x="216" y="40"/>
			<point x="136" y="40" type="curve" smooth="yes"/>
			<point x="110" y="40"/>
			<point x="79" y="44"/>
			<point x="54" y="50" type="curve"/>
			<point x="54" y="0" type="line"/>
			<point x="77" y="-6"/>
			<point x="108" y="-10"/>
			<point x="136" y="-10" type="curve" smooth="yes"/>
			<point x="251" y="-10"/>
			<point x="319" y="58"/>
		</contour>
	</outline>
</glyph>
<glyph name="k.sc" format="2">
	<advance width="645"/>
	<anchor x="313" y="620" name="top"/>
	<anchor x="313" y="0" name="bottom"/>
	<outline>
		<contour>
			<point x="65" y="0" type="line"/>
			<point x="120" y="0" type="line"/>
			<point x="120" y="173" type="line"/>
			<point x="293" y="347" type="line"/>
			<point x="297" y="347" type="line"/>
			<point x="519" y="0" type="line"/>
			<point x="585" y="0" type="line"/>
			<point x="340" y="381" type="line"/>
			<point x="573" y="620" type="line"/>
			<point x="496" y="620" type="line"/>
			<point x="144" y="259" type="line"/>
			<point x="120" y="227" type="line"/>
			<point x="116" y="227" type="line"/>
			<point x="120" y="268" type="line"/>
			<point x="120" y="620" type="line"/>
			<point x="65" y="620" type="line"/>
		</contour>
	</outline>
</glyph>
<glyph name="k.sc.ss04" format="2">
	<advance width="540"/>
	<anchor x="249" y="620" name="top"/>
	<anchor x="249" y="0" name="bottom"/>
	<outline>
		<contour>
			<point x="65" y="0" type="line"/>
			<point x="120" y="0" type="line"/>
			<point x="120" y="275" type="line"/>
			<point x="116" y="296" type="line"/>
			<point x="120" y="296" type="line"/>
			<point x="133" y="275" type="line"/>
			<point x="401" y="0" type="line"/>
			<point x="480" y="0" type="line"/>
			<point x="167" y="317" type="line"/>
			<point x="471" y="620" type="line"/>
			<point x="392" y="620" type="line"/>
			<point x="133" y="355" type="line"/>
			<point x="120" y="336" type="line"/>
			<point x="116" y="336" type="line"/>
			<point x="120" y="355" type="line"/>
			<point x="120" y="620" type="line"/>
			<point x="65" y="620" type="line"/>
		</contour>
	</outline>
</glyph>
<glyph name="k.ss04" format="2">
	<advance width="526"/>
	<anchor x="233" y="820" name="top"/>
	<anchor x="233" y="0" name="bottom"/>
	<outline>
		<contour>
			<point x="70" y="0" type="line"/>
			<point x="120" y="0" type="line"/>
			<point x="120" y="285" type="line"/>
			<point x="116" y="309" type="line"/>
			<point x="120" y="309" type="line"/>
			<point x="135" y="285" type="line"/>
			<point x="400" y="0" type="line"/>
			<point x="466" y="0" type="line"/>
			<point x="167" y="322" type="line"/>
			<point x="428" y="590" type="line"/>
			<point x="364" y="590" type="line"/>
			<point x="139" y="358" type="line"/>
			<point x="120" y="333" type="line"/>
			<point x="116" y="333" type="line"/>
			<point x="120" y="358" type="line"/>
			<point x="120" y="820" type="line"/>
			<point x="70" y="820" type="line"/>
		</contour>
	</outline>
</glyph>
<glyph name="l.sc" format="2">
	<advance width="608"/>
	<anchor x="304" y="310" name="center"/>
	<anchor x="120" y="620" name="top"/>
	<anchor x="170" y="620" name="topright"/>
	<anchor x="309" y="0" name="bottom"/>
	<outline>
		<contour>
			<point x="560" y="0" type="line"/>
			<point x="560" y="50" type="line"/>
			<point x="120" y="50" type="line"/>
			<point x="120" y="620" type="line"/>
			<point x="65" y="620" type="line"/>
			<point x="65" y="0" type="line"/>
		</contour>
	</outline>
</glyph>
<glyph name="lslash.sc" format="2">
	<advance width="674"/>
	<outline>
		<contour>
			<point x="55" y="288" type="line"/>
			<point x="334" y="332" type="line"/>
			<point x="334" y="383" type="line"/>
			<point x="55" y="339" type="line"/>
		</contour>
		<component base="l.sc" xOffset="66"/>
	</outline>
</glyph>
<glyph name="m.sc" format="2">
	<advance width="914"/>
	<outline>
		<contour>
			<point x="834" y="0" type="line"/>
			<point x="834" y="620" type="line"/>
			<point x="756" y="620" type="line"/>
			<point x="473" y="113" type="line"/>
			<point x="451" y="55" type="line"/>
			<point x="447" y="55" type="line"/>
			<point x="426" y="113" type="line"/>
			<point x="142" y="620" type="line"/>
			<point x="65" y="620" type="line"/>
			<point x="65" y="0" type="line"/>
			<point x="118" y="0" type="line"/>
			<point x="118" y="508" type="line"/>
			<point x="112" y="575" type="line"/>
			<point x="116" y="575" type="line"/>
			<point x="142" y="508" type="line"/>
			<point x="427" y="0" type="line"/>
			<point x="471" y="0" type="line"/>
			<point x="752" y="508" type="line"/>
			<point x="781" y="575" type="line"/>
			<point x="785" y="575" type="line"/>
			<point x="779" y="508" type="line"/>
			<point x="779" y="0" type="line"/>
		</contour>
	</outline>
</glyph>
<glyph name="macroncomb.alt" format="2">
	<advance width="338"/>
	<anchor x="169" y="760" name="top"/>
	<anchor x="169" y="590" name="_top"/>
	<outline>
		<contour>
			<point x="94" y="740" type="line"/>
			<point x="94" y="695" type="line"/>
			<point x="304" y="695" type="line"/>
			<point x="304" y="740" type="line"/>
		</contour>
	</outline>
</glyph>
<glyph name="n.sc" format="2">
	<advance width="698"/>
	<anchor x="340" y="620" name="top"/>
	<anchor x="340" y="0" name="bottom"/>
	<outline>
		<contour>
			<point x="65" y="620" type="line"/>
			<point x="65" y="0" type="line"/>
			<point x="118" y="0" type="line"/>
			<point x="118" y="509" type="line"/>
			<point x="114" y="570" type="line"/>
			<point x="118" y="570" type="line"/>
			<point x="157" y="509" type="line"/>
			<point x="543" y="0" type="line"/>
			<point x="618" y="0" type="line"/>
			<point x="618" y="620" type="line"/>
			<point x="565" y="620" type="line"/>
			<point x="565" y="111" type="line"/>
			<point x="569" y="50" type="line"/>
			<point x="564" y="50" type="line"/>
			<point x="526" y="111" type="line"/>
			<point x="136" y="620" type="line"/>
		</contour>
	</outline>
</glyph>
<glyph name="o.sc" format="2">
	<advance width="725"/>
	<anchor x="354" y="310" name="center"/>
	<anchor x="469" y="10" name="ogonek"/>
	<anchor x="354" y="620" name="top"/>
	<anchor x="705" y="620" name="topright"/>
	<anchor x="20" y="620" name="topleft"/>
	<anchor x="354" y="0" name="bottom"/>
	<outline>
		<contour>
			<point x="50" y="304" type="line" smooth="yes"/>
			<point x="50" y="103"/>
			<point x="164" y="-16"/>
			<point x="356" y="-16" type="curve" smooth="yes"/>
			<point x="547" y="-16"/>
			<point x="660" y="102"/>
			<point x="660" y="302" type="curve" smooth="yes"/>
			<point x="660" y="317" type="line" smooth="yes"/>
			<point x="660" y="518"/>
			<point x="546" y="636"/>
			<point x="354" y="636" type="curve" smooth="yes"/>
			<point x="163" y="636"/>
			<point x="50" y="518"/>
			<point x="50" y="319" type="curve" smooth="yes"/>
		</contour>
		<contour>
			<point x="107" y="296" type="curve" smooth="yes"/>
			<point x="107" y="319" type="line" smooth="yes"/>
			<point x="107" y="486"/>
			<point x="198" y="584"/>
			<point x="353" y="584" type="curve" smooth="yes"/>
			<point x="510" y="584"/>
			<point x="603" y="488"/>
			<point x="603" y="325" type="curve" smooth="yes"/>
			<point x="603" y="302" type="line" smooth="yes"/>
			<point x="603" y="135"/>
			<point x="512" y="36"/>
			<point x="357" y="36" type="curve" smooth="yes"/>
			<point x="200" y="36"/>
			<point x="107" y="133"/>
		</contour>
	</outline>
</glyph>
<glyph name="oe.sc" format="2">
	<advance width="1149"/>
	<outline>
		<contour>
			<point x="66" y="304" type="line" smooth="yes"/>
			<point x="66" y="103"/>
			<point x="180" y="-16"/>
			<point x="372" y="-16" type="curve" smooth="yes"/>
			<point x="484" y="-16"/>
			<point x="574" y="28"/>
			<point x="615" y="103" type="curve"/>
			<point x="619" y="103" type="line"/>
			<point x="619" y="0" type="line"/>
			<point x="1084" y="0" type="line"/>
			<point x="1084" y="50" type="line"/>
			<point x="674" y="50" type="line"/>
			<point x="674" y="320" type="line"/>
			<point x="994" y="320" type="line"/>
			<point x="994" y="370" type="line"/>
			<point x="674" y="370" type="line"/>
			<point x="674" y="570" type="line"/>
			<point x="1064" y="570" type="line"/>
			<point x="1064" y="620" type="line"/>
			<point x="619" y="620" type="line"/>
			<point x="619" y="516" type="line"/>
			<point x="615" y="516" type="line"/>
			<point x="578" y="591"/>
			<point x="487" y="636"/>
			<point x="370" y="636" type="curve" smooth="yes"/>
			<point x="179" y="636"/>
			<point x="66" y="518"/>
			<point x="66" y="319" type="curve" smooth="yes"/>
		</contour>
		<contour>
			<point x="123" y="296" type="curve" smooth="yes"/>
			<point x="123" y="319" type="line" smooth="yes"/>
			<point x="123" y="486"/>
			<point x="214" y="584"/>
			<point x="369" y="584" type="curve" smooth="yes"/>
			<point x="526" y="584"/>
			<point x="619" y="488"/>
			<point x="619" y="325" type="curve" smooth="yes"/>
			<point x="619" y="302" type="line" smooth="yes"/>
			<point x="619" y="135"/>
			<point x="528" y="36"/>
			<point x="373" y="36" type="curve" smooth="yes"/>
			<point x="216" y="36"/>
			<point x="123" y="133"/>
		</contour>
	</outline>
</glyph>
<glyph name="one.ss07" format="2">
	<advance width="267"/>
	<outline>
		<contour>
			<point x="126" y="780" type="line"/>
			<point x="126" y="753"/>
			<point x="119" y="719"/>
			<point x="106" y="690" type="curve"/>
			<point x="106" y="0" type="line"/>
			<point x="161" y="0" type="line"/>
			<point x="161" y="780" type="line"/>
		</contour>
	</outline>
</glyph>
<glyph name="oslash.sc" format="2">
	<advance width="780"/>
	<outline>
		<contour>
			<point x="781" y="542" type="line"/>
			<point x="781" y="603" type="line"/>
			<point x="-20" y="50" type="line"/>
			<point x="-20" y="-11" type="line"/>
		</contour>
		<component base="o.sc" xOffset="23"/>
	</outline>
</glyph>
<glyph name="p.sc" format="2">
	<advance width="608"/>
	<outline>
		<contour>
			<point x="65" y="0" type="line"/>
			<point x="120" y="0" type="line"/>
			<point x="120" y="270" type="line"/>
			<point x="356" y="270" type="line" smooth="yes"/>
			<point x="474" y="270"/>
			<point x="544" y="334"/>
			<point x="544" y="442" type="curve" smooth="yes"/>
			<point x="544" y="447" type="line" smooth="yes"/>
			<point x="544" y="556"/>
			<point x="474" y="620"/>
			<point x="356" y="620" type="curve" smooth="yes"/>
			<point x="65" y="620" type="line"/>
		</contour>
		<contour>
			<point x="120" y="320" type="line"/>
			<point x="120" y="570" type="line"/>
			<point x="356" y="570" type="line" smooth="yes"/>
			<point x="440" y="570"/>
			<point x="489" y="524"/>
			<point x="489" y="446" type="curve" smooth="yes"/>
			<point x="489" y="442" type="line" smooth="yes"/>
			<point x="489" y="365"/>
			<point x="440" y="320"/>
			<point x="356" y="320" type="curve" smooth="yes"/>
		</contour>
	</outline>
</glyph>
<glyph name="q.sc" format="2">
	<advance width="725"/>
	<outline>
		<contour>
			<point x="50" y="304" type="line" smooth="yes"/>
			<point x="50" y="103"/>
			<point x="164" y="-16"/>
			<point x="356" y="-16" type="curve" smooth="yes"/>
			<point x="547" y="-16"/>
			<point x="660" y="102"/>
			<point x="660" y="302" type="curve" smooth="yes"/>
			<point x="660" y="317" type="line" smooth="yes"/>
			<point x="660" y="518"/>
			<point x="546" y="636"/>
			<point x="354" y="636" type="curve" smooth="yes"/>
			<point x="163" y="636"/>
			<point x="50" y="518"/>
			<point x="50" y="319" type="curve" smooth="yes"/>
		</contour>
		<contour>
			<point x="107" y="296" type="curve" smooth="yes"/>
			<point x="107" y="319" type="line" smooth="yes"/>
			<point x="107" y="486"/>
			<point x="198" y="584"/>
			<point x="353" y="584" type="curve" smooth="yes"/>
			<point x="510" y="584"/>
			<point x="603" y="488"/>
			<point x="603" y="325" type="curve" smooth="yes"/>
			<point x="603" y="302" type="line" smooth="yes"/>
			<point x="603" y="135"/>
			<point x="512" y="36"/>
			<point x="357" y="36" type="curve" smooth="yes"/>
			<point x="200" y="36"/>
			<point x="107" y="133"/>
		</contour>
		<contour>
			<point x="402" y="14" type="line"/>
			<point x="402" y="-16" type="line" smooth="yes"/>
			<point x="402" y="-104"/>
			<point x="461" y="-156"/>
			<point x="562" y="-156" type="curve" smooth="yes"/>
			<point x="576" y="-156"/>
			<point x="587" y="-155"/>
			<point x="594" y="-153" type="curve"/>
			<point x="594" y="-103" type="line"/>
			<point x="586" y="-105"/>
			<point x="576" y="-106"/>
			<point x="567" y="-106" type="curve" smooth="yes"/>
			<point x="492" y="-106"/>
			<point x="447" y="-69"/>
			<point x="447" y="-6" type="curve" smooth="yes"/>
			<point x="447" y="14" type="line"/>
		</contour>
	</outline>
</glyph>
<glyph name="r.sc" format="2">
	<advance width="622"/>
	<anchor x="280" y="620" name="top"/>
	<anchor x="280" y="0" name="bottom"/>
	<outline>
		<contour>
			<point x="65" y="0" type="line"/>
			<point x="120" y="0" type="line"/>
			<point x="120" y="270" type="line"/>
			<point x="369" y="270" type="line"/>
			<point x="512" y="0" type="line"/>
			<point x="574" y="0" type="line"/>
			<point x="436" y="259" type="line" smooth="yes"/>
			<point x="429" y="271"/>
			<point x="418" y="280"/>
			<point x="407" y="285" type="curve"/>
			<point x="407" y="289" type="line"/>
			<point x="493" y="302"/>
			<point x="544" y="358"/>
			<point x="544" y="440" type="curve" smooth="yes"/>
			<point x="544" y="447" type="line" smooth="yes"/>
			<point x="544" y="556"/>
			<point x="474" y="620"/>
			<point x="356" y="620" type="curve" smooth="yes"/>
			<point x="65" y="620" type="line"/>
		</contour>
		<contour>
			<point x="120" y="320" type="line"/>
			<point x="120" y="570" type="line"/>
			<point x="356" y="570" type="line" smooth="yes"/>
			<point x="440" y="570"/>
			<point x="489" y="524"/>
			<point x="489" y="446" type="curve" smooth="yes"/>
			<point x="489" y="440" type="line" smooth="yes"/>
			<point x="489" y="365"/>
			<point x="441" y="320"/>
			<point x="359" y="320" type="curve" smooth="yes"/>
		</contour>
	</outline>
</glyph>
<glyph name="r.sc.ss05" format="2">
	<advance width="648"/>
	<anchor x="339" y="620" name="top"/>
	<anchor x="339" y="0" name="bottom"/>
	<outline>
		<contour>
			<point x="106" y="0" type="line"/>
			<point x="161" y="0" type="line"/>
			<point x="161" y="270" type="line"/>
			<point x="410" y="270" type="line" smooth="yes"/>
			<point x="479" y="270"/>
			<point x="520" y="231"/>
			<point x="520" y="165" type="curve"/>
			<point x="520" y="80" type="line"/>
			<point x="520" y="42"/>
			<point x="526" y="13"/>
			<point x="537" y="0" type="curve"/>
			<point x="591" y="0" type="line"/>
			<point x="593" y="4" type="line"/>
			<point x="582" y="27"/>
			<point x="575" y="58"/>
			<point x="575" y="89" type="curve"/>
			<point x="575" y="165" type="line"/>
			<point x="575" y="234"/>
			<point x="539" y="282"/>
			<point x="478" y="294" type="curve"/>
			<point x="478" y="298" type="line"/>
			<point x="539" y="316"/>
			<point x="575" y="369"/>
			<point x="575" y="440" type="curve" smooth="yes"/>
			<point x="575" y="447" type="line" smooth="yes"/>
			<point x="575" y="556"/>
			<point x="505" y="620"/>
			<point x="387" y="620" type="curve" smooth="yes"/>
			<point x="106" y="620" type="line"/>
		</contour>
		<contour>
			<point x="161" y="320" type="line"/>
			<point x="161" y="570" type="line"/>
			<point x="387" y="570" type="line" smooth="yes"/>
			<point x="471" y="570"/>
			<point x="520" y="524"/>
			<point x="520" y="446" type="curve" smooth="yes"/>
			<point x="520" y="440" type="line" smooth="yes"/>
			<point x="520" y="365"/>
			<point x="472" y="320"/>
			<point x="390" y="320" type="curve" smooth="yes"/>
		</contour>
	</outline>
</glyph>
<glyph name="registered.ss10" format="2">
	<advance width="932"/>
	<outline>
		<contour>
			<point x="466" y="800" type="curve" smooth="yes"/>
			<point x="245" y="800"/>
			<point x="66" y="621"/>
			<point x="66" y="400" type="curve" smooth="yes"/>
			<point x="66" y="179"/>
			<point x="245" y="0"/>
			<point x="466" y="0" type="curve" smooth="yes"/>
			<point x="689" y="0"/>
			<point x="866" y="179"/>
			<point x="866" y="400" type="curve" smooth="yes"/>
			<point x="866" y="621"/>
			<point x="687" y="800"/>
		</contour>
		<contour>
			<point x="466" y="755" type="curve" smooth="yes"/>
			<point x="663" y="755"/>
			<point x="821" y="597"/>
			<point x="821" y="400" type="curve" smooth="yes"/>
			<point x="821" y="203"/>
			<point x="663" y="45"/>
			<point x="466" y="45" type="curve" smooth="yes"/>
			<point x="269" y="45"/>
			<point x="111" y="203"/>
			<point x="111" y="400" type="curve" smooth="yes"/>
			<point x="111" y="597"/>
			<point x="269" y="755"/>
		</contour>
		<contour>
			<point x="294" y="165" type="line"/>
			<point x="336" y="165" type="line"/>
			<point x="336" y="369" type="line"/>
			<point x="525" y="369" type="line"/>
			<point x="634" y="165" type="line"/>
			<point x="681" y="165" type="line"/>
			<point x="576" y="361" type="line" smooth="yes"/>
			<point x="573" y="368"/>
			<point x="564" y="375"/>
			<point x="554" y="381" type="curve"/>
			<point x="554" y="385" type="line"/>
			<point x="619" y="395"/>
			<point x="658" y="437"/>
			<point x="658" y="498" type="curve" smooth="yes"/>
			<point x="658" y="504" type="line" smooth="yes"/>
			<point x="658" y="586"/>
			<point x="605" y="635"/>
			<point x="515" y="635" type="curve" smooth="yes"/>
			<point x="294" y="635" type="line"/>
		</contour>
		<contour>
			<point x="336" y="407" type="line"/>
			<point x="336" y="597" type="line"/>
			<point x="515" y="597" type="line" smooth="yes"/>
			<point x="578" y="597"/>
			<point x="616" y="562"/>
			<point x="616" y="503" type="curve" smooth="yes"/>
			<point x="616" y="498" type="line" smooth="yes"/>
			<point x="616" y="441"/>
			<point x="579" y="407"/>
			<point x="517" y="407" type="curve" smooth="yes"/>
		</contour>
	</outline>
</glyph>
<glyph name="s.sc" format="2">
	<advance width="615"/>
	<anchor x="303" y="620" name="top"/>
	<anchor x="303" y="0" name="bottom"/>
	<outline>
		<contour>
			<point x="50" y="194" type="line"/>
			<point x="52" y="180" type="line" smooth="yes"/>
			<point x="70" y="57"/>
			<point x="163" y="-16"/>
			<point x="306" y="-16" type="curve" smooth="yes"/>
			<point x="463" y="-16"/>
			<point x="555" y="50"/>
			<point x="555" y="162" type="curve" smooth="yes"/>
			<point x="555" y="207"/>
			<point x="535" y="252"/>
			<point x="501" y="283" type="curve" smooth="yes"/>
			<point x="473" y="308"/>
			<point x="424" y="330"/>
			<point x="370" y="342" type="curve" smooth="yes"/>
			<point x="275" y="363" type="line" smooth="yes"/>
			<point x="231" y="373"/>
			<point x="191" y="389"/>
			<point x="167" y="408" type="curve" smooth="yes"/>
			<point x="145" y="426"/>
			<point x="134" y="451"/>
			<point x="134" y="473" type="curve" smooth="yes"/>
			<point x="134" y="477" type="line" smooth="yes"/>
			<point x="134" y="544"/>
			<point x="197" y="584"/>
			<point x="303" y="584" type="curve" smooth="yes"/>
			<point x="394" y="584"/>
			<point x="455" y="545"/>
			<point x="468" y="479" type="curve" smooth="yes"/>
			<point x="471" y="464" type="line"/>
			<point x="524" y="478" type="line"/>
			<point x="521" y="493" type="line" smooth="yes"/>
			<point x="503" y="583"/>
			<point x="421" y="636"/>
			<point x="301" y="636" type="curve" smooth="yes"/>
			<point x="160" y="636"/>
			<point x="77" y="574"/>
			<point x="77" y="470" type="curve" smooth="yes"/>
			<point x="77" y="434"/>
			<point x="93" y="398"/>
			<point x="121" y="372" type="curve" smooth="yes"/>
			<point x="150" y="345"/>
			<point x="199" y="324"/>
			<point x="252" y="313" type="curve" smooth="yes"/>
			<point x="346" y="293" type="line" smooth="yes"/>
			<point x="395" y="283"/>
			<point x="438" y="264"/>
			<point x="463" y="241" type="curve" smooth="yes"/>
			<point x="485" y="220"/>
			<point x="498" y="192"/>
			<point x="498" y="165" type="curve" smooth="yes"/>
			<point x="498" y="158" type="line" smooth="yes"/>
			<point x="498" y="81"/>
			<point x="427" y="36"/>
			<point x="307" y="36" type="curve" smooth="yes"/>
			<point x="194" y="36"/>
			<point x="119" y="94"/>
			<point x="105" y="193" type="curve" smooth="yes"/>
			<point x="103" y="207" type="line"/>
		</contour>
	</outline>
</glyph>
<glyph name="seven.ss09" format="2">
	<advance width="622"/>
	<outline>
		<contour>
			<point x="54" y="730" type="line"/>
			<point x="514" y="730" type="line"/>
			<point x="185" y="0" type="line"/>
			<point x="245" y="0" type="line"/>
			<point x="574" y="730" type="line"/>
			<point x="574" y="780" type="line"/>
			<point x="54" y="780" type="line"/>
		</contour>
	</outline>
</glyph>
<glyph name="t.sc" format="2">
	<advance width="680"/>
	<anchor x="333" y="310" name="center"/>
	<anchor x="333" y="0" name="bottom"/>
	<anchor x="333" y="620" name="top"/>
	<outline>
		<contour>
			<point x="65" y="620" type="line"/>
			<point x="65" y="570" type="line"/>
			<point x="305" y="570" type="line"/>
			<point x="305" y="0" type="line"/>
			<point x="360" y="0" type="line"/>
			<point x="360" y="570" type="line"/>
			<point x="600" y="570" type="line"/>
			<point x="600" y="620" type="line"/>
		</contour>
	</outline>
</glyph>
<glyph name="thorn.sc" format="2">
	<advance width="649"/>
	<outline>
		<contour>
			<point x="106" y="0" type="line"/>
			<point x="161" y="0" type="line"/>
			<point x="161" y="150" type="line"/>
			<point x="397" y="150" type="line" smooth="yes"/>
			<point x="515" y="150"/>
			<point x="585" y="214"/>
			<point x="585" y="322" type="curve" smooth="yes"/>
			<point x="585" y="327" type="line" smooth="yes"/>
			<point x="585" y="436"/>
			<point x="515" y="500"/>
			<point x="397" y="500" type="curve" smooth="yes"/>
			<point x="161" y="500" type="line"/>
			<point x="161" y="620" type="line"/>
			<point x="106" y="620" type="line"/>
		</contour>
		<contour>
			<point x="161" y="200" type="line"/>
			<point x="161" y="450" type="line"/>
			<point x="397" y="450" type="line" smooth="yes"/>
			<point x="481" y="450"/>
			<point x="530" y="404"/>
			<point x="530" y="326" type="curve" smooth="yes"/>
			<point x="530" y="322" type="line" smooth="yes"/>
			<point x="530" y="245"/>
			<point x="481" y="200"/>
			<point x="397" y="200" type="curve" smooth="yes"/>
		</contour>
	</outline>
</glyph>
<glyph name="two.ss08" format="2">
	<advance width="640"/>
	<outline>
		<contour>
			<point x="79" y="562" type="line"/>
			<point x="132" y="558" type="line"/>
			<point x="133" y="570" type="line" smooth="yes"/>
			<point x="142" y="679"/>
			<point x="215" y="744"/>
			<point x="328" y="744" type="curve" smooth="yes"/>
			<point x="439" y="744"/>
			<point x="505" y="681"/>
			<point x="505" y="574" type="curve" smooth="yes"/>
			<point x="505" y="513"/>
			<point x="475" y="448"/>
			<point x="423" y="398" type="curve" smooth="yes"/>
			<point x="66" y="60" type="line"/>
			<point x="66" y="0" type="line"/>
			<point x="592" y="0" type="line"/>
			<point x="592" y="50" type="line"/>
			<point x="135" y="50" type="line"/>
			<point x="454" y="353" type="line" smooth="yes"/>
			<point x="522" y="418"/>
			<point x="562" y="500"/>
			<point x="562" y="574" type="curve" smooth="yes"/>
			<point x="562" y="714"/>
			<point x="475" y="796"/>
			<point x="328" y="796" type="curve" smooth="yes"/>
			<point x="184" y="796"/>
			<point x="92" y="714"/>
			<point x="80" y="574" type="curve" smooth="yes"/>
		</contour>
	</outline>
</glyph>
<glyph name="u.sc" format="2">
	<advance width="742"/>
	<anchor x="479" y="10" name="ogonek"/>
	<anchor x="371" y="620" name="top"/>
	<anchor x="701" y="620" name="topright"/>
	<anchor x="371" y="0" name="bottom"/>
	<outline>
		<contour>
			<point x="636" y="620" type="line"/>
			<point x="581" y="620" type="line"/>
			<point x="581" y="282" type="line" smooth="yes"/>
			<point x="581" y="127"/>
			<point x="516" y="36"/>
			<point x="371" y="36" type="curve" smooth="yes"/>
			<point x="226" y="36"/>
			<point x="161" y="125"/>
			<point x="161" y="276" type="curve" smooth="yes"/>
			<point x="161" y="620" type="line"/>
			<point x="106" y="620" type="line"/>
			<point x="106" y="284" type="line" smooth="yes"/>
			<point x="106" y="95"/>
			<point x="192" y="-16"/>
			<point x="371" y="-16" type="curve" smooth="yes"/>
			<point x="550" y="-16"/>
			<point x="636" y="95"/>
			<point x="636" y="282" type="curve" smooth="yes"/>
		</contour>
	</outline>
</glyph>
<glyph name="v.sc" format="2">
	<advance width="747"/>
	<outline>
		<contour>
			<point x="50" y="620" type="line"/>
			<point x="337" y="0" type="line"/>
			<point x="401" y="0" type="line"/>
			<point x="687" y="620" type="line"/>
			<point x="627" y="620" type="line"/>
			<point x="386" y="99" type="line"/>
			<point x="372" y="50" type="line"/>
			<point x="368" y="50" type="line"/>
			<point x="354" y="99" type="line"/>
			<point x="113" y="620" type="line"/>
		</contour>
	</outline>
</glyph>
<glyph name="w.sc" format="2">
	<advance width="1075"/>
	<anchor x="533" y="620" name="top"/>
	<anchor x="533" y="0" name="bottom"/>
	<outline>
		<contour>
			<point x="50" y="620" type="line"/>
			<point x="274" y="0" type="line"/>
			<point x="339" y="0" type="line"/>
			<point x="512" y="485" type="line"/>
			<point x="531" y="570" type="line"/>
			<point x="535" y="570" type="line"/>
			<point x="553" y="485" type="line"/>
			<point x="727" y="0" type="line"/>
			<point x="792" y="0" type="line"/>
			<point x="1015" y="620" type="line"/>
			<point x="957" y="620" type="line"/>
			<point x="782" y="133" type="line"/>
			<point x="763" y="50" type="line"/>
			<point x="759" y="50" type="line"/>
			<point x="739" y="133" type="line"/>
			<point x="564" y="620" type="line"/>
			<point x="503" y="620" type="line"/>
			<point x="330" y="133" type="line"/>
			<point x="310" y="50" type="line"/>
			<point x="306" y="50" type="line"/>
			<point x="287" y="133" type="line"/>
			<point x="111" y="620" type="line"/>
		</contour>
	</outline>
</glyph>
<glyph name="x.sc" format="2">
	<advance width="638"/>
	<outline>
		<contour>
			<point x="50" y="0" type="line"/>
			<point x="115" y="0" type="line"/>
			<point x="276" y="231" type="line"/>
			<point x="310" y="292" type="line"/>
			<point x="314" y="292" type="line"/>
			<point x="348" y="232" type="line"/>
			<point x="511" y="0" type="line"/>
			<point x="578" y="0" type="line"/>
			<point x="350" y="322" type="line"/>
			<point x="563" y="620" type="line"/>
			<point x="498" y="620" type="line"/>
			<point x="345" y="406" type="line"/>
			<point x="316" y="346" type="line"/>
			<point x="312" y="346" type="line"/>
			<point x="281" y="406" type="line"/>
			<point x="129" y="620" type="line"/>
			<point x="61" y="620" type="line"/>
			<point x="276" y="320" type="line"/>
		</contour>
	</outline>
</glyph>
<glyph name="y.sc" format="2">
	<advance width="650"/>
	<anchor x="319" y="620" name="top"/>
	<anchor x="319" y="0" name="bottom"/>
	<anchor x="16" y="620" name="topleft"/>
	<outline>
		<contour>
			<point x="50" y="620" type="line"/>
			<point x="293" y="232" type="line"/>
			<point x="293" y="0" type="line"/>
			<point x="348" y="0" type="line"/>
			<point x="348" y="232" type="line"/>
			<point x="590" y="620" type="line"/>
			<point x="529" y="620" type="line"/>
			<point x="356" y="341" type="line"/>
			<point x="323" y="276" type="line"/>
			<point x="319" y="276" type="line"/>
			<point x="286" y="341" type="line"/>
			<point x="113" y="620" type="line"/>
		</contour>
	</outline>
</glyph>
